G04 #@! TF.FileFunction,Legend,Top*
%FSLAX46Y46*%
G04 Gerber Fmt 4.6, Leading zero omitted, Abs format (unit mm)*
G04 Created by KiCad (PCBNEW 4.0.7) date 02/25/18 15:11:15*
%MOMM*%
%LPD*%
G01*
G04 APERTURE LIST*
%ADD10C,0.100000*%
%ADD11C,0.180000*%
%ADD12C,0.120000*%
%ADD13C,0.150000*%
%ADD14C,0.010000*%
%ADD15C,0.125000*%
%ADD16C,0.254000*%
%ADD17C,3.600000*%
%ADD18R,1.400000X1.650000*%
%ADD19R,1.600000X1.600000*%
%ADD20C,1.600000*%
%ADD21R,1.400000X1.400000*%
%ADD22O,1.400000X1.400000*%
%ADD23R,2.000000X1.900000*%
%ADD24R,1.700000X1.100000*%
%ADD25R,1.100000X1.700000*%
%ADD26C,1.455599*%
%ADD27R,2.100000X2.100000*%
%ADD28O,2.100000X2.100000*%
%ADD29R,0.800000X1.500000*%
%ADD30R,1.200000X1.300000*%
G04 APERTURE END LIST*
D10*
D11*
X43920850Y2276813D02*
X44397041Y2276813D01*
X43825612Y1991099D02*
X44158945Y2991099D01*
X44492279Y1991099D01*
X45492279Y2657766D02*
X45730374Y1991099D01*
X45968470Y2657766D01*
X46730375Y2038718D02*
X46635137Y1991099D01*
X46444660Y1991099D01*
X46349422Y2038718D01*
X46301803Y2133956D01*
X46301803Y2514909D01*
X46349422Y2610147D01*
X46444660Y2657766D01*
X46635137Y2657766D01*
X46730375Y2610147D01*
X46777994Y2514909D01*
X46777994Y2419670D01*
X46301803Y2324432D01*
X47206565Y1991099D02*
X47206565Y2657766D01*
X47206565Y2467290D02*
X47254184Y2562528D01*
X47301803Y2610147D01*
X47397041Y2657766D01*
X47492280Y2657766D01*
X48539899Y2038718D02*
X48635137Y1991099D01*
X48825613Y1991099D01*
X48920852Y2038718D01*
X48968471Y2133956D01*
X48968471Y2181575D01*
X48920852Y2276813D01*
X48825613Y2324432D01*
X48682756Y2324432D01*
X48587518Y2372051D01*
X48539899Y2467290D01*
X48539899Y2514909D01*
X48587518Y2610147D01*
X48682756Y2657766D01*
X48825613Y2657766D01*
X48920852Y2610147D01*
X49397042Y1991099D02*
X49397042Y2657766D01*
X49397042Y2991099D02*
X49349423Y2943480D01*
X49397042Y2895861D01*
X49444661Y2943480D01*
X49397042Y2991099D01*
X49397042Y2895861D01*
X50635137Y2657766D02*
X50635137Y1991099D01*
X50635137Y2562528D02*
X50682756Y2610147D01*
X50777994Y2657766D01*
X50920852Y2657766D01*
X51016090Y2610147D01*
X51063709Y2514909D01*
X51063709Y1991099D01*
X51682756Y1991099D02*
X51587518Y2038718D01*
X51539899Y2086337D01*
X51492280Y2181575D01*
X51492280Y2467290D01*
X51539899Y2562528D01*
X51587518Y2610147D01*
X51682756Y2657766D01*
X51825614Y2657766D01*
X51920852Y2610147D01*
X51968471Y2562528D01*
X52016090Y2467290D01*
X52016090Y2181575D01*
X51968471Y2086337D01*
X51920852Y2038718D01*
X51825614Y1991099D01*
X51682756Y1991099D01*
X53635138Y1991099D02*
X53635138Y2514909D01*
X53587519Y2610147D01*
X53492281Y2657766D01*
X53301804Y2657766D01*
X53206566Y2610147D01*
X53635138Y2038718D02*
X53539900Y1991099D01*
X53301804Y1991099D01*
X53206566Y2038718D01*
X53158947Y2133956D01*
X53158947Y2229194D01*
X53206566Y2324432D01*
X53301804Y2372051D01*
X53539900Y2372051D01*
X53635138Y2419670D01*
X54111328Y1991099D02*
X54111328Y2657766D01*
X54111328Y2467290D02*
X54158947Y2562528D01*
X54206566Y2610147D01*
X54301804Y2657766D01*
X54397043Y2657766D01*
X55158948Y1991099D02*
X55158948Y2991099D01*
X55158948Y2038718D02*
X55063710Y1991099D01*
X54873233Y1991099D01*
X54777995Y2038718D01*
X54730376Y2086337D01*
X54682757Y2181575D01*
X54682757Y2467290D01*
X54730376Y2562528D01*
X54777995Y2610147D01*
X54873233Y2657766D01*
X55063710Y2657766D01*
X55158948Y2610147D01*
X56016091Y2038718D02*
X55920853Y1991099D01*
X55730376Y1991099D01*
X55635138Y2038718D01*
X55587519Y2133956D01*
X55587519Y2514909D01*
X55635138Y2610147D01*
X55730376Y2657766D01*
X55920853Y2657766D01*
X56016091Y2610147D01*
X56063710Y2514909D01*
X56063710Y2419670D01*
X55587519Y2324432D01*
D10*
X43860720Y75483720D02*
X44246800Y77292200D01*
X43865800Y34152840D02*
X43916600Y33258760D01*
X50955573Y83762972D02*
X49991563Y84292530D01*
X97124595Y63725083D02*
X97441436Y62490152D01*
X96820768Y65136804D02*
X97124595Y63725083D01*
X96632601Y66687713D02*
X96820768Y65136804D01*
X96638125Y68319403D02*
X96632601Y66687713D01*
X96880350Y69963922D02*
X96638125Y68319403D01*
X98025607Y73043514D02*
X97359175Y71555608D01*
X97359175Y71555608D02*
X96880350Y69963922D01*
X98778291Y74404414D02*
X98025607Y73043514D01*
X99850757Y76814051D02*
X99462352Y75656394D01*
X99462352Y75656394D02*
X98778291Y74404414D01*
X99850757Y76814051D02*
X99850757Y88055035D01*
X50735Y88055035D02*
X130724Y88822828D01*
X1263025Y90804890D02*
X1561489Y91050445D01*
X76547895Y97375154D02*
X85006687Y95599644D01*
X40511677Y99413209D02*
X31902509Y98647824D01*
X367255Y89557646D02*
X541302Y89902733D01*
X1883792Y91263751D02*
X2226461Y91442512D01*
X2544677Y91581566D02*
X2226461Y91442512D01*
X991611Y90529731D02*
X1263025Y90804890D01*
X7132339Y93308757D02*
X2544677Y91581566D01*
X130724Y88822828D02*
X229903Y89196381D01*
X23353596Y97375154D02*
X14894804Y95599644D01*
X229903Y89196381D02*
X367255Y89557646D01*
X50735Y76814051D02*
X50735Y88055035D01*
X98909880Y90529731D02*
X98638467Y90804890D01*
X541302Y89902733D02*
X750171Y90227929D01*
X50828764Y99666319D02*
X59389815Y99413209D01*
X49072727Y99666319D02*
X40511677Y99413209D01*
X98638467Y90804890D02*
X98340002Y91050445D01*
X1561489Y91050445D02*
X1883792Y91263751D01*
X50735Y76814051D02*
X439139Y75656394D01*
X11770129Y94748269D02*
X7132339Y93308757D01*
X99151321Y90227929D02*
X98909880Y90529731D01*
X14894804Y95599644D02*
X11770129Y94748269D01*
X750171Y90227929D02*
X991611Y90529731D01*
X98017700Y91263751D02*
X97675030Y91442512D01*
X98340002Y91050445D02*
X98017700Y91263751D01*
X59389815Y99413209D02*
X67998983Y98647824D01*
X97356815Y91581566D02*
X97675030Y91442512D01*
X92769153Y93308757D02*
X97356815Y91581566D01*
X88131362Y94748269D02*
X92769153Y93308757D01*
X85006687Y95599644D02*
X88131362Y94748269D01*
X38248565Y5464032D02*
X38429547Y5535688D01*
X37358521Y4061546D02*
X37370743Y4255813D01*
X60004956Y2867247D02*
X60162432Y2752834D01*
X37370743Y4255813D02*
X37407217Y4447017D01*
X60333007Y2659060D02*
X60513989Y2587404D01*
X38811200Y5608492D02*
X39005851Y5608492D01*
X37407217Y3676076D02*
X37370743Y3867279D01*
X39896535Y2867247D02*
X39739059Y2752834D01*
X37550246Y3314826D02*
X37467367Y3490952D01*
X37467367Y4632141D02*
X37550246Y4808267D01*
X39568485Y5464032D02*
X39739059Y5370259D01*
X62351246Y3314826D02*
X62434124Y3490952D01*
X62351246Y4808267D02*
X62246946Y4972616D01*
X40446308Y3867279D02*
X40409834Y3676076D01*
X59551809Y4632141D02*
X59491658Y4447017D01*
X59634687Y4808267D02*
X59551809Y4632141D01*
X61283408Y5584096D02*
X61090292Y5608492D01*
X61090292Y5608492D02*
X60895641Y5608492D01*
X61823500Y5370259D02*
X61652926Y5464032D01*
X59455184Y4255813D02*
X59442962Y4061546D01*
X39198967Y2538997D02*
X39005851Y2514600D01*
X62122871Y5122598D02*
X61980977Y5255845D01*
X37920515Y2867247D02*
X37778620Y3000495D01*
X59863062Y5122598D02*
X59738986Y4972616D01*
X61980977Y5255845D02*
X61823500Y5370259D01*
X39387503Y5535688D02*
X39568485Y5464032D01*
X61980977Y2867247D02*
X62122871Y3000495D01*
X59738986Y3150476D02*
X59863062Y3000495D01*
X37654545Y4972616D02*
X37778620Y5122598D01*
X60895641Y2514600D02*
X61090292Y2514600D01*
X61471944Y2587404D02*
X61652926Y2659060D01*
X60702524Y2538997D02*
X60895641Y2514600D01*
X59634687Y3314826D02*
X59738986Y3150476D01*
X62530749Y3867279D02*
X62542971Y4061546D01*
X60162432Y2752834D02*
X60333007Y2659060D01*
X39739059Y2752834D02*
X39568485Y2659060D01*
X60004956Y5255845D02*
X59863062Y5122598D01*
X62122871Y3000495D02*
X62246946Y3150476D01*
X62494275Y3676076D02*
X62530749Y3867279D01*
X40266805Y4808267D02*
X40349683Y4632141D01*
X60895641Y5608492D02*
X60702524Y5584096D01*
X61471944Y5535688D02*
X61283408Y5584096D01*
X59491658Y3676076D02*
X59551809Y3490952D01*
X40349683Y3490952D02*
X40266805Y3314826D01*
X61823500Y2752834D02*
X61980977Y2867247D01*
X39896535Y5255845D02*
X40038430Y5122598D01*
X59442962Y4061546D02*
X59455184Y3867279D01*
X59455184Y3867279D02*
X59491658Y3676076D01*
X61652926Y5464032D02*
X61471944Y5535688D01*
X40162505Y4972616D02*
X40266805Y4808267D01*
X60702524Y5584096D02*
X60513989Y5535688D01*
X62530749Y4255813D02*
X62494275Y4447017D01*
X60162432Y5370259D02*
X60004956Y5255845D01*
X40266805Y3314826D02*
X40162505Y3150476D01*
X39198967Y5584096D02*
X39387503Y5535688D01*
X39739059Y5370259D02*
X39896535Y5255845D01*
X38618083Y5584096D02*
X38811200Y5608492D01*
X40038430Y3000495D02*
X39896535Y2867247D01*
X60333007Y5464032D02*
X60162432Y5370259D01*
X59863062Y3000495D02*
X60004956Y2867247D01*
X59551809Y3490952D02*
X59634687Y3314826D01*
X39005851Y5608492D02*
X39198967Y5584096D01*
X37654545Y3150476D02*
X37550246Y3314826D01*
X33906674Y10492500D02*
X33906674Y73869753D01*
X65994817Y10492500D02*
X65994817Y73869753D01*
X67338129Y79099936D02*
X68068882Y80250977D01*
X32563362Y79099936D02*
X31832610Y80250977D01*
X33565484Y76569721D02*
X33144041Y77866362D01*
X68068882Y80250977D02*
X68938176Y81301319D01*
X69932294Y82234390D02*
X71035550Y83035465D01*
X28865942Y83035465D02*
X27670960Y83691903D01*
X31832610Y80250977D02*
X30963316Y81301319D01*
X33821039Y75230473D02*
X33565484Y76569721D01*
X65994817Y7492491D02*
X65994817Y10492500D01*
X30963316Y81301319D02*
X29969197Y82234390D01*
X33906674Y73869753D02*
X33821039Y75230473D01*
X6415126Y79119764D02*
X6019957Y77848888D01*
X23729656Y84702158D02*
X23058620Y84702158D01*
X66757450Y77866362D02*
X67338129Y79099936D01*
X7033109Y73720627D02*
X7377452Y72127070D01*
X29969197Y82234390D02*
X28865942Y83035465D01*
X33906674Y7492491D02*
X33906674Y10492500D01*
X6578115Y75207759D02*
X7033109Y73720627D01*
X25082392Y84531876D02*
X23729656Y84702158D01*
X27670960Y83691903D02*
X26403108Y84193344D01*
X66080453Y75230473D02*
X66336008Y76569721D01*
X68938176Y81301319D02*
X69932294Y82234390D01*
X71035550Y83035465D02*
X72230532Y83691903D01*
X6167738Y76574136D02*
X6578115Y75207759D01*
X6019957Y77848888D02*
X6167738Y76574136D01*
X7490342Y80322153D02*
X6415126Y79119764D01*
X26403108Y84193344D02*
X25082392Y84531876D01*
X7490342Y80322153D02*
X9713785Y81417451D01*
X65994817Y73869753D02*
X66080453Y75230473D01*
X33144041Y77866362D02*
X32563362Y79099936D01*
X66336008Y76569721D02*
X66757450Y77866362D01*
X93801709Y58063694D02*
X92958939Y56025139D01*
X95096702Y61405344D02*
X94976050Y60517705D01*
X94976050Y60517705D02*
X94525931Y59473092D01*
X92280854Y53034982D02*
X92207992Y48712244D01*
X95701054Y57531999D02*
X94454946Y55711784D01*
X92411149Y80322153D02*
X90187706Y81417451D01*
X92524040Y72127070D02*
X92384710Y70470771D01*
X94454946Y55711784D02*
X93173181Y52926480D01*
X92819806Y67214145D02*
X93324619Y65735670D01*
X92958939Y56025139D02*
X92280854Y53034982D01*
X92487792Y68811708D02*
X92819806Y67214145D01*
X93324619Y65735670D02*
X93913810Y64417291D01*
X72230532Y83691903D02*
X73498384Y84193344D01*
X97357478Y59690124D02*
X96701072Y58761171D01*
X73498384Y84193344D02*
X74819099Y84531876D01*
X74819099Y84531876D02*
X76171836Y84702158D01*
X76171836Y84702158D02*
X76842872Y84702158D01*
X97659078Y60533628D02*
X97357478Y59690124D01*
X92384710Y70470771D02*
X92487792Y68811708D01*
X94525931Y59473092D02*
X93801709Y58063694D01*
X92411149Y80322153D02*
X93486366Y79119764D01*
X93486366Y79119764D02*
X93881535Y77848888D01*
X93733754Y76574136D02*
X93323376Y75207759D01*
X93173181Y52926480D02*
X92207992Y48712244D01*
X93881535Y77848888D02*
X93733754Y76574136D01*
X93913810Y64417291D02*
X94479174Y63274572D01*
X94907370Y62289824D02*
X95096702Y61405344D01*
X96701072Y58761171D02*
X95701054Y57531999D01*
X92868382Y73720627D02*
X92524040Y72127070D01*
X94479174Y63274572D02*
X94907370Y62289824D01*
X93323376Y75207759D02*
X92868382Y73720627D01*
X46850063Y82027040D02*
X47844182Y82960110D01*
X99770768Y88822828D02*
X99671589Y89196381D01*
X50954617Y24222125D02*
X49990607Y23692567D01*
X53921285Y27006613D02*
X53051991Y25956271D01*
X45980769Y80976697D02*
X46850063Y82027040D01*
X46849501Y25956271D02*
X47843619Y25023200D01*
X44668775Y29391228D02*
X45249454Y28157654D01*
X99850757Y88055035D02*
X99770768Y88822828D01*
X45249454Y28157654D02*
X45980207Y27006613D01*
X43991778Y32027117D02*
X44247333Y30687869D01*
X99671589Y89196381D02*
X99534236Y89557646D01*
X44247333Y30687869D02*
X44668775Y29391228D01*
X43868327Y34151223D02*
X43860984Y75484473D01*
X99360189Y89902733D02*
X99151321Y90227929D01*
X54652037Y28157654D02*
X53921285Y27006613D01*
X55232716Y29391228D02*
X54652037Y28157654D01*
X99534236Y89557646D02*
X99360189Y89902733D01*
X45980207Y27006613D02*
X46849501Y25956271D01*
X48946875Y24222125D02*
X49910884Y23692567D01*
X43914047Y33262223D02*
X43991778Y32027117D01*
X55987444Y33262223D02*
X55909714Y32027117D01*
X55909714Y32027117D02*
X55654159Y30687869D01*
X55654159Y30687869D02*
X55232716Y29391228D01*
X53051991Y25956271D02*
X52057872Y25023200D01*
X44669338Y78592083D02*
X45250017Y79825656D01*
X44247895Y77295441D02*
X44669338Y78592083D01*
X45250017Y79825656D02*
X45980769Y80976697D01*
X40266805Y86181416D02*
X40162505Y86017067D01*
X60333007Y88330623D02*
X60162432Y88236849D01*
X61471944Y85453995D02*
X61652926Y85525651D01*
X38811200Y88475083D02*
X39005851Y88475083D01*
X37370743Y87122404D02*
X37407217Y87313607D01*
X59442962Y86928137D02*
X59455184Y86733870D01*
X59455184Y86733870D02*
X59491658Y86542666D01*
X38811200Y85381191D02*
X38618083Y85405587D01*
X38077991Y85619425D02*
X37920515Y85733838D01*
X37920515Y88122436D02*
X38077991Y88236849D01*
X60513989Y85453995D02*
X60702524Y85405587D01*
X39005851Y88475083D02*
X39198967Y88450687D01*
X37407217Y87313607D02*
X37467367Y87498732D01*
X38429547Y85453995D02*
X38248565Y85525651D01*
X40038430Y85867086D02*
X39896535Y85733838D01*
X38618083Y88450687D02*
X38811200Y88475083D01*
X40349683Y87498732D02*
X40409834Y87313607D01*
X40458530Y86928137D02*
X40446308Y86733870D01*
X39568485Y85525651D02*
X39387503Y85453995D01*
X40162505Y86017067D02*
X40038430Y85867086D01*
X37550246Y87674857D02*
X37654545Y87839207D01*
X40446308Y87122404D02*
X40458530Y86928137D01*
X40266805Y87674857D02*
X40349683Y87498732D01*
X49950746Y23714464D02*
X49990607Y23692567D01*
X38077991Y88236849D02*
X38248565Y88330623D01*
X38618083Y85405587D02*
X38429547Y85453995D01*
X37358521Y86928137D02*
X37370743Y87122404D01*
X37467367Y86357542D02*
X37407217Y86542666D01*
X39739059Y88236849D02*
X39896535Y88122436D01*
X49950746Y23714464D02*
X49910884Y23692567D01*
X39387503Y88402279D02*
X39568485Y88330623D01*
X61283408Y88450687D02*
X61090292Y88475083D01*
X39568485Y88330623D02*
X39739059Y88236849D01*
X39896535Y85733838D02*
X39739059Y85619425D01*
X38248565Y88330623D02*
X38429547Y88402279D01*
X39005851Y85381191D02*
X38811200Y85381191D01*
X61283408Y85405587D02*
X61471944Y85453995D01*
X40446308Y86733870D02*
X40409834Y86542666D01*
X59738986Y87839207D02*
X59634687Y87674857D01*
X37407217Y86542666D02*
X37370743Y86733870D01*
X60333007Y85525651D02*
X60513989Y85453995D01*
X59738986Y86017067D02*
X59863062Y85867086D01*
X60162432Y85619425D02*
X60333007Y85525651D01*
X37654545Y87839207D02*
X37778620Y87989188D01*
X37778620Y85867086D02*
X37654545Y86017067D01*
X37654545Y86017067D02*
X37550246Y86181416D01*
X39198967Y85405587D02*
X39005851Y85381191D01*
X37467367Y87498732D02*
X37550246Y87674857D01*
X37370743Y86733870D02*
X37358521Y86928137D01*
X37778620Y87989188D02*
X37920515Y88122436D01*
X38429547Y88402279D02*
X38618083Y88450687D01*
X40409834Y87313607D02*
X40446308Y87122404D01*
X40038430Y87989188D02*
X40162505Y87839207D01*
X37920515Y85733838D02*
X37778620Y85867086D01*
X40162505Y87839207D02*
X40266805Y87674857D01*
X39739059Y85619425D02*
X39568485Y85525651D01*
X40409834Y86542666D02*
X40349683Y86357542D01*
X37550246Y86181416D02*
X37467367Y86357542D01*
X39896535Y88122436D02*
X40038430Y87989188D01*
X39198967Y88450687D02*
X39387503Y88402279D01*
X40349683Y86357542D02*
X40266805Y86181416D01*
X39387503Y85453995D02*
X39198967Y85405587D01*
X38248565Y85525651D02*
X38077991Y85619425D01*
X55653596Y77295441D02*
X55232154Y78592083D01*
X30359787Y61534D02*
X32007880Y2298834D01*
X69541705Y61534D02*
X67893611Y2298834D01*
X55909152Y75956194D02*
X55653596Y77295441D01*
X33286803Y4869339D02*
X33906674Y7492491D01*
X55232154Y78592083D02*
X54651475Y79825656D01*
X53051428Y82027040D02*
X52057310Y82960110D01*
X54651475Y79825656D02*
X53920723Y80976697D01*
X55987444Y33262223D02*
X55994787Y74595473D01*
X69541705Y61534D02*
X30359787Y61534D01*
X53920723Y80976697D02*
X53051428Y82027040D01*
X66614689Y4869339D02*
X65994817Y7492491D01*
X55994787Y74595473D02*
X55909152Y75956194D01*
X61090292Y2514600D02*
X61283408Y2538997D01*
X82458238Y83523486D02*
X90187706Y81417451D01*
X67998983Y98647824D02*
X76547895Y97375154D01*
X9713785Y81417451D02*
X17443253Y83523486D01*
X61283408Y2538997D02*
X61471944Y2587404D01*
X62494275Y4447017D02*
X62434124Y4632141D01*
X62434124Y4632141D02*
X62351246Y4808267D01*
X48947437Y83761185D02*
X47844182Y82960110D01*
X62434124Y3490952D02*
X62494275Y3676076D01*
X23058620Y84702158D02*
X17443253Y83523486D01*
X62542971Y4061546D02*
X62530749Y4255813D01*
X61652926Y2659060D02*
X61823500Y2752834D01*
X59491658Y4447017D02*
X59455184Y4255813D01*
X66614689Y4869339D02*
X67893611Y2298834D01*
X59738986Y4972616D02*
X59634687Y4808267D01*
X52057310Y82960110D02*
X50954055Y83761185D01*
X50954617Y24222125D02*
X52057872Y25023200D01*
X49072727Y99666319D02*
X50828764Y99666319D01*
X47843619Y25023200D02*
X48946875Y24222125D01*
X60513989Y5535688D02*
X60333007Y5464032D01*
X32007880Y2298834D02*
X33286803Y4869339D01*
X23353596Y97375154D02*
X31902509Y98647824D01*
X62246946Y3150476D02*
X62351246Y3314826D01*
X82458238Y83523486D02*
X76842872Y84702158D01*
X60513989Y2587404D02*
X60702524Y2538997D01*
X62246946Y4972616D02*
X62122871Y5122598D01*
X97441436Y62490152D02*
X97656740Y61438142D01*
X97656740Y61438142D02*
X97659078Y60533628D01*
X6576873Y65735670D02*
X5987682Y64417291D01*
X4804789Y61405344D02*
X4925441Y60517705D01*
X2544014Y59690124D02*
X3200420Y58761171D01*
X2244752Y61438142D02*
X2242414Y60533628D01*
X6099782Y58063694D02*
X6942552Y56025139D01*
X4200438Y57531999D02*
X5446546Y55711784D01*
X2460056Y62490152D02*
X2244752Y61438142D01*
X5987682Y64417291D02*
X5422317Y63274572D01*
X2776896Y63725083D02*
X2460056Y62490152D01*
X2542317Y71555608D02*
X3021142Y69963922D01*
X3268890Y66687713D02*
X3080724Y65136804D01*
X3080724Y65136804D02*
X2776896Y63725083D01*
X4925441Y60517705D02*
X5375560Y59473092D01*
X6942552Y56025139D02*
X7620637Y53034982D01*
X4994122Y62289824D02*
X4804789Y61405344D01*
X7081686Y67214145D02*
X6576873Y65735670D01*
X7516781Y70470771D02*
X7413699Y68811708D01*
X7377452Y72127070D02*
X7516781Y70470771D01*
X1875885Y73043514D02*
X2542317Y71555608D01*
X3200420Y58761171D02*
X4200438Y57531999D01*
X5446546Y55711784D02*
X6728311Y52926480D01*
X7413699Y68811708D02*
X7081686Y67214145D01*
X439139Y75656394D02*
X1123200Y74404414D01*
X1123200Y74404414D02*
X1875885Y73043514D01*
X3021142Y69963922D02*
X3263367Y68319403D01*
X3263367Y68319403D02*
X3268890Y66687713D01*
X2242414Y60533628D02*
X2544014Y59690124D01*
X6728311Y52926480D02*
X7693500Y48712244D01*
X7620637Y53034982D02*
X7693500Y48712244D01*
X5375560Y59473092D02*
X6099782Y58063694D01*
X5422317Y63274572D02*
X4994122Y62289824D01*
X62494275Y87313607D02*
X62434124Y87498732D01*
X61980977Y88122436D02*
X61823500Y88236849D01*
X62434124Y87498732D02*
X62351246Y87674857D01*
X61652926Y88330623D02*
X61471944Y88402279D01*
X37467367Y3490952D02*
X37407217Y3676076D01*
X40038430Y5122598D02*
X40162505Y4972616D01*
X60004956Y88122436D02*
X59863062Y87989188D01*
X39005851Y2514600D02*
X38811200Y2514600D01*
X39568485Y2659060D02*
X39387503Y2587404D01*
X62542971Y86928137D02*
X62530749Y87122404D01*
X59863062Y87989188D02*
X59738986Y87839207D01*
X40162505Y3150476D02*
X40038430Y3000495D01*
X39387503Y2587404D02*
X39198967Y2538997D01*
X59455184Y87122404D02*
X59442962Y86928137D01*
X38248565Y2659060D02*
X38077991Y2752834D01*
X62122871Y85867086D02*
X62246946Y86017067D01*
X38429547Y2587404D02*
X38248565Y2659060D01*
X62122871Y87989188D02*
X61980977Y88122436D01*
X60004956Y85733838D02*
X60162432Y85619425D01*
X60702524Y88450687D02*
X60513989Y88402279D01*
X62246946Y87839207D02*
X62122871Y87989188D01*
X62530749Y86733870D02*
X62542971Y86928137D01*
X62351246Y87674857D02*
X62246946Y87839207D01*
X60702524Y85405587D02*
X60895641Y85381191D01*
X38077991Y2752834D02*
X37920515Y2867247D01*
X61652926Y85525651D02*
X61823500Y85619425D01*
X61090292Y88475083D02*
X60895641Y88475083D01*
X60895641Y85381191D02*
X61090292Y85381191D01*
X61823500Y88236849D02*
X61652926Y88330623D01*
X60162432Y88236849D02*
X60004956Y88122436D01*
X59551809Y87498732D02*
X59491658Y87313607D01*
X59491658Y86542666D02*
X59551809Y86357542D01*
X62434124Y86357542D02*
X62494275Y86542666D01*
X59863062Y85867086D02*
X60004956Y85733838D01*
X62494275Y86542666D02*
X62530749Y86733870D01*
X62351246Y86181416D02*
X62434124Y86357542D01*
X38077991Y5370259D02*
X38248565Y5464032D01*
X37778620Y3000495D02*
X37654545Y3150476D01*
X59634687Y86181416D02*
X59738986Y86017067D01*
X61471944Y88402279D02*
X61283408Y88450687D01*
X62530749Y87122404D02*
X62494275Y87313607D01*
X37778620Y5122598D02*
X37920515Y5255845D01*
X40458530Y4061546D02*
X40446308Y3867279D01*
X38429547Y5535688D02*
X38618083Y5584096D01*
X59491658Y87313607D02*
X59455184Y87122404D01*
X40409834Y3676076D02*
X40349683Y3490952D01*
X40409834Y4447017D02*
X40446308Y4255813D01*
X61090292Y85381191D02*
X61283408Y85405587D01*
X37407217Y4447017D02*
X37467367Y4632141D01*
X37370743Y3867279D02*
X37358521Y4061546D01*
X60895641Y88475083D02*
X60702524Y88450687D01*
X61980977Y85733838D02*
X62122871Y85867086D01*
X59551809Y86357542D02*
X59634687Y86181416D01*
X61823500Y85619425D02*
X61980977Y85733838D01*
X59634687Y87674857D02*
X59551809Y87498732D01*
X37550246Y4808267D02*
X37654545Y4972616D01*
X40349683Y4632141D02*
X40409834Y4447017D01*
X62246946Y86017067D02*
X62351246Y86181416D01*
X37920515Y5255845D02*
X38077991Y5370259D01*
X60513989Y88402279D02*
X60333007Y88330623D01*
X38618083Y2538997D02*
X38429547Y2587404D01*
X40446308Y4255813D02*
X40458530Y4061546D01*
X38811200Y2514600D02*
X38618083Y2538997D01*
X48948955Y83762972D02*
X49912965Y84292530D01*
X49952264Y84270942D02*
X49912965Y84292530D01*
X49952264Y84270942D02*
X49991563Y84292530D01*
D12*
X61536200Y78284440D02*
X60536200Y78284440D01*
X60536200Y76584440D02*
X61536200Y76584440D01*
X61536200Y80539960D02*
X60536200Y80539960D01*
X60536200Y78839960D02*
X61536200Y78839960D01*
X39356920Y78243800D02*
X38356920Y78243800D01*
X38356920Y76543800D02*
X39356920Y76543800D01*
X39356920Y80458680D02*
X38356920Y80458680D01*
X38356920Y78758680D02*
X39356920Y78758680D01*
X40862964Y12213590D02*
G75*
G03X44555396Y12212760I1846436J979170D01*
G01*
X40862964Y14171930D02*
G75*
G02X44555396Y14172760I1846436J-979170D01*
G01*
X40862964Y14171930D02*
G75*
G03X40863404Y12212760I1846436J-979170D01*
G01*
X42709400Y13972760D02*
X42709400Y15242760D01*
X42709400Y11142760D02*
X42709400Y12412760D01*
X42669400Y11142760D02*
X42669400Y12412760D01*
X42669400Y13972760D02*
X42669400Y15242760D01*
X42629400Y11143760D02*
X42629400Y12412760D01*
X42629400Y13972760D02*
X42629400Y15241760D01*
X42589400Y11145760D02*
X42589400Y12412760D01*
X42589400Y13972760D02*
X42589400Y15239760D01*
X42549400Y11148760D02*
X42549400Y12412760D01*
X42549400Y13972760D02*
X42549400Y15236760D01*
X42509400Y11151760D02*
X42509400Y12412760D01*
X42509400Y13972760D02*
X42509400Y15233760D01*
X42469400Y11155760D02*
X42469400Y12412760D01*
X42469400Y13972760D02*
X42469400Y15229760D01*
X42429400Y11160760D02*
X42429400Y12412760D01*
X42429400Y13972760D02*
X42429400Y15224760D01*
X42389400Y11166760D02*
X42389400Y12412760D01*
X42389400Y13972760D02*
X42389400Y15218760D01*
X42349400Y11173760D02*
X42349400Y12412760D01*
X42349400Y13972760D02*
X42349400Y15211760D01*
X42309400Y11180760D02*
X42309400Y12412760D01*
X42309400Y13972760D02*
X42309400Y15204760D01*
X42269400Y11188760D02*
X42269400Y12412760D01*
X42269400Y13972760D02*
X42269400Y15196760D01*
X42229400Y11197760D02*
X42229400Y12412760D01*
X42229400Y13972760D02*
X42229400Y15187760D01*
X42189400Y11207760D02*
X42189400Y12412760D01*
X42189400Y13972760D02*
X42189400Y15177760D01*
X42149400Y11218760D02*
X42149400Y12412760D01*
X42149400Y13972760D02*
X42149400Y15166760D01*
X42109400Y11229760D02*
X42109400Y12412760D01*
X42109400Y13972760D02*
X42109400Y15155760D01*
X42069400Y11242760D02*
X42069400Y12412760D01*
X42069400Y13972760D02*
X42069400Y15142760D01*
X42029400Y11255760D02*
X42029400Y12412760D01*
X42029400Y13972760D02*
X42029400Y15129760D01*
X41988400Y11269760D02*
X41988400Y12412760D01*
X41988400Y13972760D02*
X41988400Y15115760D01*
X41948400Y11285760D02*
X41948400Y12412760D01*
X41948400Y13972760D02*
X41948400Y15099760D01*
X41908400Y11301760D02*
X41908400Y12412760D01*
X41908400Y13972760D02*
X41908400Y15083760D01*
X41868400Y11318760D02*
X41868400Y12412760D01*
X41868400Y13972760D02*
X41868400Y15066760D01*
X41828400Y11336760D02*
X41828400Y12412760D01*
X41828400Y13972760D02*
X41828400Y15048760D01*
X41788400Y11355760D02*
X41788400Y12412760D01*
X41788400Y13972760D02*
X41788400Y15029760D01*
X41748400Y11375760D02*
X41748400Y12412760D01*
X41748400Y13972760D02*
X41748400Y15009760D01*
X41708400Y11396760D02*
X41708400Y12412760D01*
X41708400Y13972760D02*
X41708400Y14988760D01*
X41668400Y11419760D02*
X41668400Y12412760D01*
X41668400Y13972760D02*
X41668400Y14965760D01*
X41628400Y11442760D02*
X41628400Y12412760D01*
X41628400Y13972760D02*
X41628400Y14942760D01*
X41588400Y11467760D02*
X41588400Y12412760D01*
X41588400Y13972760D02*
X41588400Y14917760D01*
X41548400Y11493760D02*
X41548400Y12412760D01*
X41548400Y13972760D02*
X41548400Y14891760D01*
X41508400Y11520760D02*
X41508400Y12412760D01*
X41508400Y13972760D02*
X41508400Y14864760D01*
X41468400Y11549760D02*
X41468400Y12412760D01*
X41468400Y13972760D02*
X41468400Y14835760D01*
X41428400Y11579760D02*
X41428400Y12412760D01*
X41428400Y13972760D02*
X41428400Y14805760D01*
X41388400Y11611760D02*
X41388400Y12412760D01*
X41388400Y13972760D02*
X41388400Y14773760D01*
X41348400Y11645760D02*
X41348400Y12412760D01*
X41348400Y13972760D02*
X41348400Y14739760D01*
X41308400Y11680760D02*
X41308400Y12412760D01*
X41308400Y13972760D02*
X41308400Y14704760D01*
X41268400Y11717760D02*
X41268400Y12412760D01*
X41268400Y13972760D02*
X41268400Y14667760D01*
X41228400Y11756760D02*
X41228400Y12412760D01*
X41228400Y13972760D02*
X41228400Y14628760D01*
X41188400Y11797760D02*
X41188400Y12412760D01*
X41188400Y13972760D02*
X41188400Y14587760D01*
X41148400Y11841760D02*
X41148400Y14543760D01*
X41108400Y11887760D02*
X41108400Y14497760D01*
X41068400Y11936760D02*
X41068400Y14448760D01*
X41028400Y11988760D02*
X41028400Y14396760D01*
X40988400Y12044760D02*
X40988400Y14340760D01*
X40948400Y12104760D02*
X40948400Y14280760D01*
X40908400Y12169760D02*
X40908400Y14215760D01*
X40868400Y12240760D02*
X40868400Y14144760D01*
X40828400Y12318760D02*
X40828400Y14066760D01*
X40788400Y12406760D02*
X40788400Y13978760D01*
X40748400Y12506760D02*
X40748400Y13878760D01*
X40708400Y12625760D02*
X40708400Y13759760D01*
X40668400Y12777760D02*
X40668400Y13607760D01*
X40628400Y13027760D02*
X40628400Y13357760D01*
X45159400Y13192760D02*
X44259400Y13192760D01*
X44709400Y12742760D02*
X44709400Y13642760D01*
X43243880Y8891640D02*
X42243880Y8891640D01*
X42243880Y7191640D02*
X43243880Y7191640D01*
X43264200Y10776320D02*
X42264200Y10776320D01*
X42264200Y9076320D02*
X43264200Y9076320D01*
X56858280Y9091560D02*
X57858280Y9091560D01*
X57858280Y10791560D02*
X56858280Y10791560D01*
X56858280Y7217040D02*
X57858280Y7217040D01*
X57858280Y8917040D02*
X56858280Y8917040D01*
X55097680Y7019600D02*
X43607680Y7019600D01*
X43607680Y7019600D02*
X43607680Y4359600D01*
X43607680Y4359600D02*
X55097680Y4359600D01*
X55097680Y4359600D02*
X55097680Y7019600D01*
X55732680Y7019600D02*
X56427680Y7019600D01*
X56427680Y7019600D02*
X56427680Y5689600D01*
X37112480Y27089160D02*
X37112480Y29369160D01*
X37622480Y27089160D02*
X37112480Y27089160D01*
X40672480Y27089160D02*
X40162480Y27089160D01*
X40672480Y29369160D02*
X40672480Y27089160D01*
X37041360Y34983480D02*
X37041360Y37263480D01*
X37551360Y34983480D02*
X37041360Y34983480D01*
X40601360Y34983480D02*
X40091360Y34983480D01*
X40601360Y37263480D02*
X40601360Y34983480D01*
X37058680Y42888480D02*
X37058680Y45168480D01*
X37568680Y42888480D02*
X37058680Y42888480D01*
X40618680Y42888480D02*
X40108680Y42888480D01*
X40618680Y45168480D02*
X40618680Y42888480D01*
X37036280Y50751800D02*
X37036280Y53031800D01*
X37546280Y50751800D02*
X37036280Y50751800D01*
X40596280Y50751800D02*
X40086280Y50751800D01*
X40596280Y53031800D02*
X40596280Y50751800D01*
X37117560Y58615640D02*
X37117560Y60895640D01*
X37627560Y58615640D02*
X37117560Y58615640D01*
X40677560Y58615640D02*
X40167560Y58615640D01*
X40677560Y60895640D02*
X40677560Y58615640D01*
X37102320Y66504880D02*
X37102320Y68784880D01*
X37612320Y66504880D02*
X37102320Y66504880D01*
X40662320Y66504880D02*
X40152320Y66504880D01*
X40662320Y68784880D02*
X40662320Y66504880D01*
X59307000Y66489640D02*
X59307000Y68769640D01*
X59817000Y66489640D02*
X59307000Y66489640D01*
X62867000Y66489640D02*
X62357000Y66489640D01*
X62867000Y68769640D02*
X62867000Y66489640D01*
X59352720Y58585160D02*
X59352720Y60865160D01*
X59862720Y58585160D02*
X59352720Y58585160D01*
X62912720Y58585160D02*
X62402720Y58585160D01*
X62912720Y60865160D02*
X62912720Y58585160D01*
X59317160Y50822920D02*
X59317160Y53102920D01*
X59827160Y50822920D02*
X59317160Y50822920D01*
X62877160Y50822920D02*
X62367160Y50822920D01*
X62877160Y53102920D02*
X62877160Y50822920D01*
X59332400Y42938760D02*
X59332400Y45218760D01*
X59842400Y42938760D02*
X59332400Y42938760D01*
X62892400Y42938760D02*
X62382400Y42938760D01*
X62892400Y45218760D02*
X62892400Y42938760D01*
X59378120Y35069840D02*
X59378120Y37349840D01*
X59888120Y35069840D02*
X59378120Y35069840D01*
X62938120Y35069840D02*
X62428120Y35069840D01*
X62938120Y37349840D02*
X62938120Y35069840D01*
X59362880Y27134360D02*
X59362880Y29414360D01*
X59872880Y27134360D02*
X59362880Y27134360D01*
X62922880Y27134360D02*
X62412880Y27134360D01*
X62922880Y29414360D02*
X62922880Y27134360D01*
X9455040Y90058800D02*
X9455040Y88858800D01*
X7695040Y88858800D02*
X7695040Y90058800D01*
X39487400Y31489760D02*
X38287400Y31489760D01*
X38287400Y33249760D02*
X39487400Y33249760D01*
X39456920Y39419640D02*
X38256920Y39419640D01*
X38256920Y41179640D02*
X39456920Y41179640D01*
X25924400Y94422520D02*
X25924400Y93222520D01*
X24164400Y93222520D02*
X24164400Y94422520D01*
X39406120Y47273320D02*
X38206120Y47273320D01*
X38206120Y49033320D02*
X39406120Y49033320D01*
X39416280Y55162560D02*
X38216280Y55162560D01*
X38216280Y56922560D02*
X39416280Y56922560D01*
X42551240Y95799200D02*
X42551240Y94599200D01*
X40791240Y94599200D02*
X40791240Y95799200D01*
X39502640Y63011160D02*
X38302640Y63011160D01*
X38302640Y64771160D02*
X39502640Y64771160D01*
X39467080Y70946120D02*
X38267080Y70946120D01*
X38267080Y72706120D02*
X39467080Y72706120D01*
X57275840Y94609360D02*
X57275840Y95809360D01*
X59035840Y95809360D02*
X59035840Y94609360D01*
X60481920Y72655320D02*
X61681920Y72655320D01*
X61681920Y70895320D02*
X60481920Y70895320D01*
X61671760Y62975600D02*
X60471760Y62975600D01*
X60471760Y64735600D02*
X61671760Y64735600D01*
X73811240Y92943120D02*
X73811240Y94143120D01*
X75571240Y94143120D02*
X75571240Y92943120D01*
X61671760Y55157480D02*
X60471760Y55157480D01*
X60471760Y56917480D02*
X61671760Y56917480D01*
X61702240Y47278400D02*
X60502240Y47278400D01*
X60502240Y49038400D02*
X61702240Y49038400D01*
X90300920Y88863880D02*
X90300920Y90063880D01*
X92060920Y90063880D02*
X92060920Y88863880D01*
X61747960Y39394240D02*
X60547960Y39394240D01*
X60547960Y41154240D02*
X61747960Y41154240D01*
X61722560Y31479600D02*
X60522560Y31479600D01*
X60522560Y33239600D02*
X61722560Y33239600D01*
X51211480Y23082560D02*
X46071480Y23082560D01*
X46071480Y23082560D02*
X46071480Y20422560D01*
X46071480Y20422560D02*
X51211480Y20422560D01*
X51211480Y20422560D02*
X51211480Y23082560D01*
X52481480Y23082560D02*
X53811480Y23082560D01*
X53811480Y23082560D02*
X53811480Y21752560D01*
D13*
X54032520Y10715360D02*
X54007520Y10715360D01*
X45982520Y10715360D02*
X46007520Y10715360D01*
X45982520Y15365360D02*
X46007520Y15365360D01*
X54082520Y16440360D02*
X54082520Y10715360D01*
X45982520Y15365360D02*
X45982520Y10715360D01*
D12*
X51592600Y89527920D02*
X50662600Y89527920D01*
X48432600Y89527920D02*
X49362600Y89527920D01*
X48432600Y89527920D02*
X48432600Y87367920D01*
X51592600Y89527920D02*
X51592600Y88067920D01*
X49371960Y86787880D02*
X50571960Y86787880D01*
X50571960Y85027880D02*
X49371960Y85027880D01*
X60559640Y17195800D02*
X60559640Y12055800D01*
X60559640Y12055800D02*
X63219640Y12055800D01*
X63219640Y12055800D02*
X63219640Y17195800D01*
X63219640Y17195800D02*
X60559640Y17195800D01*
X60559640Y18465800D02*
X60559640Y19795800D01*
X60559640Y19795800D02*
X61889640Y19795800D01*
X36683640Y17134840D02*
X36683640Y11994840D01*
X36683640Y11994840D02*
X39343640Y11994840D01*
X39343640Y11994840D02*
X39343640Y17134840D01*
X39343640Y17134840D02*
X36683640Y17134840D01*
X36683640Y18404840D02*
X36683640Y19734840D01*
X36683640Y19734840D02*
X38013640Y19734840D01*
X5993360Y71284240D02*
X4593360Y71284240D01*
X4593360Y71284240D02*
X4593360Y68484240D01*
X5993360Y71284240D02*
X5993360Y68484240D01*
X95609640Y71360440D02*
X94209640Y71360440D01*
X94209640Y71360440D02*
X94209640Y68560440D01*
X95609640Y71360440D02*
X95609640Y68560440D01*
D14*
G36*
X31082894Y91512771D02*
X31256808Y91502064D01*
X31424231Y91482488D01*
X31596170Y91452629D01*
X31783632Y91411069D01*
X31866250Y91390644D01*
X32065175Y91336574D01*
X32243755Y91279222D01*
X32415365Y91213677D01*
X32593379Y91135028D01*
X32694880Y91086360D01*
X32935127Y90960850D01*
X33152569Y90829760D01*
X33355617Y90687062D01*
X33552687Y90526725D01*
X33752189Y90342719D01*
X33805289Y90290463D01*
X34065436Y90008674D01*
X34295449Y89711434D01*
X34495309Y89398783D01*
X34664997Y89070766D01*
X34804492Y88727423D01*
X34913776Y88368798D01*
X34992830Y87994933D01*
X35041633Y87605869D01*
X35043127Y87587885D01*
X35052129Y87293581D01*
X35033418Y86986752D01*
X34988264Y86672396D01*
X34917936Y86355510D01*
X34823701Y86041094D01*
X34706828Y85734145D01*
X34568586Y85439663D01*
X34439704Y85210227D01*
X34247813Y84924627D01*
X34027390Y84649604D01*
X33783301Y84390108D01*
X33520410Y84151085D01*
X33243580Y83937486D01*
X33082856Y83829917D01*
X32973000Y83764687D01*
X32841078Y83693118D01*
X32696987Y83620071D01*
X32550623Y83550407D01*
X32411882Y83488986D01*
X32290660Y83440669D01*
X32289583Y83440274D01*
X32159093Y83396455D01*
X32005981Y83351627D01*
X31841281Y83308555D01*
X31676026Y83270005D01*
X31521251Y83238742D01*
X31416413Y83221413D01*
X31286482Y83206320D01*
X31138662Y83195124D01*
X30983042Y83188122D01*
X30829707Y83185613D01*
X30688747Y83187894D01*
X30570248Y83195264D01*
X30561280Y83196161D01*
X30194208Y83250248D01*
X29831976Y83335128D01*
X29478828Y83449355D01*
X29139009Y83591483D01*
X28816762Y83760065D01*
X28700103Y83830570D01*
X28424430Y84021683D01*
X28158277Y84241289D01*
X27906629Y84484318D01*
X27674471Y84745701D01*
X27466789Y85020369D01*
X27343256Y85210227D01*
X27188910Y85489708D01*
X27054713Y85785795D01*
X26941929Y86093489D01*
X26851824Y86407790D01*
X26785662Y86723697D01*
X26744707Y87036210D01*
X26742511Y87082328D01*
X26929080Y87082328D01*
X26940769Y87043641D01*
X26969293Y87001698D01*
X27004842Y86968078D01*
X27037520Y86954360D01*
X27060800Y86962532D01*
X27107044Y86984944D01*
X27170157Y87018442D01*
X27244043Y87059873D01*
X27266566Y87072893D01*
X27341388Y87115856D01*
X27406036Y87151873D01*
X27454774Y87177833D01*
X27481867Y87190623D01*
X27484964Y87191427D01*
X27492405Y87175751D01*
X27500176Y87133685D01*
X27507087Y87072673D01*
X27510020Y87034793D01*
X27540334Y86819136D01*
X27600780Y86616382D01*
X27689346Y86428770D01*
X27804022Y86258538D01*
X27942795Y86107924D01*
X28103656Y85979165D01*
X28284591Y85874499D01*
X28483591Y85796165D01*
X28662495Y85752484D01*
X28769151Y85741512D01*
X28895515Y85741539D01*
X29029568Y85751716D01*
X29159290Y85771194D01*
X29257413Y85794500D01*
X29459769Y85870566D01*
X29643653Y85974289D01*
X29807206Y86103813D01*
X29948570Y86257281D01*
X30065883Y86432838D01*
X30157288Y86628626D01*
X30190361Y86725760D01*
X30210025Y86794750D01*
X30223243Y86854784D01*
X30231245Y86916015D01*
X30235264Y86988596D01*
X30236529Y87082678D01*
X30236560Y87106760D01*
X30235727Y87206808D01*
X30232406Y87283166D01*
X30225366Y87345985D01*
X30213377Y87405419D01*
X30195207Y87471620D01*
X30190361Y87487760D01*
X30114324Y87685153D01*
X30011706Y87867335D01*
X29885456Y88030517D01*
X29738528Y88170906D01*
X29573872Y88284715D01*
X29566464Y88288941D01*
X29521997Y88316026D01*
X29492785Y88337527D01*
X29486030Y88345951D01*
X29499907Y88358168D01*
X29537843Y88383308D01*
X29594282Y88417874D01*
X29663665Y88458369D01*
X29674399Y88464485D01*
X29683632Y88469893D01*
X30358080Y88469893D01*
X30363057Y88393694D01*
X30386423Y88281664D01*
X30438983Y88172278D01*
X30516240Y88071641D01*
X30613698Y87985862D01*
X30702742Y87932259D01*
X30814489Y87877227D01*
X31199874Y87868760D01*
X31585259Y87860294D01*
X31649003Y87796511D01*
X31686718Y87755304D01*
X31705669Y87719813D01*
X31712178Y87674530D01*
X31712747Y87640160D01*
X31710359Y87583003D01*
X31698979Y87544099D01*
X31672284Y87507940D01*
X31648987Y87483809D01*
X31585227Y87420027D01*
X30971653Y87411560D01*
X30358080Y87403093D01*
X30358080Y86200827D01*
X30402702Y86105661D01*
X30478385Y85981143D01*
X30576768Y85878482D01*
X30693706Y85801257D01*
X30805617Y85758006D01*
X30845485Y85746467D01*
X30877323Y85738159D01*
X30902086Y85736263D01*
X30920732Y85743957D01*
X30934216Y85764422D01*
X30943496Y85800838D01*
X30949529Y85856384D01*
X30953270Y85934241D01*
X30955676Y86037587D01*
X30957705Y86169604D01*
X30959213Y86268560D01*
X30967680Y86793493D01*
X31314813Y86803483D01*
X31453316Y86808274D01*
X31563760Y86814574D01*
X31651952Y86823607D01*
X31723700Y86836599D01*
X31784811Y86854775D01*
X31841090Y86879361D01*
X31898347Y86911581D01*
X31934134Y86934148D01*
X32061697Y87035282D01*
X32167983Y87157657D01*
X32250043Y87296019D01*
X32304924Y87445118D01*
X32329677Y87599701D01*
X32330813Y87640160D01*
X32314497Y87796209D01*
X32267798Y87945493D01*
X32194088Y88083977D01*
X32096742Y88207624D01*
X31979133Y88312398D01*
X31844634Y88394262D01*
X31771451Y88421415D01*
X32414744Y88421415D01*
X32417187Y88394568D01*
X32424813Y88360441D01*
X32431221Y88333141D01*
X32468011Y88230672D01*
X32528893Y88128504D01*
X32605973Y88038066D01*
X32673758Y87982002D01*
X32731097Y87945977D01*
X32787030Y87918336D01*
X32847217Y87898018D01*
X32917318Y87883962D01*
X33002992Y87875107D01*
X33109898Y87870390D01*
X33243698Y87868750D01*
X33277920Y87868697D01*
X33393714Y87868389D01*
X33480833Y87867217D01*
X33544465Y87864738D01*
X33589799Y87860506D01*
X33622022Y87854077D01*
X33646323Y87845004D01*
X33663393Y87835639D01*
X33730502Y87778417D01*
X33767388Y87706306D01*
X33775791Y87640160D01*
X33760908Y87554504D01*
X33716281Y87485043D01*
X33673322Y87449896D01*
X33658316Y87441893D01*
X33637764Y87435316D01*
X33608177Y87429957D01*
X33566061Y87425612D01*
X33507926Y87422072D01*
X33430280Y87419131D01*
X33329632Y87416583D01*
X33202490Y87414220D01*
X33045363Y87411836D01*
X33025858Y87411560D01*
X32423947Y87403093D01*
X32418740Y86844293D01*
X32417656Y86651926D01*
X32418286Y86491909D01*
X32420622Y86364583D01*
X32424657Y86270288D01*
X32430382Y86209366D01*
X32432617Y86196760D01*
X32464983Y86104533D01*
X32519605Y86008702D01*
X32588574Y85921057D01*
X32661931Y85854853D01*
X32729159Y85814304D01*
X32807075Y85778947D01*
X32884577Y85752868D01*
X32950565Y85740150D01*
X32974280Y85739936D01*
X33016613Y85743627D01*
X33021110Y86221993D01*
X33022696Y86345330D01*
X33024948Y86456876D01*
X33027716Y86552366D01*
X33030846Y86627533D01*
X33034186Y86678114D01*
X33037585Y86699842D01*
X33038176Y86700360D01*
X33052691Y86688796D01*
X33088200Y86655947D01*
X33141856Y86604581D01*
X33210811Y86537467D01*
X33292217Y86457371D01*
X33383226Y86367060D01*
X33457012Y86293348D01*
X33556779Y86194198D01*
X33652278Y86100796D01*
X33740063Y86016396D01*
X33816692Y85944256D01*
X33878719Y85887631D01*
X33922701Y85849776D01*
X33940043Y85836737D01*
X34043407Y85785317D01*
X34160491Y85751962D01*
X34277172Y85740096D01*
X34327264Y85742848D01*
X34400024Y85758108D01*
X34481134Y85785697D01*
X34559631Y85820827D01*
X34624553Y85858712D01*
X34659477Y85887926D01*
X34667208Y85897414D01*
X34670988Y85907607D01*
X34668714Y85920949D01*
X34658284Y85939883D01*
X34637594Y85966854D01*
X34604540Y86004304D01*
X34557019Y86054677D01*
X34492928Y86120418D01*
X34410164Y86203968D01*
X34306624Y86307773D01*
X34245187Y86369253D01*
X33799162Y86815515D01*
X33851547Y86842604D01*
X33891143Y86860943D01*
X33917957Y86869593D01*
X33919494Y86869693D01*
X33939863Y86859839D01*
X33977811Y86834095D01*
X34021666Y86800734D01*
X34076003Y86760843D01*
X34117102Y86743994D01*
X34155448Y86750477D01*
X34201525Y86780578D01*
X34233047Y86806529D01*
X34298014Y86861609D01*
X34262689Y86954551D01*
X34237989Y87028041D01*
X34229620Y87080596D01*
X34237203Y87120739D01*
X34254084Y87149093D01*
X34272659Y87166858D01*
X34300542Y87177182D01*
X34346214Y87181926D01*
X34408568Y87182960D01*
X34537392Y87182960D01*
X34567324Y87267627D01*
X34584577Y87319451D01*
X34596020Y87359544D01*
X34598567Y87372912D01*
X34586606Y87392771D01*
X34553962Y87425170D01*
X34507652Y87463161D01*
X34506746Y87463846D01*
X34455697Y87504827D01*
X34427265Y87535967D01*
X34415366Y87565404D01*
X34413613Y87588376D01*
X34416534Y87618552D01*
X34429632Y87642171D01*
X34459408Y87666183D01*
X34512365Y87697538D01*
X34519446Y87701490D01*
X34574966Y87734281D01*
X34607673Y87762922D01*
X34620784Y87796345D01*
X34617518Y87843480D01*
X34601094Y87913260D01*
X34598845Y87921853D01*
X34583340Y87961908D01*
X34557655Y87986615D01*
X34514541Y87999431D01*
X34446751Y88003815D01*
X34426704Y88003996D01*
X34373962Y88007297D01*
X34341922Y88020339D01*
X34317709Y88048413D01*
X34317367Y88048935D01*
X34302527Y88074337D01*
X34298714Y88096656D01*
X34307637Y88125646D01*
X34331006Y88171059D01*
X34342377Y88191670D01*
X34370342Y88245667D01*
X34389946Y88290229D01*
X34396680Y88314139D01*
X34384966Y88337945D01*
X34354573Y88374825D01*
X34320838Y88408489D01*
X34244996Y88478397D01*
X34135537Y88424421D01*
X34075546Y88396370D01*
X34035689Y88382983D01*
X34006667Y88382172D01*
X33982779Y88390172D01*
X33958921Y88404079D01*
X33945869Y88424400D01*
X33940380Y88460512D01*
X33939221Y88516097D01*
X33936957Y88575536D01*
X33931339Y88622733D01*
X33924961Y88644366D01*
X33902848Y88658529D01*
X33859269Y88675048D01*
X33805628Y88690815D01*
X33753328Y88702720D01*
X33713775Y88707656D01*
X33700240Y88705617D01*
X33686479Y88688151D01*
X33662069Y88649708D01*
X33635810Y88604756D01*
X33596632Y88545659D01*
X33558234Y88505638D01*
X33539959Y88494690D01*
X33512214Y88490495D01*
X33454755Y88486736D01*
X33371732Y88483531D01*
X33267295Y88480998D01*
X33145595Y88479254D01*
X33010784Y88478417D01*
X32964179Y88478360D01*
X32810441Y88478483D01*
X32687378Y88478274D01*
X32591804Y88476864D01*
X32520533Y88473386D01*
X32470378Y88466970D01*
X32438152Y88456748D01*
X32420670Y88441853D01*
X32414744Y88421415D01*
X31771451Y88421415D01*
X31696618Y88449180D01*
X31645013Y88460771D01*
X31591527Y88466903D01*
X31504760Y88471463D01*
X31385262Y88474440D01*
X31233583Y88475822D01*
X31050273Y88475598D01*
X30950747Y88474913D01*
X30358080Y88469893D01*
X29683632Y88469893D01*
X29767792Y88519183D01*
X29833949Y88562833D01*
X29876182Y88599006D01*
X29897803Y88631275D01*
X29902124Y88663209D01*
X29892458Y88698382D01*
X29892104Y88699241D01*
X29857400Y88752095D01*
X29811294Y88776363D01*
X29769250Y88773224D01*
X29740885Y88760510D01*
X29690223Y88734294D01*
X29624148Y88698258D01*
X29549545Y88656085D01*
X29540677Y88650978D01*
X29349322Y88540544D01*
X29260247Y88633991D01*
X29123175Y88754142D01*
X28966165Y88850725D01*
X28794632Y88922283D01*
X28613993Y88967354D01*
X28429662Y88984480D01*
X28247055Y88972200D01*
X28114413Y88942793D01*
X27952531Y88879995D01*
X27797169Y88791144D01*
X27654326Y88681207D01*
X27530003Y88555148D01*
X27430199Y88417932D01*
X27389539Y88342894D01*
X27316712Y88155420D01*
X27277538Y87968593D01*
X27272068Y87782856D01*
X27300352Y87598647D01*
X27302686Y87589360D01*
X27319971Y87521730D01*
X27334798Y87463542D01*
X27344516Y87425204D01*
X27345815Y87420027D01*
X27345017Y87402287D01*
X27330564Y87382832D01*
X27297920Y87357998D01*
X27242552Y87324122D01*
X27190656Y87294637D01*
X27089669Y87236249D01*
X27016326Y87188977D01*
X26967338Y87150153D01*
X26939417Y87117106D01*
X26929273Y87087167D01*
X26929080Y87082328D01*
X26742511Y87082328D01*
X26730224Y87340330D01*
X26740197Y87594866D01*
X26788569Y87985117D01*
X26866997Y88359767D01*
X26975504Y88718864D01*
X27114112Y89062460D01*
X27282845Y89390605D01*
X27481726Y89703347D01*
X27710777Y90000739D01*
X27970023Y90282830D01*
X27977671Y90290463D01*
X28179176Y90481583D01*
X28376068Y90647472D01*
X28576761Y90794160D01*
X28789667Y90927677D01*
X29023201Y91054053D01*
X29088080Y91086360D01*
X29274910Y91173944D01*
X29448248Y91245821D01*
X29621468Y91306903D01*
X29807946Y91362101D01*
X29916710Y91390644D01*
X30113563Y91437331D01*
X30290446Y91471746D01*
X30458368Y91495305D01*
X30628335Y91509423D01*
X30811356Y91515517D01*
X30891480Y91516025D01*
X31082894Y91512771D01*
X31082894Y91512771D01*
G37*
X31082894Y91512771D02*
X31256808Y91502064D01*
X31424231Y91482488D01*
X31596170Y91452629D01*
X31783632Y91411069D01*
X31866250Y91390644D01*
X32065175Y91336574D01*
X32243755Y91279222D01*
X32415365Y91213677D01*
X32593379Y91135028D01*
X32694880Y91086360D01*
X32935127Y90960850D01*
X33152569Y90829760D01*
X33355617Y90687062D01*
X33552687Y90526725D01*
X33752189Y90342719D01*
X33805289Y90290463D01*
X34065436Y90008674D01*
X34295449Y89711434D01*
X34495309Y89398783D01*
X34664997Y89070766D01*
X34804492Y88727423D01*
X34913776Y88368798D01*
X34992830Y87994933D01*
X35041633Y87605869D01*
X35043127Y87587885D01*
X35052129Y87293581D01*
X35033418Y86986752D01*
X34988264Y86672396D01*
X34917936Y86355510D01*
X34823701Y86041094D01*
X34706828Y85734145D01*
X34568586Y85439663D01*
X34439704Y85210227D01*
X34247813Y84924627D01*
X34027390Y84649604D01*
X33783301Y84390108D01*
X33520410Y84151085D01*
X33243580Y83937486D01*
X33082856Y83829917D01*
X32973000Y83764687D01*
X32841078Y83693118D01*
X32696987Y83620071D01*
X32550623Y83550407D01*
X32411882Y83488986D01*
X32290660Y83440669D01*
X32289583Y83440274D01*
X32159093Y83396455D01*
X32005981Y83351627D01*
X31841281Y83308555D01*
X31676026Y83270005D01*
X31521251Y83238742D01*
X31416413Y83221413D01*
X31286482Y83206320D01*
X31138662Y83195124D01*
X30983042Y83188122D01*
X30829707Y83185613D01*
X30688747Y83187894D01*
X30570248Y83195264D01*
X30561280Y83196161D01*
X30194208Y83250248D01*
X29831976Y83335128D01*
X29478828Y83449355D01*
X29139009Y83591483D01*
X28816762Y83760065D01*
X28700103Y83830570D01*
X28424430Y84021683D01*
X28158277Y84241289D01*
X27906629Y84484318D01*
X27674471Y84745701D01*
X27466789Y85020369D01*
X27343256Y85210227D01*
X27188910Y85489708D01*
X27054713Y85785795D01*
X26941929Y86093489D01*
X26851824Y86407790D01*
X26785662Y86723697D01*
X26744707Y87036210D01*
X26742511Y87082328D01*
X26929080Y87082328D01*
X26940769Y87043641D01*
X26969293Y87001698D01*
X27004842Y86968078D01*
X27037520Y86954360D01*
X27060800Y86962532D01*
X27107044Y86984944D01*
X27170157Y87018442D01*
X27244043Y87059873D01*
X27266566Y87072893D01*
X27341388Y87115856D01*
X27406036Y87151873D01*
X27454774Y87177833D01*
X27481867Y87190623D01*
X27484964Y87191427D01*
X27492405Y87175751D01*
X27500176Y87133685D01*
X27507087Y87072673D01*
X27510020Y87034793D01*
X27540334Y86819136D01*
X27600780Y86616382D01*
X27689346Y86428770D01*
X27804022Y86258538D01*
X27942795Y86107924D01*
X28103656Y85979165D01*
X28284591Y85874499D01*
X28483591Y85796165D01*
X28662495Y85752484D01*
X28769151Y85741512D01*
X28895515Y85741539D01*
X29029568Y85751716D01*
X29159290Y85771194D01*
X29257413Y85794500D01*
X29459769Y85870566D01*
X29643653Y85974289D01*
X29807206Y86103813D01*
X29948570Y86257281D01*
X30065883Y86432838D01*
X30157288Y86628626D01*
X30190361Y86725760D01*
X30210025Y86794750D01*
X30223243Y86854784D01*
X30231245Y86916015D01*
X30235264Y86988596D01*
X30236529Y87082678D01*
X30236560Y87106760D01*
X30235727Y87206808D01*
X30232406Y87283166D01*
X30225366Y87345985D01*
X30213377Y87405419D01*
X30195207Y87471620D01*
X30190361Y87487760D01*
X30114324Y87685153D01*
X30011706Y87867335D01*
X29885456Y88030517D01*
X29738528Y88170906D01*
X29573872Y88284715D01*
X29566464Y88288941D01*
X29521997Y88316026D01*
X29492785Y88337527D01*
X29486030Y88345951D01*
X29499907Y88358168D01*
X29537843Y88383308D01*
X29594282Y88417874D01*
X29663665Y88458369D01*
X29674399Y88464485D01*
X29683632Y88469893D01*
X30358080Y88469893D01*
X30363057Y88393694D01*
X30386423Y88281664D01*
X30438983Y88172278D01*
X30516240Y88071641D01*
X30613698Y87985862D01*
X30702742Y87932259D01*
X30814489Y87877227D01*
X31199874Y87868760D01*
X31585259Y87860294D01*
X31649003Y87796511D01*
X31686718Y87755304D01*
X31705669Y87719813D01*
X31712178Y87674530D01*
X31712747Y87640160D01*
X31710359Y87583003D01*
X31698979Y87544099D01*
X31672284Y87507940D01*
X31648987Y87483809D01*
X31585227Y87420027D01*
X30971653Y87411560D01*
X30358080Y87403093D01*
X30358080Y86200827D01*
X30402702Y86105661D01*
X30478385Y85981143D01*
X30576768Y85878482D01*
X30693706Y85801257D01*
X30805617Y85758006D01*
X30845485Y85746467D01*
X30877323Y85738159D01*
X30902086Y85736263D01*
X30920732Y85743957D01*
X30934216Y85764422D01*
X30943496Y85800838D01*
X30949529Y85856384D01*
X30953270Y85934241D01*
X30955676Y86037587D01*
X30957705Y86169604D01*
X30959213Y86268560D01*
X30967680Y86793493D01*
X31314813Y86803483D01*
X31453316Y86808274D01*
X31563760Y86814574D01*
X31651952Y86823607D01*
X31723700Y86836599D01*
X31784811Y86854775D01*
X31841090Y86879361D01*
X31898347Y86911581D01*
X31934134Y86934148D01*
X32061697Y87035282D01*
X32167983Y87157657D01*
X32250043Y87296019D01*
X32304924Y87445118D01*
X32329677Y87599701D01*
X32330813Y87640160D01*
X32314497Y87796209D01*
X32267798Y87945493D01*
X32194088Y88083977D01*
X32096742Y88207624D01*
X31979133Y88312398D01*
X31844634Y88394262D01*
X31771451Y88421415D01*
X32414744Y88421415D01*
X32417187Y88394568D01*
X32424813Y88360441D01*
X32431221Y88333141D01*
X32468011Y88230672D01*
X32528893Y88128504D01*
X32605973Y88038066D01*
X32673758Y87982002D01*
X32731097Y87945977D01*
X32787030Y87918336D01*
X32847217Y87898018D01*
X32917318Y87883962D01*
X33002992Y87875107D01*
X33109898Y87870390D01*
X33243698Y87868750D01*
X33277920Y87868697D01*
X33393714Y87868389D01*
X33480833Y87867217D01*
X33544465Y87864738D01*
X33589799Y87860506D01*
X33622022Y87854077D01*
X33646323Y87845004D01*
X33663393Y87835639D01*
X33730502Y87778417D01*
X33767388Y87706306D01*
X33775791Y87640160D01*
X33760908Y87554504D01*
X33716281Y87485043D01*
X33673322Y87449896D01*
X33658316Y87441893D01*
X33637764Y87435316D01*
X33608177Y87429957D01*
X33566061Y87425612D01*
X33507926Y87422072D01*
X33430280Y87419131D01*
X33329632Y87416583D01*
X33202490Y87414220D01*
X33045363Y87411836D01*
X33025858Y87411560D01*
X32423947Y87403093D01*
X32418740Y86844293D01*
X32417656Y86651926D01*
X32418286Y86491909D01*
X32420622Y86364583D01*
X32424657Y86270288D01*
X32430382Y86209366D01*
X32432617Y86196760D01*
X32464983Y86104533D01*
X32519605Y86008702D01*
X32588574Y85921057D01*
X32661931Y85854853D01*
X32729159Y85814304D01*
X32807075Y85778947D01*
X32884577Y85752868D01*
X32950565Y85740150D01*
X32974280Y85739936D01*
X33016613Y85743627D01*
X33021110Y86221993D01*
X33022696Y86345330D01*
X33024948Y86456876D01*
X33027716Y86552366D01*
X33030846Y86627533D01*
X33034186Y86678114D01*
X33037585Y86699842D01*
X33038176Y86700360D01*
X33052691Y86688796D01*
X33088200Y86655947D01*
X33141856Y86604581D01*
X33210811Y86537467D01*
X33292217Y86457371D01*
X33383226Y86367060D01*
X33457012Y86293348D01*
X33556779Y86194198D01*
X33652278Y86100796D01*
X33740063Y86016396D01*
X33816692Y85944256D01*
X33878719Y85887631D01*
X33922701Y85849776D01*
X33940043Y85836737D01*
X34043407Y85785317D01*
X34160491Y85751962D01*
X34277172Y85740096D01*
X34327264Y85742848D01*
X34400024Y85758108D01*
X34481134Y85785697D01*
X34559631Y85820827D01*
X34624553Y85858712D01*
X34659477Y85887926D01*
X34667208Y85897414D01*
X34670988Y85907607D01*
X34668714Y85920949D01*
X34658284Y85939883D01*
X34637594Y85966854D01*
X34604540Y86004304D01*
X34557019Y86054677D01*
X34492928Y86120418D01*
X34410164Y86203968D01*
X34306624Y86307773D01*
X34245187Y86369253D01*
X33799162Y86815515D01*
X33851547Y86842604D01*
X33891143Y86860943D01*
X33917957Y86869593D01*
X33919494Y86869693D01*
X33939863Y86859839D01*
X33977811Y86834095D01*
X34021666Y86800734D01*
X34076003Y86760843D01*
X34117102Y86743994D01*
X34155448Y86750477D01*
X34201525Y86780578D01*
X34233047Y86806529D01*
X34298014Y86861609D01*
X34262689Y86954551D01*
X34237989Y87028041D01*
X34229620Y87080596D01*
X34237203Y87120739D01*
X34254084Y87149093D01*
X34272659Y87166858D01*
X34300542Y87177182D01*
X34346214Y87181926D01*
X34408568Y87182960D01*
X34537392Y87182960D01*
X34567324Y87267627D01*
X34584577Y87319451D01*
X34596020Y87359544D01*
X34598567Y87372912D01*
X34586606Y87392771D01*
X34553962Y87425170D01*
X34507652Y87463161D01*
X34506746Y87463846D01*
X34455697Y87504827D01*
X34427265Y87535967D01*
X34415366Y87565404D01*
X34413613Y87588376D01*
X34416534Y87618552D01*
X34429632Y87642171D01*
X34459408Y87666183D01*
X34512365Y87697538D01*
X34519446Y87701490D01*
X34574966Y87734281D01*
X34607673Y87762922D01*
X34620784Y87796345D01*
X34617518Y87843480D01*
X34601094Y87913260D01*
X34598845Y87921853D01*
X34583340Y87961908D01*
X34557655Y87986615D01*
X34514541Y87999431D01*
X34446751Y88003815D01*
X34426704Y88003996D01*
X34373962Y88007297D01*
X34341922Y88020339D01*
X34317709Y88048413D01*
X34317367Y88048935D01*
X34302527Y88074337D01*
X34298714Y88096656D01*
X34307637Y88125646D01*
X34331006Y88171059D01*
X34342377Y88191670D01*
X34370342Y88245667D01*
X34389946Y88290229D01*
X34396680Y88314139D01*
X34384966Y88337945D01*
X34354573Y88374825D01*
X34320838Y88408489D01*
X34244996Y88478397D01*
X34135537Y88424421D01*
X34075546Y88396370D01*
X34035689Y88382983D01*
X34006667Y88382172D01*
X33982779Y88390172D01*
X33958921Y88404079D01*
X33945869Y88424400D01*
X33940380Y88460512D01*
X33939221Y88516097D01*
X33936957Y88575536D01*
X33931339Y88622733D01*
X33924961Y88644366D01*
X33902848Y88658529D01*
X33859269Y88675048D01*
X33805628Y88690815D01*
X33753328Y88702720D01*
X33713775Y88707656D01*
X33700240Y88705617D01*
X33686479Y88688151D01*
X33662069Y88649708D01*
X33635810Y88604756D01*
X33596632Y88545659D01*
X33558234Y88505638D01*
X33539959Y88494690D01*
X33512214Y88490495D01*
X33454755Y88486736D01*
X33371732Y88483531D01*
X33267295Y88480998D01*
X33145595Y88479254D01*
X33010784Y88478417D01*
X32964179Y88478360D01*
X32810441Y88478483D01*
X32687378Y88478274D01*
X32591804Y88476864D01*
X32520533Y88473386D01*
X32470378Y88466970D01*
X32438152Y88456748D01*
X32420670Y88441853D01*
X32414744Y88421415D01*
X31771451Y88421415D01*
X31696618Y88449180D01*
X31645013Y88460771D01*
X31591527Y88466903D01*
X31504760Y88471463D01*
X31385262Y88474440D01*
X31233583Y88475822D01*
X31050273Y88475598D01*
X30950747Y88474913D01*
X30358080Y88469893D01*
X29683632Y88469893D01*
X29767792Y88519183D01*
X29833949Y88562833D01*
X29876182Y88599006D01*
X29897803Y88631275D01*
X29902124Y88663209D01*
X29892458Y88698382D01*
X29892104Y88699241D01*
X29857400Y88752095D01*
X29811294Y88776363D01*
X29769250Y88773224D01*
X29740885Y88760510D01*
X29690223Y88734294D01*
X29624148Y88698258D01*
X29549545Y88656085D01*
X29540677Y88650978D01*
X29349322Y88540544D01*
X29260247Y88633991D01*
X29123175Y88754142D01*
X28966165Y88850725D01*
X28794632Y88922283D01*
X28613993Y88967354D01*
X28429662Y88984480D01*
X28247055Y88972200D01*
X28114413Y88942793D01*
X27952531Y88879995D01*
X27797169Y88791144D01*
X27654326Y88681207D01*
X27530003Y88555148D01*
X27430199Y88417932D01*
X27389539Y88342894D01*
X27316712Y88155420D01*
X27277538Y87968593D01*
X27272068Y87782856D01*
X27300352Y87598647D01*
X27302686Y87589360D01*
X27319971Y87521730D01*
X27334798Y87463542D01*
X27344516Y87425204D01*
X27345815Y87420027D01*
X27345017Y87402287D01*
X27330564Y87382832D01*
X27297920Y87357998D01*
X27242552Y87324122D01*
X27190656Y87294637D01*
X27089669Y87236249D01*
X27016326Y87188977D01*
X26967338Y87150153D01*
X26939417Y87117106D01*
X26929273Y87087167D01*
X26929080Y87082328D01*
X26742511Y87082328D01*
X26730224Y87340330D01*
X26740197Y87594866D01*
X26788569Y87985117D01*
X26866997Y88359767D01*
X26975504Y88718864D01*
X27114112Y89062460D01*
X27282845Y89390605D01*
X27481726Y89703347D01*
X27710777Y90000739D01*
X27970023Y90282830D01*
X27977671Y90290463D01*
X28179176Y90481583D01*
X28376068Y90647472D01*
X28576761Y90794160D01*
X28789667Y90927677D01*
X29023201Y91054053D01*
X29088080Y91086360D01*
X29274910Y91173944D01*
X29448248Y91245821D01*
X29621468Y91306903D01*
X29807946Y91362101D01*
X29916710Y91390644D01*
X30113563Y91437331D01*
X30290446Y91471746D01*
X30458368Y91495305D01*
X30628335Y91509423D01*
X30811356Y91515517D01*
X30891480Y91516025D01*
X31082894Y91512771D01*
G36*
X28973287Y87860309D02*
X29123933Y87825121D01*
X29263036Y87758100D01*
X29390429Y87659308D01*
X29409873Y87640398D01*
X29512494Y87515560D01*
X29584885Y87379527D01*
X29627041Y87236195D01*
X29638958Y87089459D01*
X29620633Y86943216D01*
X29572059Y86801361D01*
X29493235Y86667791D01*
X29411029Y86572144D01*
X29285832Y86469479D01*
X29147293Y86396867D01*
X28998849Y86355242D01*
X28843938Y86345537D01*
X28685998Y86368684D01*
X28673624Y86371906D01*
X28532470Y86426570D01*
X28407458Y86507930D01*
X28301199Y86611634D01*
X28216300Y86733334D01*
X28155372Y86868679D01*
X28121025Y87013319D01*
X28115867Y87162904D01*
X28132372Y87274201D01*
X28181881Y87417238D01*
X28259070Y87546985D01*
X28359575Y87659654D01*
X28479037Y87751458D01*
X28613093Y87818613D01*
X28757382Y87857330D01*
X28811270Y87863599D01*
X28973287Y87860309D01*
X28973287Y87860309D01*
G37*
X28973287Y87860309D02*
X29123933Y87825121D01*
X29263036Y87758100D01*
X29390429Y87659308D01*
X29409873Y87640398D01*
X29512494Y87515560D01*
X29584885Y87379527D01*
X29627041Y87236195D01*
X29638958Y87089459D01*
X29620633Y86943216D01*
X29572059Y86801361D01*
X29493235Y86667791D01*
X29411029Y86572144D01*
X29285832Y86469479D01*
X29147293Y86396867D01*
X28998849Y86355242D01*
X28843938Y86345537D01*
X28685998Y86368684D01*
X28673624Y86371906D01*
X28532470Y86426570D01*
X28407458Y86507930D01*
X28301199Y86611634D01*
X28216300Y86733334D01*
X28155372Y86868679D01*
X28121025Y87013319D01*
X28115867Y87162904D01*
X28132372Y87274201D01*
X28181881Y87417238D01*
X28259070Y87546985D01*
X28359575Y87659654D01*
X28479037Y87751458D01*
X28613093Y87818613D01*
X28757382Y87857330D01*
X28811270Y87863599D01*
X28973287Y87860309D01*
G36*
X29796070Y88702097D02*
X29822407Y88679867D01*
X29831208Y88648631D01*
X29826983Y88635477D01*
X29810149Y88622828D01*
X29766380Y88594889D01*
X29698183Y88553110D01*
X29608067Y88498937D01*
X29498539Y88433819D01*
X29372105Y88359203D01*
X29231275Y88276536D01*
X29078554Y88187266D01*
X28916451Y88092842D01*
X28747473Y87994710D01*
X28574127Y87894318D01*
X28398922Y87793115D01*
X28224364Y87692546D01*
X28052961Y87594062D01*
X27887220Y87499108D01*
X27729649Y87409132D01*
X27582756Y87325583D01*
X27449047Y87249908D01*
X27331031Y87183554D01*
X27231214Y87127970D01*
X27152105Y87084602D01*
X27096211Y87054899D01*
X27066039Y87040308D01*
X27061790Y87039027D01*
X27030297Y87050506D01*
X27020084Y87063868D01*
X27015100Y87097557D01*
X27016841Y87107577D01*
X27031812Y87117928D01*
X27073643Y87143742D01*
X27139851Y87183578D01*
X27227952Y87235990D01*
X27335462Y87299536D01*
X27459899Y87372771D01*
X27598777Y87454253D01*
X27749613Y87542537D01*
X27909924Y87636181D01*
X28077225Y87733740D01*
X28249034Y87833771D01*
X28422866Y87934830D01*
X28596238Y88035474D01*
X28766666Y88134260D01*
X28931666Y88229743D01*
X29088754Y88320480D01*
X29235447Y88405028D01*
X29369262Y88481943D01*
X29487714Y88549782D01*
X29588319Y88607100D01*
X29668595Y88652455D01*
X29726056Y88684402D01*
X29758221Y88701499D01*
X29763068Y88703717D01*
X29796070Y88702097D01*
X29796070Y88702097D01*
G37*
X29796070Y88702097D02*
X29822407Y88679867D01*
X29831208Y88648631D01*
X29826983Y88635477D01*
X29810149Y88622828D01*
X29766380Y88594889D01*
X29698183Y88553110D01*
X29608067Y88498937D01*
X29498539Y88433819D01*
X29372105Y88359203D01*
X29231275Y88276536D01*
X29078554Y88187266D01*
X28916451Y88092842D01*
X28747473Y87994710D01*
X28574127Y87894318D01*
X28398922Y87793115D01*
X28224364Y87692546D01*
X28052961Y87594062D01*
X27887220Y87499108D01*
X27729649Y87409132D01*
X27582756Y87325583D01*
X27449047Y87249908D01*
X27331031Y87183554D01*
X27231214Y87127970D01*
X27152105Y87084602D01*
X27096211Y87054899D01*
X27066039Y87040308D01*
X27061790Y87039027D01*
X27030297Y87050506D01*
X27020084Y87063868D01*
X27015100Y87097557D01*
X27016841Y87107577D01*
X27031812Y87117928D01*
X27073643Y87143742D01*
X27139851Y87183578D01*
X27227952Y87235990D01*
X27335462Y87299536D01*
X27459899Y87372771D01*
X27598777Y87454253D01*
X27749613Y87542537D01*
X27909924Y87636181D01*
X28077225Y87733740D01*
X28249034Y87833771D01*
X28422866Y87934830D01*
X28596238Y88035474D01*
X28766666Y88134260D01*
X28931666Y88229743D01*
X29088754Y88320480D01*
X29235447Y88405028D01*
X29369262Y88481943D01*
X29487714Y88549782D01*
X29588319Y88607100D01*
X29668595Y88652455D01*
X29726056Y88684402D01*
X29758221Y88701499D01*
X29763068Y88703717D01*
X29796070Y88702097D01*
G36*
X28492566Y88910769D02*
X28573995Y88898704D01*
X28661651Y88879018D01*
X28749323Y88853937D01*
X28830799Y88825688D01*
X28899867Y88796496D01*
X28950316Y88768588D01*
X28975933Y88744191D01*
X28977883Y88736842D01*
X28964304Y88721493D01*
X28931173Y88698353D01*
X28889616Y88673976D01*
X28850760Y88654913D01*
X28826492Y88647693D01*
X28810301Y88661222D01*
X28808680Y88670843D01*
X28794589Y88694648D01*
X28758133Y88725832D01*
X28708042Y88758347D01*
X28653042Y88786147D01*
X28628505Y88795683D01*
X28583468Y88805500D01*
X28556874Y88795510D01*
X28556538Y88795178D01*
X28540870Y88773434D01*
X28545967Y88754534D01*
X28575722Y88733719D01*
X28626646Y88709485D01*
X28694374Y88674529D01*
X28737892Y88641383D01*
X28754111Y88612901D01*
X28747849Y88597538D01*
X28729162Y88585010D01*
X28685642Y88558459D01*
X28621465Y88520290D01*
X28540807Y88472905D01*
X28447843Y88418710D01*
X28346751Y88360108D01*
X28241705Y88299504D01*
X28136882Y88239302D01*
X28036458Y88181905D01*
X27944608Y88129718D01*
X27865508Y88085144D01*
X27803336Y88050589D01*
X27762265Y88028456D01*
X27746609Y88021125D01*
X27740692Y88036512D01*
X27738019Y88076816D01*
X27739090Y88131169D01*
X27740745Y88192900D01*
X27740014Y88199492D01*
X27809613Y88199492D01*
X27813557Y88158074D01*
X27828421Y88141406D01*
X27841558Y88139694D01*
X27868154Y88152166D01*
X27880901Y88190100D01*
X27881310Y88242202D01*
X27865201Y88269558D01*
X27836722Y88269692D01*
X27815430Y88243764D01*
X27809613Y88199492D01*
X27740014Y88199492D01*
X27736748Y88228908D01*
X27725611Y88247077D01*
X27716215Y88252205D01*
X27684270Y88250344D01*
X27672697Y88239528D01*
X27660709Y88200316D01*
X27657306Y88144186D01*
X27661808Y88085189D01*
X27673539Y88037376D01*
X27683274Y88020430D01*
X27692378Y88006755D01*
X27690067Y87992931D01*
X27672164Y87975278D01*
X27634491Y87950111D01*
X27572871Y87913751D01*
X27542478Y87896330D01*
X27475056Y87858372D01*
X27418538Y87827588D01*
X27379285Y87807375D01*
X27364017Y87801027D01*
X27356779Y87816071D01*
X27352726Y87853693D01*
X27352413Y87869474D01*
X27360788Y87970640D01*
X27369251Y88013712D01*
X27489037Y88013712D01*
X27494146Y87978456D01*
X27513994Y87958219D01*
X27540036Y87966014D01*
X27557000Y87988301D01*
X27565794Y88017033D01*
X27576558Y88067773D01*
X27585885Y88122760D01*
X27593800Y88188383D01*
X27592982Y88229194D01*
X27583121Y88253184D01*
X27580727Y88255950D01*
X27561988Y88267980D01*
X27543591Y88254469D01*
X27532491Y88238680D01*
X27515256Y88197405D01*
X27500987Y88137456D01*
X27491607Y88071878D01*
X27489037Y88013712D01*
X27369251Y88013712D01*
X27383706Y88087269D01*
X27417863Y88206042D01*
X27459950Y88313642D01*
X27465757Y88325960D01*
X27543314Y88454101D01*
X27646798Y88576541D01*
X27713979Y88636797D01*
X28441338Y88636797D01*
X28446142Y88606228D01*
X28481763Y88566709D01*
X28488436Y88561052D01*
X28537991Y88524906D01*
X28570624Y88514340D01*
X28590462Y88528404D01*
X28594300Y88536664D01*
X28588071Y88563282D01*
X28558281Y88600235D01*
X28544723Y88612864D01*
X28498029Y88649994D01*
X28467864Y88662553D01*
X28448842Y88651787D01*
X28441338Y88636797D01*
X27713979Y88636797D01*
X27768329Y88685544D01*
X27900028Y88773369D01*
X27945080Y88796724D01*
X28107381Y88861422D01*
X28269688Y88901073D01*
X28424754Y88914168D01*
X28492566Y88910769D01*
X28492566Y88910769D01*
G37*
X28492566Y88910769D02*
X28573995Y88898704D01*
X28661651Y88879018D01*
X28749323Y88853937D01*
X28830799Y88825688D01*
X28899867Y88796496D01*
X28950316Y88768588D01*
X28975933Y88744191D01*
X28977883Y88736842D01*
X28964304Y88721493D01*
X28931173Y88698353D01*
X28889616Y88673976D01*
X28850760Y88654913D01*
X28826492Y88647693D01*
X28810301Y88661222D01*
X28808680Y88670843D01*
X28794589Y88694648D01*
X28758133Y88725832D01*
X28708042Y88758347D01*
X28653042Y88786147D01*
X28628505Y88795683D01*
X28583468Y88805500D01*
X28556874Y88795510D01*
X28556538Y88795178D01*
X28540870Y88773434D01*
X28545967Y88754534D01*
X28575722Y88733719D01*
X28626646Y88709485D01*
X28694374Y88674529D01*
X28737892Y88641383D01*
X28754111Y88612901D01*
X28747849Y88597538D01*
X28729162Y88585010D01*
X28685642Y88558459D01*
X28621465Y88520290D01*
X28540807Y88472905D01*
X28447843Y88418710D01*
X28346751Y88360108D01*
X28241705Y88299504D01*
X28136882Y88239302D01*
X28036458Y88181905D01*
X27944608Y88129718D01*
X27865508Y88085144D01*
X27803336Y88050589D01*
X27762265Y88028456D01*
X27746609Y88021125D01*
X27740692Y88036512D01*
X27738019Y88076816D01*
X27739090Y88131169D01*
X27740745Y88192900D01*
X27740014Y88199492D01*
X27809613Y88199492D01*
X27813557Y88158074D01*
X27828421Y88141406D01*
X27841558Y88139694D01*
X27868154Y88152166D01*
X27880901Y88190100D01*
X27881310Y88242202D01*
X27865201Y88269558D01*
X27836722Y88269692D01*
X27815430Y88243764D01*
X27809613Y88199492D01*
X27740014Y88199492D01*
X27736748Y88228908D01*
X27725611Y88247077D01*
X27716215Y88252205D01*
X27684270Y88250344D01*
X27672697Y88239528D01*
X27660709Y88200316D01*
X27657306Y88144186D01*
X27661808Y88085189D01*
X27673539Y88037376D01*
X27683274Y88020430D01*
X27692378Y88006755D01*
X27690067Y87992931D01*
X27672164Y87975278D01*
X27634491Y87950111D01*
X27572871Y87913751D01*
X27542478Y87896330D01*
X27475056Y87858372D01*
X27418538Y87827588D01*
X27379285Y87807375D01*
X27364017Y87801027D01*
X27356779Y87816071D01*
X27352726Y87853693D01*
X27352413Y87869474D01*
X27360788Y87970640D01*
X27369251Y88013712D01*
X27489037Y88013712D01*
X27494146Y87978456D01*
X27513994Y87958219D01*
X27540036Y87966014D01*
X27557000Y87988301D01*
X27565794Y88017033D01*
X27576558Y88067773D01*
X27585885Y88122760D01*
X27593800Y88188383D01*
X27592982Y88229194D01*
X27583121Y88253184D01*
X27580727Y88255950D01*
X27561988Y88267980D01*
X27543591Y88254469D01*
X27532491Y88238680D01*
X27515256Y88197405D01*
X27500987Y88137456D01*
X27491607Y88071878D01*
X27489037Y88013712D01*
X27369251Y88013712D01*
X27383706Y88087269D01*
X27417863Y88206042D01*
X27459950Y88313642D01*
X27465757Y88325960D01*
X27543314Y88454101D01*
X27646798Y88576541D01*
X27713979Y88636797D01*
X28441338Y88636797D01*
X28446142Y88606228D01*
X28481763Y88566709D01*
X28488436Y88561052D01*
X28537991Y88524906D01*
X28570624Y88514340D01*
X28590462Y88528404D01*
X28594300Y88536664D01*
X28588071Y88563282D01*
X28558281Y88600235D01*
X28544723Y88612864D01*
X28498029Y88649994D01*
X28467864Y88662553D01*
X28448842Y88651787D01*
X28441338Y88636797D01*
X27713979Y88636797D01*
X27768329Y88685544D01*
X27900028Y88773369D01*
X27945080Y88796724D01*
X28107381Y88861422D01*
X28269688Y88901073D01*
X28424754Y88914168D01*
X28492566Y88910769D01*
G36*
X69071134Y91299411D02*
X69245048Y91288704D01*
X69412471Y91269128D01*
X69584410Y91239269D01*
X69771872Y91197709D01*
X69854490Y91177284D01*
X70053415Y91123214D01*
X70231995Y91065862D01*
X70403605Y91000317D01*
X70581619Y90921668D01*
X70683120Y90873000D01*
X70923367Y90747490D01*
X71140809Y90616400D01*
X71343857Y90473702D01*
X71540927Y90313365D01*
X71740429Y90129359D01*
X71793529Y90077103D01*
X72053676Y89795314D01*
X72283689Y89498074D01*
X72483549Y89185423D01*
X72653237Y88857406D01*
X72792732Y88514063D01*
X72902016Y88155438D01*
X72981070Y87781573D01*
X73029873Y87392509D01*
X73031367Y87374525D01*
X73040369Y87080221D01*
X73021658Y86773392D01*
X72976504Y86459036D01*
X72906176Y86142150D01*
X72811941Y85827734D01*
X72695068Y85520785D01*
X72556826Y85226303D01*
X72427944Y84996867D01*
X72236053Y84711267D01*
X72015630Y84436244D01*
X71771541Y84176748D01*
X71508650Y83937725D01*
X71231820Y83724126D01*
X71071096Y83616557D01*
X70961240Y83551327D01*
X70829318Y83479758D01*
X70685227Y83406711D01*
X70538863Y83337047D01*
X70400122Y83275626D01*
X70278900Y83227309D01*
X70277823Y83226914D01*
X70147333Y83183095D01*
X69994221Y83138267D01*
X69829521Y83095195D01*
X69664266Y83056645D01*
X69509491Y83025382D01*
X69404653Y83008053D01*
X69274722Y82992960D01*
X69126902Y82981764D01*
X68971282Y82974762D01*
X68817947Y82972253D01*
X68676987Y82974534D01*
X68558488Y82981904D01*
X68549520Y82982801D01*
X68182448Y83036888D01*
X67820216Y83121768D01*
X67467068Y83235995D01*
X67127249Y83378123D01*
X66805002Y83546705D01*
X66688343Y83617210D01*
X66412670Y83808323D01*
X66146517Y84027929D01*
X65894869Y84270958D01*
X65662711Y84532341D01*
X65455029Y84807009D01*
X65331496Y84996867D01*
X65177150Y85276348D01*
X65042953Y85572435D01*
X64930169Y85880129D01*
X64840064Y86194430D01*
X64773902Y86510337D01*
X64732947Y86822850D01*
X64730751Y86868968D01*
X64917320Y86868968D01*
X64929009Y86830281D01*
X64957533Y86788338D01*
X64993082Y86754718D01*
X65025760Y86741000D01*
X65049040Y86749172D01*
X65095284Y86771584D01*
X65158397Y86805082D01*
X65232283Y86846513D01*
X65254806Y86859533D01*
X65329628Y86902496D01*
X65394276Y86938513D01*
X65443014Y86964473D01*
X65470107Y86977263D01*
X65473204Y86978067D01*
X65480645Y86962391D01*
X65488416Y86920325D01*
X65495327Y86859313D01*
X65498260Y86821433D01*
X65528574Y86605776D01*
X65589020Y86403022D01*
X65677586Y86215410D01*
X65792262Y86045178D01*
X65931035Y85894564D01*
X66091896Y85765805D01*
X66272831Y85661139D01*
X66471831Y85582805D01*
X66650735Y85539124D01*
X66757391Y85528152D01*
X66883755Y85528179D01*
X67017808Y85538356D01*
X67147530Y85557834D01*
X67245653Y85581140D01*
X67448009Y85657206D01*
X67631893Y85760929D01*
X67795446Y85890453D01*
X67936810Y86043921D01*
X68054123Y86219478D01*
X68145528Y86415266D01*
X68178601Y86512400D01*
X68198265Y86581390D01*
X68211483Y86641424D01*
X68219485Y86702655D01*
X68223504Y86775236D01*
X68224769Y86869318D01*
X68224800Y86893400D01*
X68223967Y86993448D01*
X68220646Y87069806D01*
X68213606Y87132625D01*
X68201617Y87192059D01*
X68183447Y87258260D01*
X68178601Y87274400D01*
X68102564Y87471793D01*
X67999946Y87653975D01*
X67873696Y87817157D01*
X67726768Y87957546D01*
X67562112Y88071355D01*
X67554704Y88075581D01*
X67510237Y88102666D01*
X67481025Y88124167D01*
X67474270Y88132591D01*
X67488147Y88144808D01*
X67526083Y88169948D01*
X67582522Y88204514D01*
X67651905Y88245009D01*
X67662639Y88251125D01*
X67671872Y88256533D01*
X68346320Y88256533D01*
X68351297Y88180334D01*
X68374663Y88068304D01*
X68427223Y87958918D01*
X68504480Y87858281D01*
X68601938Y87772502D01*
X68690982Y87718899D01*
X68802729Y87663867D01*
X69188114Y87655400D01*
X69573499Y87646934D01*
X69637243Y87583151D01*
X69674958Y87541944D01*
X69693909Y87506453D01*
X69700418Y87461170D01*
X69700987Y87426800D01*
X69698599Y87369643D01*
X69687219Y87330739D01*
X69660524Y87294580D01*
X69637227Y87270449D01*
X69573467Y87206667D01*
X68959893Y87198200D01*
X68346320Y87189733D01*
X68346320Y85987467D01*
X68390942Y85892301D01*
X68466625Y85767783D01*
X68565008Y85665122D01*
X68681946Y85587897D01*
X68793857Y85544646D01*
X68833725Y85533107D01*
X68865563Y85524799D01*
X68890326Y85522903D01*
X68908972Y85530597D01*
X68922456Y85551062D01*
X68931736Y85587478D01*
X68937769Y85643024D01*
X68941510Y85720881D01*
X68943916Y85824227D01*
X68945945Y85956244D01*
X68947453Y86055200D01*
X68955920Y86580133D01*
X69303053Y86590123D01*
X69441556Y86594914D01*
X69552000Y86601214D01*
X69640192Y86610247D01*
X69711940Y86623239D01*
X69773051Y86641415D01*
X69829330Y86666001D01*
X69886587Y86698221D01*
X69922374Y86720788D01*
X70049937Y86821922D01*
X70156223Y86944297D01*
X70238283Y87082659D01*
X70293164Y87231758D01*
X70317917Y87386341D01*
X70319053Y87426800D01*
X70302737Y87582849D01*
X70256038Y87732133D01*
X70182328Y87870617D01*
X70084982Y87994264D01*
X69967373Y88099038D01*
X69832874Y88180902D01*
X69759691Y88208055D01*
X70402984Y88208055D01*
X70405427Y88181208D01*
X70413053Y88147081D01*
X70419461Y88119781D01*
X70456251Y88017312D01*
X70517133Y87915144D01*
X70594213Y87824706D01*
X70661998Y87768642D01*
X70719337Y87732617D01*
X70775270Y87704976D01*
X70835457Y87684658D01*
X70905558Y87670602D01*
X70991232Y87661747D01*
X71098138Y87657030D01*
X71231938Y87655390D01*
X71266160Y87655337D01*
X71381954Y87655029D01*
X71469073Y87653857D01*
X71532705Y87651378D01*
X71578039Y87647146D01*
X71610262Y87640717D01*
X71634563Y87631644D01*
X71651633Y87622279D01*
X71718742Y87565057D01*
X71755628Y87492946D01*
X71764031Y87426800D01*
X71749148Y87341144D01*
X71704521Y87271683D01*
X71661562Y87236536D01*
X71646556Y87228533D01*
X71626004Y87221956D01*
X71596417Y87216597D01*
X71554301Y87212252D01*
X71496166Y87208712D01*
X71418520Y87205771D01*
X71317872Y87203223D01*
X71190730Y87200860D01*
X71033603Y87198476D01*
X71014098Y87198200D01*
X70412187Y87189733D01*
X70406980Y86630933D01*
X70405896Y86438566D01*
X70406526Y86278549D01*
X70408862Y86151223D01*
X70412897Y86056928D01*
X70418622Y85996006D01*
X70420857Y85983400D01*
X70453223Y85891173D01*
X70507845Y85795342D01*
X70576814Y85707697D01*
X70650171Y85641493D01*
X70717399Y85600944D01*
X70795315Y85565587D01*
X70872817Y85539508D01*
X70938805Y85526790D01*
X70962520Y85526576D01*
X71004853Y85530267D01*
X71009350Y86008633D01*
X71010936Y86131970D01*
X71013188Y86243516D01*
X71015956Y86339006D01*
X71019086Y86414173D01*
X71022426Y86464754D01*
X71025825Y86486482D01*
X71026416Y86487000D01*
X71040931Y86475436D01*
X71076440Y86442587D01*
X71130096Y86391221D01*
X71199051Y86324107D01*
X71280457Y86244011D01*
X71371466Y86153700D01*
X71445252Y86079988D01*
X71545019Y85980838D01*
X71640518Y85887436D01*
X71728303Y85803036D01*
X71804932Y85730896D01*
X71866959Y85674271D01*
X71910941Y85636416D01*
X71928283Y85623377D01*
X72031647Y85571957D01*
X72148731Y85538602D01*
X72265412Y85526736D01*
X72315504Y85529488D01*
X72388264Y85544748D01*
X72469374Y85572337D01*
X72547871Y85607467D01*
X72612793Y85645352D01*
X72647717Y85674566D01*
X72655448Y85684054D01*
X72659228Y85694247D01*
X72656954Y85707589D01*
X72646524Y85726523D01*
X72625834Y85753494D01*
X72592780Y85790944D01*
X72545259Y85841317D01*
X72481168Y85907058D01*
X72398404Y85990608D01*
X72294864Y86094413D01*
X72233427Y86155893D01*
X71787402Y86602155D01*
X71839787Y86629244D01*
X71879383Y86647583D01*
X71906197Y86656233D01*
X71907734Y86656333D01*
X71928103Y86646479D01*
X71966051Y86620735D01*
X72009906Y86587374D01*
X72064243Y86547483D01*
X72105342Y86530634D01*
X72143688Y86537117D01*
X72189765Y86567218D01*
X72221287Y86593169D01*
X72286254Y86648249D01*
X72250929Y86741191D01*
X72226229Y86814681D01*
X72217860Y86867236D01*
X72225443Y86907379D01*
X72242324Y86935733D01*
X72260899Y86953498D01*
X72288782Y86963822D01*
X72334454Y86968566D01*
X72396808Y86969600D01*
X72525632Y86969600D01*
X72555564Y87054267D01*
X72572817Y87106091D01*
X72584260Y87146184D01*
X72586807Y87159552D01*
X72574846Y87179411D01*
X72542202Y87211810D01*
X72495892Y87249801D01*
X72494986Y87250486D01*
X72443937Y87291467D01*
X72415505Y87322607D01*
X72403606Y87352044D01*
X72401853Y87375016D01*
X72404774Y87405192D01*
X72417872Y87428811D01*
X72447648Y87452823D01*
X72500605Y87484178D01*
X72507686Y87488130D01*
X72563206Y87520921D01*
X72595913Y87549562D01*
X72609024Y87582985D01*
X72605758Y87630120D01*
X72589334Y87699900D01*
X72587085Y87708493D01*
X72571580Y87748548D01*
X72545895Y87773255D01*
X72502781Y87786071D01*
X72434991Y87790455D01*
X72414944Y87790636D01*
X72362202Y87793937D01*
X72330162Y87806979D01*
X72305949Y87835053D01*
X72305607Y87835575D01*
X72290767Y87860977D01*
X72286954Y87883296D01*
X72295877Y87912286D01*
X72319246Y87957699D01*
X72330617Y87978310D01*
X72358582Y88032307D01*
X72378186Y88076869D01*
X72384920Y88100779D01*
X72373206Y88124585D01*
X72342813Y88161465D01*
X72309078Y88195129D01*
X72233236Y88265037D01*
X72123777Y88211061D01*
X72063786Y88183010D01*
X72023929Y88169623D01*
X71994907Y88168812D01*
X71971019Y88176812D01*
X71947161Y88190719D01*
X71934109Y88211040D01*
X71928620Y88247152D01*
X71927461Y88302737D01*
X71925197Y88362176D01*
X71919579Y88409373D01*
X71913201Y88431006D01*
X71891088Y88445169D01*
X71847509Y88461688D01*
X71793868Y88477455D01*
X71741568Y88489360D01*
X71702015Y88494296D01*
X71688480Y88492257D01*
X71674719Y88474791D01*
X71650309Y88436348D01*
X71624050Y88391396D01*
X71584872Y88332299D01*
X71546474Y88292278D01*
X71528199Y88281330D01*
X71500454Y88277135D01*
X71442995Y88273376D01*
X71359972Y88270171D01*
X71255535Y88267638D01*
X71133835Y88265894D01*
X70999024Y88265057D01*
X70952419Y88265000D01*
X70798681Y88265123D01*
X70675618Y88264914D01*
X70580044Y88263504D01*
X70508773Y88260026D01*
X70458618Y88253610D01*
X70426392Y88243388D01*
X70408910Y88228493D01*
X70402984Y88208055D01*
X69759691Y88208055D01*
X69684858Y88235820D01*
X69633253Y88247411D01*
X69579767Y88253543D01*
X69493000Y88258103D01*
X69373502Y88261080D01*
X69221823Y88262462D01*
X69038513Y88262238D01*
X68938987Y88261553D01*
X68346320Y88256533D01*
X67671872Y88256533D01*
X67756032Y88305823D01*
X67822189Y88349473D01*
X67864422Y88385646D01*
X67886043Y88417915D01*
X67890364Y88449849D01*
X67880698Y88485022D01*
X67880344Y88485881D01*
X67845640Y88538735D01*
X67799534Y88563003D01*
X67757490Y88559864D01*
X67729125Y88547150D01*
X67678463Y88520934D01*
X67612388Y88484898D01*
X67537785Y88442725D01*
X67528917Y88437618D01*
X67337562Y88327184D01*
X67248487Y88420631D01*
X67111415Y88540782D01*
X66954405Y88637365D01*
X66782872Y88708923D01*
X66602233Y88753994D01*
X66417902Y88771120D01*
X66235295Y88758840D01*
X66102653Y88729433D01*
X65940771Y88666635D01*
X65785409Y88577784D01*
X65642566Y88467847D01*
X65518243Y88341788D01*
X65418439Y88204572D01*
X65377779Y88129534D01*
X65304952Y87942060D01*
X65265778Y87755233D01*
X65260308Y87569496D01*
X65288592Y87385287D01*
X65290926Y87376000D01*
X65308211Y87308370D01*
X65323038Y87250182D01*
X65332756Y87211844D01*
X65334055Y87206667D01*
X65333257Y87188927D01*
X65318804Y87169472D01*
X65286160Y87144638D01*
X65230792Y87110762D01*
X65178896Y87081277D01*
X65077909Y87022889D01*
X65004566Y86975617D01*
X64955578Y86936793D01*
X64927657Y86903746D01*
X64917513Y86873807D01*
X64917320Y86868968D01*
X64730751Y86868968D01*
X64718464Y87126970D01*
X64728437Y87381506D01*
X64776809Y87771757D01*
X64855237Y88146407D01*
X64963744Y88505504D01*
X65102352Y88849100D01*
X65271085Y89177245D01*
X65469966Y89489987D01*
X65699017Y89787379D01*
X65958263Y90069470D01*
X65965911Y90077103D01*
X66167416Y90268223D01*
X66364308Y90434112D01*
X66565001Y90580800D01*
X66777907Y90714317D01*
X67011441Y90840693D01*
X67076320Y90873000D01*
X67263150Y90960584D01*
X67436488Y91032461D01*
X67609708Y91093543D01*
X67796186Y91148741D01*
X67904950Y91177284D01*
X68101803Y91223971D01*
X68278686Y91258386D01*
X68446608Y91281945D01*
X68616575Y91296063D01*
X68799596Y91302157D01*
X68879720Y91302665D01*
X69071134Y91299411D01*
X69071134Y91299411D01*
G37*
X69071134Y91299411D02*
X69245048Y91288704D01*
X69412471Y91269128D01*
X69584410Y91239269D01*
X69771872Y91197709D01*
X69854490Y91177284D01*
X70053415Y91123214D01*
X70231995Y91065862D01*
X70403605Y91000317D01*
X70581619Y90921668D01*
X70683120Y90873000D01*
X70923367Y90747490D01*
X71140809Y90616400D01*
X71343857Y90473702D01*
X71540927Y90313365D01*
X71740429Y90129359D01*
X71793529Y90077103D01*
X72053676Y89795314D01*
X72283689Y89498074D01*
X72483549Y89185423D01*
X72653237Y88857406D01*
X72792732Y88514063D01*
X72902016Y88155438D01*
X72981070Y87781573D01*
X73029873Y87392509D01*
X73031367Y87374525D01*
X73040369Y87080221D01*
X73021658Y86773392D01*
X72976504Y86459036D01*
X72906176Y86142150D01*
X72811941Y85827734D01*
X72695068Y85520785D01*
X72556826Y85226303D01*
X72427944Y84996867D01*
X72236053Y84711267D01*
X72015630Y84436244D01*
X71771541Y84176748D01*
X71508650Y83937725D01*
X71231820Y83724126D01*
X71071096Y83616557D01*
X70961240Y83551327D01*
X70829318Y83479758D01*
X70685227Y83406711D01*
X70538863Y83337047D01*
X70400122Y83275626D01*
X70278900Y83227309D01*
X70277823Y83226914D01*
X70147333Y83183095D01*
X69994221Y83138267D01*
X69829521Y83095195D01*
X69664266Y83056645D01*
X69509491Y83025382D01*
X69404653Y83008053D01*
X69274722Y82992960D01*
X69126902Y82981764D01*
X68971282Y82974762D01*
X68817947Y82972253D01*
X68676987Y82974534D01*
X68558488Y82981904D01*
X68549520Y82982801D01*
X68182448Y83036888D01*
X67820216Y83121768D01*
X67467068Y83235995D01*
X67127249Y83378123D01*
X66805002Y83546705D01*
X66688343Y83617210D01*
X66412670Y83808323D01*
X66146517Y84027929D01*
X65894869Y84270958D01*
X65662711Y84532341D01*
X65455029Y84807009D01*
X65331496Y84996867D01*
X65177150Y85276348D01*
X65042953Y85572435D01*
X64930169Y85880129D01*
X64840064Y86194430D01*
X64773902Y86510337D01*
X64732947Y86822850D01*
X64730751Y86868968D01*
X64917320Y86868968D01*
X64929009Y86830281D01*
X64957533Y86788338D01*
X64993082Y86754718D01*
X65025760Y86741000D01*
X65049040Y86749172D01*
X65095284Y86771584D01*
X65158397Y86805082D01*
X65232283Y86846513D01*
X65254806Y86859533D01*
X65329628Y86902496D01*
X65394276Y86938513D01*
X65443014Y86964473D01*
X65470107Y86977263D01*
X65473204Y86978067D01*
X65480645Y86962391D01*
X65488416Y86920325D01*
X65495327Y86859313D01*
X65498260Y86821433D01*
X65528574Y86605776D01*
X65589020Y86403022D01*
X65677586Y86215410D01*
X65792262Y86045178D01*
X65931035Y85894564D01*
X66091896Y85765805D01*
X66272831Y85661139D01*
X66471831Y85582805D01*
X66650735Y85539124D01*
X66757391Y85528152D01*
X66883755Y85528179D01*
X67017808Y85538356D01*
X67147530Y85557834D01*
X67245653Y85581140D01*
X67448009Y85657206D01*
X67631893Y85760929D01*
X67795446Y85890453D01*
X67936810Y86043921D01*
X68054123Y86219478D01*
X68145528Y86415266D01*
X68178601Y86512400D01*
X68198265Y86581390D01*
X68211483Y86641424D01*
X68219485Y86702655D01*
X68223504Y86775236D01*
X68224769Y86869318D01*
X68224800Y86893400D01*
X68223967Y86993448D01*
X68220646Y87069806D01*
X68213606Y87132625D01*
X68201617Y87192059D01*
X68183447Y87258260D01*
X68178601Y87274400D01*
X68102564Y87471793D01*
X67999946Y87653975D01*
X67873696Y87817157D01*
X67726768Y87957546D01*
X67562112Y88071355D01*
X67554704Y88075581D01*
X67510237Y88102666D01*
X67481025Y88124167D01*
X67474270Y88132591D01*
X67488147Y88144808D01*
X67526083Y88169948D01*
X67582522Y88204514D01*
X67651905Y88245009D01*
X67662639Y88251125D01*
X67671872Y88256533D01*
X68346320Y88256533D01*
X68351297Y88180334D01*
X68374663Y88068304D01*
X68427223Y87958918D01*
X68504480Y87858281D01*
X68601938Y87772502D01*
X68690982Y87718899D01*
X68802729Y87663867D01*
X69188114Y87655400D01*
X69573499Y87646934D01*
X69637243Y87583151D01*
X69674958Y87541944D01*
X69693909Y87506453D01*
X69700418Y87461170D01*
X69700987Y87426800D01*
X69698599Y87369643D01*
X69687219Y87330739D01*
X69660524Y87294580D01*
X69637227Y87270449D01*
X69573467Y87206667D01*
X68959893Y87198200D01*
X68346320Y87189733D01*
X68346320Y85987467D01*
X68390942Y85892301D01*
X68466625Y85767783D01*
X68565008Y85665122D01*
X68681946Y85587897D01*
X68793857Y85544646D01*
X68833725Y85533107D01*
X68865563Y85524799D01*
X68890326Y85522903D01*
X68908972Y85530597D01*
X68922456Y85551062D01*
X68931736Y85587478D01*
X68937769Y85643024D01*
X68941510Y85720881D01*
X68943916Y85824227D01*
X68945945Y85956244D01*
X68947453Y86055200D01*
X68955920Y86580133D01*
X69303053Y86590123D01*
X69441556Y86594914D01*
X69552000Y86601214D01*
X69640192Y86610247D01*
X69711940Y86623239D01*
X69773051Y86641415D01*
X69829330Y86666001D01*
X69886587Y86698221D01*
X69922374Y86720788D01*
X70049937Y86821922D01*
X70156223Y86944297D01*
X70238283Y87082659D01*
X70293164Y87231758D01*
X70317917Y87386341D01*
X70319053Y87426800D01*
X70302737Y87582849D01*
X70256038Y87732133D01*
X70182328Y87870617D01*
X70084982Y87994264D01*
X69967373Y88099038D01*
X69832874Y88180902D01*
X69759691Y88208055D01*
X70402984Y88208055D01*
X70405427Y88181208D01*
X70413053Y88147081D01*
X70419461Y88119781D01*
X70456251Y88017312D01*
X70517133Y87915144D01*
X70594213Y87824706D01*
X70661998Y87768642D01*
X70719337Y87732617D01*
X70775270Y87704976D01*
X70835457Y87684658D01*
X70905558Y87670602D01*
X70991232Y87661747D01*
X71098138Y87657030D01*
X71231938Y87655390D01*
X71266160Y87655337D01*
X71381954Y87655029D01*
X71469073Y87653857D01*
X71532705Y87651378D01*
X71578039Y87647146D01*
X71610262Y87640717D01*
X71634563Y87631644D01*
X71651633Y87622279D01*
X71718742Y87565057D01*
X71755628Y87492946D01*
X71764031Y87426800D01*
X71749148Y87341144D01*
X71704521Y87271683D01*
X71661562Y87236536D01*
X71646556Y87228533D01*
X71626004Y87221956D01*
X71596417Y87216597D01*
X71554301Y87212252D01*
X71496166Y87208712D01*
X71418520Y87205771D01*
X71317872Y87203223D01*
X71190730Y87200860D01*
X71033603Y87198476D01*
X71014098Y87198200D01*
X70412187Y87189733D01*
X70406980Y86630933D01*
X70405896Y86438566D01*
X70406526Y86278549D01*
X70408862Y86151223D01*
X70412897Y86056928D01*
X70418622Y85996006D01*
X70420857Y85983400D01*
X70453223Y85891173D01*
X70507845Y85795342D01*
X70576814Y85707697D01*
X70650171Y85641493D01*
X70717399Y85600944D01*
X70795315Y85565587D01*
X70872817Y85539508D01*
X70938805Y85526790D01*
X70962520Y85526576D01*
X71004853Y85530267D01*
X71009350Y86008633D01*
X71010936Y86131970D01*
X71013188Y86243516D01*
X71015956Y86339006D01*
X71019086Y86414173D01*
X71022426Y86464754D01*
X71025825Y86486482D01*
X71026416Y86487000D01*
X71040931Y86475436D01*
X71076440Y86442587D01*
X71130096Y86391221D01*
X71199051Y86324107D01*
X71280457Y86244011D01*
X71371466Y86153700D01*
X71445252Y86079988D01*
X71545019Y85980838D01*
X71640518Y85887436D01*
X71728303Y85803036D01*
X71804932Y85730896D01*
X71866959Y85674271D01*
X71910941Y85636416D01*
X71928283Y85623377D01*
X72031647Y85571957D01*
X72148731Y85538602D01*
X72265412Y85526736D01*
X72315504Y85529488D01*
X72388264Y85544748D01*
X72469374Y85572337D01*
X72547871Y85607467D01*
X72612793Y85645352D01*
X72647717Y85674566D01*
X72655448Y85684054D01*
X72659228Y85694247D01*
X72656954Y85707589D01*
X72646524Y85726523D01*
X72625834Y85753494D01*
X72592780Y85790944D01*
X72545259Y85841317D01*
X72481168Y85907058D01*
X72398404Y85990608D01*
X72294864Y86094413D01*
X72233427Y86155893D01*
X71787402Y86602155D01*
X71839787Y86629244D01*
X71879383Y86647583D01*
X71906197Y86656233D01*
X71907734Y86656333D01*
X71928103Y86646479D01*
X71966051Y86620735D01*
X72009906Y86587374D01*
X72064243Y86547483D01*
X72105342Y86530634D01*
X72143688Y86537117D01*
X72189765Y86567218D01*
X72221287Y86593169D01*
X72286254Y86648249D01*
X72250929Y86741191D01*
X72226229Y86814681D01*
X72217860Y86867236D01*
X72225443Y86907379D01*
X72242324Y86935733D01*
X72260899Y86953498D01*
X72288782Y86963822D01*
X72334454Y86968566D01*
X72396808Y86969600D01*
X72525632Y86969600D01*
X72555564Y87054267D01*
X72572817Y87106091D01*
X72584260Y87146184D01*
X72586807Y87159552D01*
X72574846Y87179411D01*
X72542202Y87211810D01*
X72495892Y87249801D01*
X72494986Y87250486D01*
X72443937Y87291467D01*
X72415505Y87322607D01*
X72403606Y87352044D01*
X72401853Y87375016D01*
X72404774Y87405192D01*
X72417872Y87428811D01*
X72447648Y87452823D01*
X72500605Y87484178D01*
X72507686Y87488130D01*
X72563206Y87520921D01*
X72595913Y87549562D01*
X72609024Y87582985D01*
X72605758Y87630120D01*
X72589334Y87699900D01*
X72587085Y87708493D01*
X72571580Y87748548D01*
X72545895Y87773255D01*
X72502781Y87786071D01*
X72434991Y87790455D01*
X72414944Y87790636D01*
X72362202Y87793937D01*
X72330162Y87806979D01*
X72305949Y87835053D01*
X72305607Y87835575D01*
X72290767Y87860977D01*
X72286954Y87883296D01*
X72295877Y87912286D01*
X72319246Y87957699D01*
X72330617Y87978310D01*
X72358582Y88032307D01*
X72378186Y88076869D01*
X72384920Y88100779D01*
X72373206Y88124585D01*
X72342813Y88161465D01*
X72309078Y88195129D01*
X72233236Y88265037D01*
X72123777Y88211061D01*
X72063786Y88183010D01*
X72023929Y88169623D01*
X71994907Y88168812D01*
X71971019Y88176812D01*
X71947161Y88190719D01*
X71934109Y88211040D01*
X71928620Y88247152D01*
X71927461Y88302737D01*
X71925197Y88362176D01*
X71919579Y88409373D01*
X71913201Y88431006D01*
X71891088Y88445169D01*
X71847509Y88461688D01*
X71793868Y88477455D01*
X71741568Y88489360D01*
X71702015Y88494296D01*
X71688480Y88492257D01*
X71674719Y88474791D01*
X71650309Y88436348D01*
X71624050Y88391396D01*
X71584872Y88332299D01*
X71546474Y88292278D01*
X71528199Y88281330D01*
X71500454Y88277135D01*
X71442995Y88273376D01*
X71359972Y88270171D01*
X71255535Y88267638D01*
X71133835Y88265894D01*
X70999024Y88265057D01*
X70952419Y88265000D01*
X70798681Y88265123D01*
X70675618Y88264914D01*
X70580044Y88263504D01*
X70508773Y88260026D01*
X70458618Y88253610D01*
X70426392Y88243388D01*
X70408910Y88228493D01*
X70402984Y88208055D01*
X69759691Y88208055D01*
X69684858Y88235820D01*
X69633253Y88247411D01*
X69579767Y88253543D01*
X69493000Y88258103D01*
X69373502Y88261080D01*
X69221823Y88262462D01*
X69038513Y88262238D01*
X68938987Y88261553D01*
X68346320Y88256533D01*
X67671872Y88256533D01*
X67756032Y88305823D01*
X67822189Y88349473D01*
X67864422Y88385646D01*
X67886043Y88417915D01*
X67890364Y88449849D01*
X67880698Y88485022D01*
X67880344Y88485881D01*
X67845640Y88538735D01*
X67799534Y88563003D01*
X67757490Y88559864D01*
X67729125Y88547150D01*
X67678463Y88520934D01*
X67612388Y88484898D01*
X67537785Y88442725D01*
X67528917Y88437618D01*
X67337562Y88327184D01*
X67248487Y88420631D01*
X67111415Y88540782D01*
X66954405Y88637365D01*
X66782872Y88708923D01*
X66602233Y88753994D01*
X66417902Y88771120D01*
X66235295Y88758840D01*
X66102653Y88729433D01*
X65940771Y88666635D01*
X65785409Y88577784D01*
X65642566Y88467847D01*
X65518243Y88341788D01*
X65418439Y88204572D01*
X65377779Y88129534D01*
X65304952Y87942060D01*
X65265778Y87755233D01*
X65260308Y87569496D01*
X65288592Y87385287D01*
X65290926Y87376000D01*
X65308211Y87308370D01*
X65323038Y87250182D01*
X65332756Y87211844D01*
X65334055Y87206667D01*
X65333257Y87188927D01*
X65318804Y87169472D01*
X65286160Y87144638D01*
X65230792Y87110762D01*
X65178896Y87081277D01*
X65077909Y87022889D01*
X65004566Y86975617D01*
X64955578Y86936793D01*
X64927657Y86903746D01*
X64917513Y86873807D01*
X64917320Y86868968D01*
X64730751Y86868968D01*
X64718464Y87126970D01*
X64728437Y87381506D01*
X64776809Y87771757D01*
X64855237Y88146407D01*
X64963744Y88505504D01*
X65102352Y88849100D01*
X65271085Y89177245D01*
X65469966Y89489987D01*
X65699017Y89787379D01*
X65958263Y90069470D01*
X65965911Y90077103D01*
X66167416Y90268223D01*
X66364308Y90434112D01*
X66565001Y90580800D01*
X66777907Y90714317D01*
X67011441Y90840693D01*
X67076320Y90873000D01*
X67263150Y90960584D01*
X67436488Y91032461D01*
X67609708Y91093543D01*
X67796186Y91148741D01*
X67904950Y91177284D01*
X68101803Y91223971D01*
X68278686Y91258386D01*
X68446608Y91281945D01*
X68616575Y91296063D01*
X68799596Y91302157D01*
X68879720Y91302665D01*
X69071134Y91299411D01*
G36*
X66961527Y87646949D02*
X67112173Y87611761D01*
X67251276Y87544740D01*
X67378669Y87445948D01*
X67398113Y87427038D01*
X67500734Y87302200D01*
X67573125Y87166167D01*
X67615281Y87022835D01*
X67627198Y86876099D01*
X67608873Y86729856D01*
X67560299Y86588001D01*
X67481475Y86454431D01*
X67399269Y86358784D01*
X67274072Y86256119D01*
X67135533Y86183507D01*
X66987089Y86141882D01*
X66832178Y86132177D01*
X66674238Y86155324D01*
X66661864Y86158546D01*
X66520710Y86213210D01*
X66395698Y86294570D01*
X66289439Y86398274D01*
X66204540Y86519974D01*
X66143612Y86655319D01*
X66109265Y86799959D01*
X66104107Y86949544D01*
X66120612Y87060841D01*
X66170121Y87203878D01*
X66247310Y87333625D01*
X66347815Y87446294D01*
X66467277Y87538098D01*
X66601333Y87605253D01*
X66745622Y87643970D01*
X66799510Y87650239D01*
X66961527Y87646949D01*
X66961527Y87646949D01*
G37*
X66961527Y87646949D02*
X67112173Y87611761D01*
X67251276Y87544740D01*
X67378669Y87445948D01*
X67398113Y87427038D01*
X67500734Y87302200D01*
X67573125Y87166167D01*
X67615281Y87022835D01*
X67627198Y86876099D01*
X67608873Y86729856D01*
X67560299Y86588001D01*
X67481475Y86454431D01*
X67399269Y86358784D01*
X67274072Y86256119D01*
X67135533Y86183507D01*
X66987089Y86141882D01*
X66832178Y86132177D01*
X66674238Y86155324D01*
X66661864Y86158546D01*
X66520710Y86213210D01*
X66395698Y86294570D01*
X66289439Y86398274D01*
X66204540Y86519974D01*
X66143612Y86655319D01*
X66109265Y86799959D01*
X66104107Y86949544D01*
X66120612Y87060841D01*
X66170121Y87203878D01*
X66247310Y87333625D01*
X66347815Y87446294D01*
X66467277Y87538098D01*
X66601333Y87605253D01*
X66745622Y87643970D01*
X66799510Y87650239D01*
X66961527Y87646949D01*
G36*
X67784310Y88488737D02*
X67810647Y88466507D01*
X67819448Y88435271D01*
X67815223Y88422117D01*
X67798389Y88409468D01*
X67754620Y88381529D01*
X67686423Y88339750D01*
X67596307Y88285577D01*
X67486779Y88220459D01*
X67360345Y88145843D01*
X67219515Y88063176D01*
X67066794Y87973906D01*
X66904691Y87879482D01*
X66735713Y87781350D01*
X66562367Y87680958D01*
X66387162Y87579755D01*
X66212604Y87479186D01*
X66041201Y87380702D01*
X65875460Y87285748D01*
X65717889Y87195772D01*
X65570996Y87112223D01*
X65437287Y87036548D01*
X65319271Y86970194D01*
X65219454Y86914610D01*
X65140345Y86871242D01*
X65084451Y86841539D01*
X65054279Y86826948D01*
X65050030Y86825667D01*
X65018537Y86837146D01*
X65008324Y86850508D01*
X65003340Y86884197D01*
X65005081Y86894217D01*
X65020052Y86904568D01*
X65061883Y86930382D01*
X65128091Y86970218D01*
X65216192Y87022630D01*
X65323702Y87086176D01*
X65448139Y87159411D01*
X65587017Y87240893D01*
X65737853Y87329177D01*
X65898164Y87422821D01*
X66065465Y87520380D01*
X66237274Y87620411D01*
X66411106Y87721470D01*
X66584478Y87822114D01*
X66754906Y87920900D01*
X66919906Y88016383D01*
X67076994Y88107120D01*
X67223687Y88191668D01*
X67357502Y88268583D01*
X67475954Y88336422D01*
X67576559Y88393740D01*
X67656835Y88439095D01*
X67714296Y88471042D01*
X67746461Y88488139D01*
X67751308Y88490357D01*
X67784310Y88488737D01*
X67784310Y88488737D01*
G37*
X67784310Y88488737D02*
X67810647Y88466507D01*
X67819448Y88435271D01*
X67815223Y88422117D01*
X67798389Y88409468D01*
X67754620Y88381529D01*
X67686423Y88339750D01*
X67596307Y88285577D01*
X67486779Y88220459D01*
X67360345Y88145843D01*
X67219515Y88063176D01*
X67066794Y87973906D01*
X66904691Y87879482D01*
X66735713Y87781350D01*
X66562367Y87680958D01*
X66387162Y87579755D01*
X66212604Y87479186D01*
X66041201Y87380702D01*
X65875460Y87285748D01*
X65717889Y87195772D01*
X65570996Y87112223D01*
X65437287Y87036548D01*
X65319271Y86970194D01*
X65219454Y86914610D01*
X65140345Y86871242D01*
X65084451Y86841539D01*
X65054279Y86826948D01*
X65050030Y86825667D01*
X65018537Y86837146D01*
X65008324Y86850508D01*
X65003340Y86884197D01*
X65005081Y86894217D01*
X65020052Y86904568D01*
X65061883Y86930382D01*
X65128091Y86970218D01*
X65216192Y87022630D01*
X65323702Y87086176D01*
X65448139Y87159411D01*
X65587017Y87240893D01*
X65737853Y87329177D01*
X65898164Y87422821D01*
X66065465Y87520380D01*
X66237274Y87620411D01*
X66411106Y87721470D01*
X66584478Y87822114D01*
X66754906Y87920900D01*
X66919906Y88016383D01*
X67076994Y88107120D01*
X67223687Y88191668D01*
X67357502Y88268583D01*
X67475954Y88336422D01*
X67576559Y88393740D01*
X67656835Y88439095D01*
X67714296Y88471042D01*
X67746461Y88488139D01*
X67751308Y88490357D01*
X67784310Y88488737D01*
G36*
X66480806Y88697409D02*
X66562235Y88685344D01*
X66649891Y88665658D01*
X66737563Y88640577D01*
X66819039Y88612328D01*
X66888107Y88583136D01*
X66938556Y88555228D01*
X66964173Y88530831D01*
X66966123Y88523482D01*
X66952544Y88508133D01*
X66919413Y88484993D01*
X66877856Y88460616D01*
X66839000Y88441553D01*
X66814732Y88434333D01*
X66798541Y88447862D01*
X66796920Y88457483D01*
X66782829Y88481288D01*
X66746373Y88512472D01*
X66696282Y88544987D01*
X66641282Y88572787D01*
X66616745Y88582323D01*
X66571708Y88592140D01*
X66545114Y88582150D01*
X66544778Y88581818D01*
X66529110Y88560074D01*
X66534207Y88541174D01*
X66563962Y88520359D01*
X66614886Y88496125D01*
X66682614Y88461169D01*
X66726132Y88428023D01*
X66742351Y88399541D01*
X66736089Y88384178D01*
X66717402Y88371650D01*
X66673882Y88345099D01*
X66609705Y88306930D01*
X66529047Y88259545D01*
X66436083Y88205350D01*
X66334991Y88146748D01*
X66229945Y88086144D01*
X66125122Y88025942D01*
X66024698Y87968545D01*
X65932848Y87916358D01*
X65853748Y87871784D01*
X65791576Y87837229D01*
X65750505Y87815096D01*
X65734849Y87807765D01*
X65728932Y87823152D01*
X65726259Y87863456D01*
X65727330Y87917809D01*
X65728985Y87979540D01*
X65728254Y87986132D01*
X65797853Y87986132D01*
X65801797Y87944714D01*
X65816661Y87928046D01*
X65829798Y87926334D01*
X65856394Y87938806D01*
X65869141Y87976740D01*
X65869550Y88028842D01*
X65853441Y88056198D01*
X65824962Y88056332D01*
X65803670Y88030404D01*
X65797853Y87986132D01*
X65728254Y87986132D01*
X65724988Y88015548D01*
X65713851Y88033717D01*
X65704455Y88038845D01*
X65672510Y88036984D01*
X65660937Y88026168D01*
X65648949Y87986956D01*
X65645546Y87930826D01*
X65650048Y87871829D01*
X65661779Y87824016D01*
X65671514Y87807070D01*
X65680618Y87793395D01*
X65678307Y87779571D01*
X65660404Y87761918D01*
X65622731Y87736751D01*
X65561111Y87700391D01*
X65530718Y87682970D01*
X65463296Y87645012D01*
X65406778Y87614228D01*
X65367525Y87594015D01*
X65352257Y87587667D01*
X65345019Y87602711D01*
X65340966Y87640333D01*
X65340653Y87656114D01*
X65349028Y87757280D01*
X65357491Y87800352D01*
X65477277Y87800352D01*
X65482386Y87765096D01*
X65502234Y87744859D01*
X65528276Y87752654D01*
X65545240Y87774941D01*
X65554034Y87803673D01*
X65564798Y87854413D01*
X65574125Y87909400D01*
X65582040Y87975023D01*
X65581222Y88015834D01*
X65571361Y88039824D01*
X65568967Y88042590D01*
X65550228Y88054620D01*
X65531831Y88041109D01*
X65520731Y88025320D01*
X65503496Y87984045D01*
X65489227Y87924096D01*
X65479847Y87858518D01*
X65477277Y87800352D01*
X65357491Y87800352D01*
X65371946Y87873909D01*
X65406103Y87992682D01*
X65448190Y88100282D01*
X65453997Y88112600D01*
X65531554Y88240741D01*
X65635038Y88363181D01*
X65702219Y88423437D01*
X66429578Y88423437D01*
X66434382Y88392868D01*
X66470003Y88353349D01*
X66476676Y88347692D01*
X66526231Y88311546D01*
X66558864Y88300980D01*
X66578702Y88315044D01*
X66582540Y88323304D01*
X66576311Y88349922D01*
X66546521Y88386875D01*
X66532963Y88399504D01*
X66486269Y88436634D01*
X66456104Y88449193D01*
X66437082Y88438427D01*
X66429578Y88423437D01*
X65702219Y88423437D01*
X65756569Y88472184D01*
X65888268Y88560009D01*
X65933320Y88583364D01*
X66095621Y88648062D01*
X66257928Y88687713D01*
X66412994Y88700808D01*
X66480806Y88697409D01*
X66480806Y88697409D01*
G37*
X66480806Y88697409D02*
X66562235Y88685344D01*
X66649891Y88665658D01*
X66737563Y88640577D01*
X66819039Y88612328D01*
X66888107Y88583136D01*
X66938556Y88555228D01*
X66964173Y88530831D01*
X66966123Y88523482D01*
X66952544Y88508133D01*
X66919413Y88484993D01*
X66877856Y88460616D01*
X66839000Y88441553D01*
X66814732Y88434333D01*
X66798541Y88447862D01*
X66796920Y88457483D01*
X66782829Y88481288D01*
X66746373Y88512472D01*
X66696282Y88544987D01*
X66641282Y88572787D01*
X66616745Y88582323D01*
X66571708Y88592140D01*
X66545114Y88582150D01*
X66544778Y88581818D01*
X66529110Y88560074D01*
X66534207Y88541174D01*
X66563962Y88520359D01*
X66614886Y88496125D01*
X66682614Y88461169D01*
X66726132Y88428023D01*
X66742351Y88399541D01*
X66736089Y88384178D01*
X66717402Y88371650D01*
X66673882Y88345099D01*
X66609705Y88306930D01*
X66529047Y88259545D01*
X66436083Y88205350D01*
X66334991Y88146748D01*
X66229945Y88086144D01*
X66125122Y88025942D01*
X66024698Y87968545D01*
X65932848Y87916358D01*
X65853748Y87871784D01*
X65791576Y87837229D01*
X65750505Y87815096D01*
X65734849Y87807765D01*
X65728932Y87823152D01*
X65726259Y87863456D01*
X65727330Y87917809D01*
X65728985Y87979540D01*
X65728254Y87986132D01*
X65797853Y87986132D01*
X65801797Y87944714D01*
X65816661Y87928046D01*
X65829798Y87926334D01*
X65856394Y87938806D01*
X65869141Y87976740D01*
X65869550Y88028842D01*
X65853441Y88056198D01*
X65824962Y88056332D01*
X65803670Y88030404D01*
X65797853Y87986132D01*
X65728254Y87986132D01*
X65724988Y88015548D01*
X65713851Y88033717D01*
X65704455Y88038845D01*
X65672510Y88036984D01*
X65660937Y88026168D01*
X65648949Y87986956D01*
X65645546Y87930826D01*
X65650048Y87871829D01*
X65661779Y87824016D01*
X65671514Y87807070D01*
X65680618Y87793395D01*
X65678307Y87779571D01*
X65660404Y87761918D01*
X65622731Y87736751D01*
X65561111Y87700391D01*
X65530718Y87682970D01*
X65463296Y87645012D01*
X65406778Y87614228D01*
X65367525Y87594015D01*
X65352257Y87587667D01*
X65345019Y87602711D01*
X65340966Y87640333D01*
X65340653Y87656114D01*
X65349028Y87757280D01*
X65357491Y87800352D01*
X65477277Y87800352D01*
X65482386Y87765096D01*
X65502234Y87744859D01*
X65528276Y87752654D01*
X65545240Y87774941D01*
X65554034Y87803673D01*
X65564798Y87854413D01*
X65574125Y87909400D01*
X65582040Y87975023D01*
X65581222Y88015834D01*
X65571361Y88039824D01*
X65568967Y88042590D01*
X65550228Y88054620D01*
X65531831Y88041109D01*
X65520731Y88025320D01*
X65503496Y87984045D01*
X65489227Y87924096D01*
X65479847Y87858518D01*
X65477277Y87800352D01*
X65357491Y87800352D01*
X65371946Y87873909D01*
X65406103Y87992682D01*
X65448190Y88100282D01*
X65453997Y88112600D01*
X65531554Y88240741D01*
X65635038Y88363181D01*
X65702219Y88423437D01*
X66429578Y88423437D01*
X66434382Y88392868D01*
X66470003Y88353349D01*
X66476676Y88347692D01*
X66526231Y88311546D01*
X66558864Y88300980D01*
X66578702Y88315044D01*
X66582540Y88323304D01*
X66576311Y88349922D01*
X66546521Y88386875D01*
X66532963Y88399504D01*
X66486269Y88436634D01*
X66456104Y88449193D01*
X66437082Y88438427D01*
X66429578Y88423437D01*
X65702219Y88423437D01*
X65756569Y88472184D01*
X65888268Y88560009D01*
X65933320Y88583364D01*
X66095621Y88648062D01*
X66257928Y88687713D01*
X66412994Y88700808D01*
X66480806Y88697409D01*
D13*
D15*
X61235091Y77401907D02*
X61258901Y77378097D01*
X61282710Y77306669D01*
X61282710Y77259050D01*
X61258901Y77187621D01*
X61211282Y77140002D01*
X61163663Y77116193D01*
X61068425Y77092383D01*
X60996996Y77092383D01*
X60901758Y77116193D01*
X60854139Y77140002D01*
X60806520Y77187621D01*
X60782710Y77259050D01*
X60782710Y77306669D01*
X60806520Y77378097D01*
X60830330Y77401907D01*
X61282710Y77878097D02*
X61282710Y77592383D01*
X61282710Y77735240D02*
X60782710Y77735240D01*
X60854139Y77687621D01*
X60901758Y77640002D01*
X60925568Y77592383D01*
X61245251Y79591387D02*
X61269061Y79567577D01*
X61292870Y79496149D01*
X61292870Y79448530D01*
X61269061Y79377101D01*
X61221442Y79329482D01*
X61173823Y79305673D01*
X61078585Y79281863D01*
X61007156Y79281863D01*
X60911918Y79305673D01*
X60864299Y79329482D01*
X60816680Y79377101D01*
X60792870Y79448530D01*
X60792870Y79496149D01*
X60816680Y79567577D01*
X60840490Y79591387D01*
X60840490Y79781863D02*
X60816680Y79805673D01*
X60792870Y79853292D01*
X60792870Y79972339D01*
X60816680Y80019958D01*
X60840490Y80043768D01*
X60888109Y80067577D01*
X60935728Y80067577D01*
X61007156Y80043768D01*
X61292870Y79758054D01*
X61292870Y80067577D01*
X39065971Y77340947D02*
X39089781Y77317137D01*
X39113590Y77245709D01*
X39113590Y77198090D01*
X39089781Y77126661D01*
X39042162Y77079042D01*
X38994543Y77055233D01*
X38899305Y77031423D01*
X38827876Y77031423D01*
X38732638Y77055233D01*
X38685019Y77079042D01*
X38637400Y77126661D01*
X38613590Y77198090D01*
X38613590Y77245709D01*
X38637400Y77317137D01*
X38661210Y77340947D01*
X38613590Y77507614D02*
X38613590Y77817137D01*
X38804067Y77650471D01*
X38804067Y77721899D01*
X38827876Y77769518D01*
X38851686Y77793328D01*
X38899305Y77817137D01*
X39018352Y77817137D01*
X39065971Y77793328D01*
X39089781Y77769518D01*
X39113590Y77721899D01*
X39113590Y77579042D01*
X39089781Y77531423D01*
X39065971Y77507614D01*
X39035491Y79505027D02*
X39059301Y79481217D01*
X39083110Y79409789D01*
X39083110Y79362170D01*
X39059301Y79290741D01*
X39011682Y79243122D01*
X38964063Y79219313D01*
X38868825Y79195503D01*
X38797396Y79195503D01*
X38702158Y79219313D01*
X38654539Y79243122D01*
X38606920Y79290741D01*
X38583110Y79362170D01*
X38583110Y79409789D01*
X38606920Y79481217D01*
X38630730Y79505027D01*
X38749777Y79933598D02*
X39083110Y79933598D01*
X38559301Y79814551D02*
X38916444Y79695503D01*
X38916444Y80005027D01*
X43274467Y11637509D02*
X43250657Y11613699D01*
X43179229Y11589890D01*
X43131610Y11589890D01*
X43060181Y11613699D01*
X43012562Y11661318D01*
X42988753Y11708937D01*
X42964943Y11804175D01*
X42964943Y11875604D01*
X42988753Y11970842D01*
X43012562Y12018461D01*
X43060181Y12066080D01*
X43131610Y12089890D01*
X43179229Y12089890D01*
X43250657Y12066080D01*
X43274467Y12042270D01*
X43726848Y12089890D02*
X43488753Y12089890D01*
X43464943Y11851794D01*
X43488753Y11875604D01*
X43536372Y11899413D01*
X43655419Y11899413D01*
X43703038Y11875604D01*
X43726848Y11851794D01*
X43750657Y11804175D01*
X43750657Y11685128D01*
X43726848Y11637509D01*
X43703038Y11613699D01*
X43655419Y11589890D01*
X43536372Y11589890D01*
X43488753Y11613699D01*
X43464943Y11637509D01*
X42926771Y7912587D02*
X42950581Y7888777D01*
X42974390Y7817349D01*
X42974390Y7769730D01*
X42950581Y7698301D01*
X42902962Y7650682D01*
X42855343Y7626873D01*
X42760105Y7603063D01*
X42688676Y7603063D01*
X42593438Y7626873D01*
X42545819Y7650682D01*
X42498200Y7698301D01*
X42474390Y7769730D01*
X42474390Y7817349D01*
X42498200Y7888777D01*
X42522010Y7912587D01*
X42474390Y8341158D02*
X42474390Y8245920D01*
X42498200Y8198301D01*
X42522010Y8174492D01*
X42593438Y8126873D01*
X42688676Y8103063D01*
X42879152Y8103063D01*
X42926771Y8126873D01*
X42950581Y8150682D01*
X42974390Y8198301D01*
X42974390Y8293539D01*
X42950581Y8341158D01*
X42926771Y8364968D01*
X42879152Y8388777D01*
X42760105Y8388777D01*
X42712486Y8364968D01*
X42688676Y8341158D01*
X42664867Y8293539D01*
X42664867Y8198301D01*
X42688676Y8150682D01*
X42712486Y8126873D01*
X42760105Y8103063D01*
X42982651Y9817587D02*
X43006461Y9793777D01*
X43030270Y9722349D01*
X43030270Y9674730D01*
X43006461Y9603301D01*
X42958842Y9555682D01*
X42911223Y9531873D01*
X42815985Y9508063D01*
X42744556Y9508063D01*
X42649318Y9531873D01*
X42601699Y9555682D01*
X42554080Y9603301D01*
X42530270Y9674730D01*
X42530270Y9722349D01*
X42554080Y9793777D01*
X42577890Y9817587D01*
X42530270Y9984254D02*
X42530270Y10317587D01*
X43030270Y10103301D01*
X57572411Y9832827D02*
X57596221Y9809017D01*
X57620030Y9737589D01*
X57620030Y9689970D01*
X57596221Y9618541D01*
X57548602Y9570922D01*
X57500983Y9547113D01*
X57405745Y9523303D01*
X57334316Y9523303D01*
X57239078Y9547113D01*
X57191459Y9570922D01*
X57143840Y9618541D01*
X57120030Y9689970D01*
X57120030Y9737589D01*
X57143840Y9809017D01*
X57167650Y9832827D01*
X57334316Y10118541D02*
X57310507Y10070922D01*
X57286697Y10047113D01*
X57239078Y10023303D01*
X57215269Y10023303D01*
X57167650Y10047113D01*
X57143840Y10070922D01*
X57120030Y10118541D01*
X57120030Y10213779D01*
X57143840Y10261398D01*
X57167650Y10285208D01*
X57215269Y10309017D01*
X57239078Y10309017D01*
X57286697Y10285208D01*
X57310507Y10261398D01*
X57334316Y10213779D01*
X57334316Y10118541D01*
X57358126Y10070922D01*
X57381935Y10047113D01*
X57429554Y10023303D01*
X57524792Y10023303D01*
X57572411Y10047113D01*
X57596221Y10070922D01*
X57620030Y10118541D01*
X57620030Y10213779D01*
X57596221Y10261398D01*
X57572411Y10285208D01*
X57524792Y10309017D01*
X57429554Y10309017D01*
X57381935Y10285208D01*
X57358126Y10261398D01*
X57334316Y10213779D01*
X57572411Y7963387D02*
X57596221Y7939577D01*
X57620030Y7868149D01*
X57620030Y7820530D01*
X57596221Y7749101D01*
X57548602Y7701482D01*
X57500983Y7677673D01*
X57405745Y7653863D01*
X57334316Y7653863D01*
X57239078Y7677673D01*
X57191459Y7701482D01*
X57143840Y7749101D01*
X57120030Y7820530D01*
X57120030Y7868149D01*
X57143840Y7939577D01*
X57167650Y7963387D01*
X57620030Y8201482D02*
X57620030Y8296720D01*
X57596221Y8344339D01*
X57572411Y8368149D01*
X57500983Y8415768D01*
X57405745Y8439577D01*
X57215269Y8439577D01*
X57167650Y8415768D01*
X57143840Y8391958D01*
X57120030Y8344339D01*
X57120030Y8249101D01*
X57143840Y8201482D01*
X57167650Y8177673D01*
X57215269Y8153863D01*
X57334316Y8153863D01*
X57381935Y8177673D01*
X57405745Y8201482D01*
X57429554Y8249101D01*
X57429554Y8344339D01*
X57405745Y8391958D01*
X57381935Y8415768D01*
X57334316Y8439577D01*
D13*
X37229303Y28335979D02*
X37229303Y29335979D01*
X37610256Y29335979D01*
X37705494Y29288360D01*
X37753113Y29240741D01*
X37800732Y29145503D01*
X37800732Y29002646D01*
X37753113Y28907408D01*
X37705494Y28859789D01*
X37610256Y28812170D01*
X37229303Y28812170D01*
X38419779Y29335979D02*
X38610256Y29335979D01*
X38705494Y29288360D01*
X38800732Y29193122D01*
X38848351Y29002646D01*
X38848351Y28669312D01*
X38800732Y28478836D01*
X38705494Y28383598D01*
X38610256Y28335979D01*
X38419779Y28335979D01*
X38324541Y28383598D01*
X38229303Y28478836D01*
X38181684Y28669312D01*
X38181684Y29002646D01*
X38229303Y29193122D01*
X38324541Y29288360D01*
X38419779Y29335979D01*
X39134065Y29335979D02*
X39705494Y29335979D01*
X39419779Y28335979D02*
X39419779Y29335979D01*
X40562637Y28335979D02*
X39991208Y28335979D01*
X40276922Y28335979D02*
X40276922Y29335979D01*
X40181684Y29193122D01*
X40086446Y29097884D01*
X39991208Y29050265D01*
X37178503Y36250619D02*
X37178503Y37250619D01*
X37559456Y37250619D01*
X37654694Y37203000D01*
X37702313Y37155381D01*
X37749932Y37060143D01*
X37749932Y36917286D01*
X37702313Y36822048D01*
X37654694Y36774429D01*
X37559456Y36726810D01*
X37178503Y36726810D01*
X38368979Y37250619D02*
X38559456Y37250619D01*
X38654694Y37203000D01*
X38749932Y37107762D01*
X38797551Y36917286D01*
X38797551Y36583952D01*
X38749932Y36393476D01*
X38654694Y36298238D01*
X38559456Y36250619D01*
X38368979Y36250619D01*
X38273741Y36298238D01*
X38178503Y36393476D01*
X38130884Y36583952D01*
X38130884Y36917286D01*
X38178503Y37107762D01*
X38273741Y37203000D01*
X38368979Y37250619D01*
X39083265Y37250619D02*
X39654694Y37250619D01*
X39368979Y36250619D02*
X39368979Y37250619D01*
X39940408Y37155381D02*
X39988027Y37203000D01*
X40083265Y37250619D01*
X40321361Y37250619D01*
X40416599Y37203000D01*
X40464218Y37155381D01*
X40511837Y37060143D01*
X40511837Y36964905D01*
X40464218Y36822048D01*
X39892789Y36250619D01*
X40511837Y36250619D01*
X37168343Y44216059D02*
X37168343Y45216059D01*
X37549296Y45216059D01*
X37644534Y45168440D01*
X37692153Y45120821D01*
X37739772Y45025583D01*
X37739772Y44882726D01*
X37692153Y44787488D01*
X37644534Y44739869D01*
X37549296Y44692250D01*
X37168343Y44692250D01*
X38358819Y45216059D02*
X38549296Y45216059D01*
X38644534Y45168440D01*
X38739772Y45073202D01*
X38787391Y44882726D01*
X38787391Y44549392D01*
X38739772Y44358916D01*
X38644534Y44263678D01*
X38549296Y44216059D01*
X38358819Y44216059D01*
X38263581Y44263678D01*
X38168343Y44358916D01*
X38120724Y44549392D01*
X38120724Y44882726D01*
X38168343Y45073202D01*
X38263581Y45168440D01*
X38358819Y45216059D01*
X39073105Y45216059D02*
X39644534Y45216059D01*
X39358819Y44216059D02*
X39358819Y45216059D01*
X39882629Y45216059D02*
X40501677Y45216059D01*
X40168343Y44835107D01*
X40311201Y44835107D01*
X40406439Y44787488D01*
X40454058Y44739869D01*
X40501677Y44644630D01*
X40501677Y44406535D01*
X40454058Y44311297D01*
X40406439Y44263678D01*
X40311201Y44216059D01*
X40025486Y44216059D01*
X39930248Y44263678D01*
X39882629Y44311297D01*
X37142943Y52039259D02*
X37142943Y53039259D01*
X37523896Y53039259D01*
X37619134Y52991640D01*
X37666753Y52944021D01*
X37714372Y52848783D01*
X37714372Y52705926D01*
X37666753Y52610688D01*
X37619134Y52563069D01*
X37523896Y52515450D01*
X37142943Y52515450D01*
X38333419Y53039259D02*
X38523896Y53039259D01*
X38619134Y52991640D01*
X38714372Y52896402D01*
X38761991Y52705926D01*
X38761991Y52372592D01*
X38714372Y52182116D01*
X38619134Y52086878D01*
X38523896Y52039259D01*
X38333419Y52039259D01*
X38238181Y52086878D01*
X38142943Y52182116D01*
X38095324Y52372592D01*
X38095324Y52705926D01*
X38142943Y52896402D01*
X38238181Y52991640D01*
X38333419Y53039259D01*
X39047705Y53039259D02*
X39619134Y53039259D01*
X39333419Y52039259D02*
X39333419Y53039259D01*
X40381039Y52705926D02*
X40381039Y52039259D01*
X40142943Y53086878D02*
X39904848Y52372592D01*
X40523896Y52372592D01*
X37244543Y59826899D02*
X37244543Y60826899D01*
X37625496Y60826899D01*
X37720734Y60779280D01*
X37768353Y60731661D01*
X37815972Y60636423D01*
X37815972Y60493566D01*
X37768353Y60398328D01*
X37720734Y60350709D01*
X37625496Y60303090D01*
X37244543Y60303090D01*
X38435019Y60826899D02*
X38625496Y60826899D01*
X38720734Y60779280D01*
X38815972Y60684042D01*
X38863591Y60493566D01*
X38863591Y60160232D01*
X38815972Y59969756D01*
X38720734Y59874518D01*
X38625496Y59826899D01*
X38435019Y59826899D01*
X38339781Y59874518D01*
X38244543Y59969756D01*
X38196924Y60160232D01*
X38196924Y60493566D01*
X38244543Y60684042D01*
X38339781Y60779280D01*
X38435019Y60826899D01*
X39149305Y60826899D02*
X39720734Y60826899D01*
X39435019Y59826899D02*
X39435019Y60826899D01*
X40530258Y60826899D02*
X40054067Y60826899D01*
X40006448Y60350709D01*
X40054067Y60398328D01*
X40149305Y60445947D01*
X40387401Y60445947D01*
X40482639Y60398328D01*
X40530258Y60350709D01*
X40577877Y60255470D01*
X40577877Y60017375D01*
X40530258Y59922137D01*
X40482639Y59874518D01*
X40387401Y59826899D01*
X40149305Y59826899D01*
X40054067Y59874518D01*
X40006448Y59922137D01*
X37188663Y67838059D02*
X37188663Y68838059D01*
X37569616Y68838059D01*
X37664854Y68790440D01*
X37712473Y68742821D01*
X37760092Y68647583D01*
X37760092Y68504726D01*
X37712473Y68409488D01*
X37664854Y68361869D01*
X37569616Y68314250D01*
X37188663Y68314250D01*
X38379139Y68838059D02*
X38569616Y68838059D01*
X38664854Y68790440D01*
X38760092Y68695202D01*
X38807711Y68504726D01*
X38807711Y68171392D01*
X38760092Y67980916D01*
X38664854Y67885678D01*
X38569616Y67838059D01*
X38379139Y67838059D01*
X38283901Y67885678D01*
X38188663Y67980916D01*
X38141044Y68171392D01*
X38141044Y68504726D01*
X38188663Y68695202D01*
X38283901Y68790440D01*
X38379139Y68838059D01*
X39093425Y68838059D02*
X39664854Y68838059D01*
X39379139Y67838059D02*
X39379139Y68838059D01*
X40426759Y68838059D02*
X40236282Y68838059D01*
X40141044Y68790440D01*
X40093425Y68742821D01*
X39998187Y68599964D01*
X39950568Y68409488D01*
X39950568Y68028535D01*
X39998187Y67933297D01*
X40045806Y67885678D01*
X40141044Y67838059D01*
X40331521Y67838059D01*
X40426759Y67885678D01*
X40474378Y67933297D01*
X40521997Y68028535D01*
X40521997Y68266630D01*
X40474378Y68361869D01*
X40426759Y68409488D01*
X40331521Y68457107D01*
X40141044Y68457107D01*
X40045806Y68409488D01*
X39998187Y68361869D01*
X39950568Y68266630D01*
X59383183Y67716139D02*
X59383183Y68716139D01*
X59764136Y68716139D01*
X59859374Y68668520D01*
X59906993Y68620901D01*
X59954612Y68525663D01*
X59954612Y68382806D01*
X59906993Y68287568D01*
X59859374Y68239949D01*
X59764136Y68192330D01*
X59383183Y68192330D01*
X60573659Y68716139D02*
X60764136Y68716139D01*
X60859374Y68668520D01*
X60954612Y68573282D01*
X61002231Y68382806D01*
X61002231Y68049472D01*
X60954612Y67858996D01*
X60859374Y67763758D01*
X60764136Y67716139D01*
X60573659Y67716139D01*
X60478421Y67763758D01*
X60383183Y67858996D01*
X60335564Y68049472D01*
X60335564Y68382806D01*
X60383183Y68573282D01*
X60478421Y68668520D01*
X60573659Y68716139D01*
X61287945Y68716139D02*
X61859374Y68716139D01*
X61573659Y67716139D02*
X61573659Y68716139D01*
X62097469Y68716139D02*
X62764136Y68716139D01*
X62335564Y67716139D01*
X59403503Y59898019D02*
X59403503Y60898019D01*
X59784456Y60898019D01*
X59879694Y60850400D01*
X59927313Y60802781D01*
X59974932Y60707543D01*
X59974932Y60564686D01*
X59927313Y60469448D01*
X59879694Y60421829D01*
X59784456Y60374210D01*
X59403503Y60374210D01*
X60593979Y60898019D02*
X60784456Y60898019D01*
X60879694Y60850400D01*
X60974932Y60755162D01*
X61022551Y60564686D01*
X61022551Y60231352D01*
X60974932Y60040876D01*
X60879694Y59945638D01*
X60784456Y59898019D01*
X60593979Y59898019D01*
X60498741Y59945638D01*
X60403503Y60040876D01*
X60355884Y60231352D01*
X60355884Y60564686D01*
X60403503Y60755162D01*
X60498741Y60850400D01*
X60593979Y60898019D01*
X61308265Y60898019D02*
X61879694Y60898019D01*
X61593979Y59898019D02*
X61593979Y60898019D01*
X62355884Y60469448D02*
X62260646Y60517067D01*
X62213027Y60564686D01*
X62165408Y60659924D01*
X62165408Y60707543D01*
X62213027Y60802781D01*
X62260646Y60850400D01*
X62355884Y60898019D01*
X62546361Y60898019D01*
X62641599Y60850400D01*
X62689218Y60802781D01*
X62736837Y60707543D01*
X62736837Y60659924D01*
X62689218Y60564686D01*
X62641599Y60517067D01*
X62546361Y60469448D01*
X62355884Y60469448D01*
X62260646Y60421829D01*
X62213027Y60374210D01*
X62165408Y60278971D01*
X62165408Y60088495D01*
X62213027Y59993257D01*
X62260646Y59945638D01*
X62355884Y59898019D01*
X62546361Y59898019D01*
X62641599Y59945638D01*
X62689218Y59993257D01*
X62736837Y60088495D01*
X62736837Y60278971D01*
X62689218Y60374210D01*
X62641599Y60421829D01*
X62546361Y60469448D01*
X59454303Y52166259D02*
X59454303Y53166259D01*
X59835256Y53166259D01*
X59930494Y53118640D01*
X59978113Y53071021D01*
X60025732Y52975783D01*
X60025732Y52832926D01*
X59978113Y52737688D01*
X59930494Y52690069D01*
X59835256Y52642450D01*
X59454303Y52642450D01*
X60644779Y53166259D02*
X60835256Y53166259D01*
X60930494Y53118640D01*
X61025732Y53023402D01*
X61073351Y52832926D01*
X61073351Y52499592D01*
X61025732Y52309116D01*
X60930494Y52213878D01*
X60835256Y52166259D01*
X60644779Y52166259D01*
X60549541Y52213878D01*
X60454303Y52309116D01*
X60406684Y52499592D01*
X60406684Y52832926D01*
X60454303Y53023402D01*
X60549541Y53118640D01*
X60644779Y53166259D01*
X61359065Y53166259D02*
X61930494Y53166259D01*
X61644779Y52166259D02*
X61644779Y53166259D01*
X62311446Y52166259D02*
X62501922Y52166259D01*
X62597161Y52213878D01*
X62644780Y52261497D01*
X62740018Y52404354D01*
X62787637Y52594830D01*
X62787637Y52975783D01*
X62740018Y53071021D01*
X62692399Y53118640D01*
X62597161Y53166259D01*
X62406684Y53166259D01*
X62311446Y53118640D01*
X62263827Y53071021D01*
X62216208Y52975783D01*
X62216208Y52737688D01*
X62263827Y52642450D01*
X62311446Y52594830D01*
X62406684Y52547211D01*
X62597161Y52547211D01*
X62692399Y52594830D01*
X62740018Y52642450D01*
X62787637Y52737688D01*
X59618907Y44326373D02*
X59618907Y45026373D01*
X59885573Y45026373D01*
X59952240Y44993040D01*
X59985573Y44959707D01*
X60018907Y44893040D01*
X60018907Y44793040D01*
X59985573Y44726373D01*
X59952240Y44693040D01*
X59885573Y44659707D01*
X59618907Y44659707D01*
X60452240Y45026373D02*
X60585573Y45026373D01*
X60652240Y44993040D01*
X60718907Y44926373D01*
X60752240Y44793040D01*
X60752240Y44559707D01*
X60718907Y44426373D01*
X60652240Y44359707D01*
X60585573Y44326373D01*
X60452240Y44326373D01*
X60385573Y44359707D01*
X60318907Y44426373D01*
X60285573Y44559707D01*
X60285573Y44793040D01*
X60318907Y44926373D01*
X60385573Y44993040D01*
X60452240Y45026373D01*
X60952240Y45026373D02*
X61352240Y45026373D01*
X61152240Y44326373D02*
X61152240Y45026373D01*
X61952239Y44326373D02*
X61552239Y44326373D01*
X61752239Y44326373D02*
X61752239Y45026373D01*
X61685573Y44926373D01*
X61618906Y44859707D01*
X61552239Y44826373D01*
X62385573Y45026373D02*
X62452240Y45026373D01*
X62518906Y44993040D01*
X62552240Y44959707D01*
X62585573Y44893040D01*
X62618906Y44759707D01*
X62618906Y44593040D01*
X62585573Y44459707D01*
X62552240Y44393040D01*
X62518906Y44359707D01*
X62452240Y44326373D01*
X62385573Y44326373D01*
X62318906Y44359707D01*
X62285573Y44393040D01*
X62252240Y44459707D01*
X62218906Y44593040D01*
X62218906Y44759707D01*
X62252240Y44893040D01*
X62285573Y44959707D01*
X62318906Y44993040D01*
X62385573Y45026373D01*
X59708267Y36594093D02*
X59708267Y37294093D01*
X59974933Y37294093D01*
X60041600Y37260760D01*
X60074933Y37227427D01*
X60108267Y37160760D01*
X60108267Y37060760D01*
X60074933Y36994093D01*
X60041600Y36960760D01*
X59974933Y36927427D01*
X59708267Y36927427D01*
X60541600Y37294093D02*
X60674933Y37294093D01*
X60741600Y37260760D01*
X60808267Y37194093D01*
X60841600Y37060760D01*
X60841600Y36827427D01*
X60808267Y36694093D01*
X60741600Y36627427D01*
X60674933Y36594093D01*
X60541600Y36594093D01*
X60474933Y36627427D01*
X60408267Y36694093D01*
X60374933Y36827427D01*
X60374933Y37060760D01*
X60408267Y37194093D01*
X60474933Y37260760D01*
X60541600Y37294093D01*
X61041600Y37294093D02*
X61441600Y37294093D01*
X61241600Y36594093D02*
X61241600Y37294093D01*
X62041599Y36594093D02*
X61641599Y36594093D01*
X61841599Y36594093D02*
X61841599Y37294093D01*
X61774933Y37194093D01*
X61708266Y37127427D01*
X61641599Y37094093D01*
X62708266Y36594093D02*
X62308266Y36594093D01*
X62508266Y36594093D02*
X62508266Y37294093D01*
X62441600Y37194093D01*
X62374933Y37127427D01*
X62308266Y37094093D01*
X59634147Y28558053D02*
X59634147Y29258053D01*
X59900813Y29258053D01*
X59967480Y29224720D01*
X60000813Y29191387D01*
X60034147Y29124720D01*
X60034147Y29024720D01*
X60000813Y28958053D01*
X59967480Y28924720D01*
X59900813Y28891387D01*
X59634147Y28891387D01*
X60467480Y29258053D02*
X60600813Y29258053D01*
X60667480Y29224720D01*
X60734147Y29158053D01*
X60767480Y29024720D01*
X60767480Y28791387D01*
X60734147Y28658053D01*
X60667480Y28591387D01*
X60600813Y28558053D01*
X60467480Y28558053D01*
X60400813Y28591387D01*
X60334147Y28658053D01*
X60300813Y28791387D01*
X60300813Y29024720D01*
X60334147Y29158053D01*
X60400813Y29224720D01*
X60467480Y29258053D01*
X60967480Y29258053D02*
X61367480Y29258053D01*
X61167480Y28558053D02*
X61167480Y29258053D01*
X61967479Y28558053D02*
X61567479Y28558053D01*
X61767479Y28558053D02*
X61767479Y29258053D01*
X61700813Y29158053D01*
X61634146Y29091387D01*
X61567479Y29058053D01*
X62234146Y29191387D02*
X62267480Y29224720D01*
X62334146Y29258053D01*
X62500813Y29258053D01*
X62567480Y29224720D01*
X62600813Y29191387D01*
X62634146Y29124720D01*
X62634146Y29058053D01*
X62600813Y28958053D01*
X62200813Y28558053D01*
X62634146Y28558053D01*
D15*
X8481547Y89227530D02*
X8314880Y89465625D01*
X8195833Y89227530D02*
X8195833Y89727530D01*
X8386309Y89727530D01*
X8433928Y89703720D01*
X8457737Y89679910D01*
X8481547Y89632291D01*
X8481547Y89560863D01*
X8457737Y89513244D01*
X8433928Y89489434D01*
X8386309Y89465625D01*
X8195833Y89465625D01*
X8957737Y89227530D02*
X8672023Y89227530D01*
X8814880Y89227530D02*
X8814880Y89727530D01*
X8767261Y89656101D01*
X8719642Y89608482D01*
X8672023Y89584672D01*
X39149150Y32306747D02*
X38911055Y32140080D01*
X39149150Y32021033D02*
X38649150Y32021033D01*
X38649150Y32211509D01*
X38672960Y32259128D01*
X38696770Y32282937D01*
X38744389Y32306747D01*
X38815817Y32306747D01*
X38863436Y32282937D01*
X38887246Y32259128D01*
X38911055Y32211509D01*
X38911055Y32021033D01*
X38696770Y32497223D02*
X38672960Y32521033D01*
X38649150Y32568652D01*
X38649150Y32687699D01*
X38672960Y32735318D01*
X38696770Y32759128D01*
X38744389Y32782937D01*
X38792008Y32782937D01*
X38863436Y32759128D01*
X39149150Y32473414D01*
X39149150Y32782937D01*
X39093270Y40201067D02*
X38855175Y40034400D01*
X39093270Y39915353D02*
X38593270Y39915353D01*
X38593270Y40105829D01*
X38617080Y40153448D01*
X38640890Y40177257D01*
X38688509Y40201067D01*
X38759937Y40201067D01*
X38807556Y40177257D01*
X38831366Y40153448D01*
X38855175Y40105829D01*
X38855175Y39915353D01*
X38593270Y40367734D02*
X38593270Y40677257D01*
X38783747Y40510591D01*
X38783747Y40582019D01*
X38807556Y40629638D01*
X38831366Y40653448D01*
X38878985Y40677257D01*
X38998032Y40677257D01*
X39045651Y40653448D01*
X39069461Y40629638D01*
X39093270Y40582019D01*
X39093270Y40439162D01*
X39069461Y40391543D01*
X39045651Y40367734D01*
X24966147Y93570930D02*
X24799480Y93809025D01*
X24680433Y93570930D02*
X24680433Y94070930D01*
X24870909Y94070930D01*
X24918528Y94047120D01*
X24942337Y94023310D01*
X24966147Y93975691D01*
X24966147Y93904263D01*
X24942337Y93856644D01*
X24918528Y93832834D01*
X24870909Y93809025D01*
X24680433Y93809025D01*
X25394718Y93904263D02*
X25394718Y93570930D01*
X25275671Y94094739D02*
X25156623Y93737596D01*
X25466147Y93737596D01*
X39042470Y48054747D02*
X38804375Y47888080D01*
X39042470Y47769033D02*
X38542470Y47769033D01*
X38542470Y47959509D01*
X38566280Y48007128D01*
X38590090Y48030937D01*
X38637709Y48054747D01*
X38709137Y48054747D01*
X38756756Y48030937D01*
X38780566Y48007128D01*
X38804375Y47959509D01*
X38804375Y47769033D01*
X38542470Y48507128D02*
X38542470Y48269033D01*
X38780566Y48245223D01*
X38756756Y48269033D01*
X38732947Y48316652D01*
X38732947Y48435699D01*
X38756756Y48483318D01*
X38780566Y48507128D01*
X38828185Y48530937D01*
X38947232Y48530937D01*
X38994851Y48507128D01*
X39018661Y48483318D01*
X39042470Y48435699D01*
X39042470Y48316652D01*
X39018661Y48269033D01*
X38994851Y48245223D01*
X39037390Y55949067D02*
X38799295Y55782400D01*
X39037390Y55663353D02*
X38537390Y55663353D01*
X38537390Y55853829D01*
X38561200Y55901448D01*
X38585010Y55925257D01*
X38632629Y55949067D01*
X38704057Y55949067D01*
X38751676Y55925257D01*
X38775486Y55901448D01*
X38799295Y55853829D01*
X38799295Y55663353D01*
X38537390Y56377638D02*
X38537390Y56282400D01*
X38561200Y56234781D01*
X38585010Y56210972D01*
X38656438Y56163353D01*
X38751676Y56139543D01*
X38942152Y56139543D01*
X38989771Y56163353D01*
X39013581Y56187162D01*
X39037390Y56234781D01*
X39037390Y56330019D01*
X39013581Y56377638D01*
X38989771Y56401448D01*
X38942152Y56425257D01*
X38823105Y56425257D01*
X38775486Y56401448D01*
X38751676Y56377638D01*
X38727867Y56330019D01*
X38727867Y56234781D01*
X38751676Y56187162D01*
X38775486Y56163353D01*
X38823105Y56139543D01*
X41587907Y94952690D02*
X41421240Y95190785D01*
X41302193Y94952690D02*
X41302193Y95452690D01*
X41492669Y95452690D01*
X41540288Y95428880D01*
X41564097Y95405070D01*
X41587907Y95357451D01*
X41587907Y95286023D01*
X41564097Y95238404D01*
X41540288Y95214594D01*
X41492669Y95190785D01*
X41302193Y95190785D01*
X41754574Y95452690D02*
X42087907Y95452690D01*
X41873621Y94952690D01*
X39128830Y63792587D02*
X38890735Y63625920D01*
X39128830Y63506873D02*
X38628830Y63506873D01*
X38628830Y63697349D01*
X38652640Y63744968D01*
X38676450Y63768777D01*
X38724069Y63792587D01*
X38795497Y63792587D01*
X38843116Y63768777D01*
X38866926Y63744968D01*
X38890735Y63697349D01*
X38890735Y63506873D01*
X38843116Y64078301D02*
X38819307Y64030682D01*
X38795497Y64006873D01*
X38747878Y63983063D01*
X38724069Y63983063D01*
X38676450Y64006873D01*
X38652640Y64030682D01*
X38628830Y64078301D01*
X38628830Y64173539D01*
X38652640Y64221158D01*
X38676450Y64244968D01*
X38724069Y64268777D01*
X38747878Y64268777D01*
X38795497Y64244968D01*
X38819307Y64221158D01*
X38843116Y64173539D01*
X38843116Y64078301D01*
X38866926Y64030682D01*
X38890735Y64006873D01*
X38938354Y63983063D01*
X39033592Y63983063D01*
X39081211Y64006873D01*
X39105021Y64030682D01*
X39128830Y64078301D01*
X39128830Y64173539D01*
X39105021Y64221158D01*
X39081211Y64244968D01*
X39033592Y64268777D01*
X38938354Y64268777D01*
X38890735Y64244968D01*
X38866926Y64221158D01*
X38843116Y64173539D01*
X39103430Y71717387D02*
X38865335Y71550720D01*
X39103430Y71431673D02*
X38603430Y71431673D01*
X38603430Y71622149D01*
X38627240Y71669768D01*
X38651050Y71693577D01*
X38698669Y71717387D01*
X38770097Y71717387D01*
X38817716Y71693577D01*
X38841526Y71669768D01*
X38865335Y71622149D01*
X38865335Y71431673D01*
X39103430Y71955482D02*
X39103430Y72050720D01*
X39079621Y72098339D01*
X39055811Y72122149D01*
X38984383Y72169768D01*
X38889145Y72193577D01*
X38698669Y72193577D01*
X38651050Y72169768D01*
X38627240Y72145958D01*
X38603430Y72098339D01*
X38603430Y72003101D01*
X38627240Y71955482D01*
X38651050Y71931673D01*
X38698669Y71907863D01*
X38817716Y71907863D01*
X38865335Y71931673D01*
X38889145Y71955482D01*
X38912954Y72003101D01*
X38912954Y72098339D01*
X38889145Y72145958D01*
X38865335Y72169768D01*
X38817716Y72193577D01*
X57951252Y94998410D02*
X57784585Y95236505D01*
X57665538Y94998410D02*
X57665538Y95498410D01*
X57856014Y95498410D01*
X57903633Y95474600D01*
X57927442Y95450790D01*
X57951252Y95403171D01*
X57951252Y95331743D01*
X57927442Y95284124D01*
X57903633Y95260314D01*
X57856014Y95236505D01*
X57665538Y95236505D01*
X58427442Y94998410D02*
X58141728Y94998410D01*
X58284585Y94998410D02*
X58284585Y95498410D01*
X58236966Y95426981D01*
X58189347Y95379362D01*
X58141728Y95355552D01*
X58736966Y95498410D02*
X58784585Y95498410D01*
X58832204Y95474600D01*
X58856013Y95450790D01*
X58879823Y95403171D01*
X58903632Y95307933D01*
X58903632Y95188886D01*
X58879823Y95093648D01*
X58856013Y95046029D01*
X58832204Y95022219D01*
X58784585Y94998410D01*
X58736966Y94998410D01*
X58689347Y95022219D01*
X58665537Y95046029D01*
X58641728Y95093648D01*
X58617918Y95188886D01*
X58617918Y95307933D01*
X58641728Y95403171D01*
X58665537Y95450790D01*
X58689347Y95474600D01*
X58736966Y95498410D01*
X61348750Y71479292D02*
X61110655Y71312625D01*
X61348750Y71193578D02*
X60848750Y71193578D01*
X60848750Y71384054D01*
X60872560Y71431673D01*
X60896370Y71455482D01*
X60943989Y71479292D01*
X61015417Y71479292D01*
X61063036Y71455482D01*
X61086846Y71431673D01*
X61110655Y71384054D01*
X61110655Y71193578D01*
X61348750Y71955482D02*
X61348750Y71669768D01*
X61348750Y71812625D02*
X60848750Y71812625D01*
X60920179Y71765006D01*
X60967798Y71717387D01*
X60991608Y71669768D01*
X61348750Y72431672D02*
X61348750Y72145958D01*
X61348750Y72288815D02*
X60848750Y72288815D01*
X60920179Y72241196D01*
X60967798Y72193577D01*
X60991608Y72145958D01*
X61318270Y63559572D02*
X61080175Y63392905D01*
X61318270Y63273858D02*
X60818270Y63273858D01*
X60818270Y63464334D01*
X60842080Y63511953D01*
X60865890Y63535762D01*
X60913509Y63559572D01*
X60984937Y63559572D01*
X61032556Y63535762D01*
X61056366Y63511953D01*
X61080175Y63464334D01*
X61080175Y63273858D01*
X61318270Y64035762D02*
X61318270Y63750048D01*
X61318270Y63892905D02*
X60818270Y63892905D01*
X60889699Y63845286D01*
X60937318Y63797667D01*
X60961128Y63750048D01*
X60865890Y64226238D02*
X60842080Y64250048D01*
X60818270Y64297667D01*
X60818270Y64416714D01*
X60842080Y64464333D01*
X60865890Y64488143D01*
X60913509Y64511952D01*
X60961128Y64511952D01*
X61032556Y64488143D01*
X61318270Y64202429D01*
X61318270Y64511952D01*
X74425692Y93316930D02*
X74259025Y93555025D01*
X74139978Y93316930D02*
X74139978Y93816930D01*
X74330454Y93816930D01*
X74378073Y93793120D01*
X74401882Y93769310D01*
X74425692Y93721691D01*
X74425692Y93650263D01*
X74401882Y93602644D01*
X74378073Y93578834D01*
X74330454Y93555025D01*
X74139978Y93555025D01*
X74901882Y93316930D02*
X74616168Y93316930D01*
X74759025Y93316930D02*
X74759025Y93816930D01*
X74711406Y93745501D01*
X74663787Y93697882D01*
X74616168Y93674072D01*
X75330453Y93650263D02*
X75330453Y93316930D01*
X75211406Y93840739D02*
X75092358Y93483596D01*
X75401882Y93483596D01*
X61338590Y55766852D02*
X61100495Y55600185D01*
X61338590Y55481138D02*
X60838590Y55481138D01*
X60838590Y55671614D01*
X60862400Y55719233D01*
X60886210Y55743042D01*
X60933829Y55766852D01*
X61005257Y55766852D01*
X61052876Y55743042D01*
X61076686Y55719233D01*
X61100495Y55671614D01*
X61100495Y55481138D01*
X61338590Y56243042D02*
X61338590Y55957328D01*
X61338590Y56100185D02*
X60838590Y56100185D01*
X60910019Y56052566D01*
X60957638Y56004947D01*
X60981448Y55957328D01*
X60838590Y56695423D02*
X60838590Y56457328D01*
X61076686Y56433518D01*
X61052876Y56457328D01*
X61029067Y56504947D01*
X61029067Y56623994D01*
X61052876Y56671613D01*
X61076686Y56695423D01*
X61124305Y56719232D01*
X61243352Y56719232D01*
X61290971Y56695423D01*
X61314781Y56671613D01*
X61338590Y56623994D01*
X61338590Y56504947D01*
X61314781Y56457328D01*
X61290971Y56433518D01*
X61328430Y47801412D02*
X61090335Y47634745D01*
X61328430Y47515698D02*
X60828430Y47515698D01*
X60828430Y47706174D01*
X60852240Y47753793D01*
X60876050Y47777602D01*
X60923669Y47801412D01*
X60995097Y47801412D01*
X61042716Y47777602D01*
X61066526Y47753793D01*
X61090335Y47706174D01*
X61090335Y47515698D01*
X61328430Y48277602D02*
X61328430Y47991888D01*
X61328430Y48134745D02*
X60828430Y48134745D01*
X60899859Y48087126D01*
X60947478Y48039507D01*
X60971288Y47991888D01*
X60828430Y48706173D02*
X60828430Y48610935D01*
X60852240Y48563316D01*
X60876050Y48539507D01*
X60947478Y48491888D01*
X61042716Y48468078D01*
X61233192Y48468078D01*
X61280811Y48491888D01*
X61304621Y48515697D01*
X61328430Y48563316D01*
X61328430Y48658554D01*
X61304621Y48706173D01*
X61280811Y48729983D01*
X61233192Y48753792D01*
X61114145Y48753792D01*
X61066526Y48729983D01*
X61042716Y48706173D01*
X61018907Y48658554D01*
X61018907Y48563316D01*
X61042716Y48515697D01*
X61066526Y48491888D01*
X61114145Y48468078D01*
X90905212Y89217370D02*
X90738545Y89455465D01*
X90619498Y89217370D02*
X90619498Y89717370D01*
X90809974Y89717370D01*
X90857593Y89693560D01*
X90881402Y89669750D01*
X90905212Y89622131D01*
X90905212Y89550703D01*
X90881402Y89503084D01*
X90857593Y89479274D01*
X90809974Y89455465D01*
X90619498Y89455465D01*
X91381402Y89217370D02*
X91095688Y89217370D01*
X91238545Y89217370D02*
X91238545Y89717370D01*
X91190926Y89645941D01*
X91143307Y89598322D01*
X91095688Y89574512D01*
X91548069Y89717370D02*
X91881402Y89717370D01*
X91667116Y89217370D01*
X61384310Y39957892D02*
X61146215Y39791225D01*
X61384310Y39672178D02*
X60884310Y39672178D01*
X60884310Y39862654D01*
X60908120Y39910273D01*
X60931930Y39934082D01*
X60979549Y39957892D01*
X61050977Y39957892D01*
X61098596Y39934082D01*
X61122406Y39910273D01*
X61146215Y39862654D01*
X61146215Y39672178D01*
X61384310Y40434082D02*
X61384310Y40148368D01*
X61384310Y40291225D02*
X60884310Y40291225D01*
X60955739Y40243606D01*
X61003358Y40195987D01*
X61027168Y40148368D01*
X61098596Y40719796D02*
X61074787Y40672177D01*
X61050977Y40648368D01*
X61003358Y40624558D01*
X60979549Y40624558D01*
X60931930Y40648368D01*
X60908120Y40672177D01*
X60884310Y40719796D01*
X60884310Y40815034D01*
X60908120Y40862653D01*
X60931930Y40886463D01*
X60979549Y40910272D01*
X61003358Y40910272D01*
X61050977Y40886463D01*
X61074787Y40862653D01*
X61098596Y40815034D01*
X61098596Y40719796D01*
X61122406Y40672177D01*
X61146215Y40648368D01*
X61193834Y40624558D01*
X61289072Y40624558D01*
X61336691Y40648368D01*
X61360501Y40672177D01*
X61384310Y40719796D01*
X61384310Y40815034D01*
X61360501Y40862653D01*
X61336691Y40886463D01*
X61289072Y40910272D01*
X61193834Y40910272D01*
X61146215Y40886463D01*
X61122406Y40862653D01*
X61098596Y40815034D01*
X61353830Y32078812D02*
X61115735Y31912145D01*
X61353830Y31793098D02*
X60853830Y31793098D01*
X60853830Y31983574D01*
X60877640Y32031193D01*
X60901450Y32055002D01*
X60949069Y32078812D01*
X61020497Y32078812D01*
X61068116Y32055002D01*
X61091926Y32031193D01*
X61115735Y31983574D01*
X61115735Y31793098D01*
X61353830Y32555002D02*
X61353830Y32269288D01*
X61353830Y32412145D02*
X60853830Y32412145D01*
X60925259Y32364526D01*
X60972878Y32316907D01*
X60996688Y32269288D01*
X61353830Y32793097D02*
X61353830Y32888335D01*
X61330021Y32935954D01*
X61306211Y32959764D01*
X61234783Y33007383D01*
X61139545Y33031192D01*
X60949069Y33031192D01*
X60901450Y33007383D01*
X60877640Y32983573D01*
X60853830Y32935954D01*
X60853830Y32840716D01*
X60877640Y32793097D01*
X60901450Y32769288D01*
X60949069Y32745478D01*
X61068116Y32745478D01*
X61115735Y32769288D01*
X61139545Y32793097D01*
X61163354Y32840716D01*
X61163354Y32935954D01*
X61139545Y32983573D01*
X61115735Y33007383D01*
X61068116Y33031192D01*
D13*
X49597987Y20191979D02*
X49597987Y19477693D01*
X49550367Y19334836D01*
X49455129Y19239598D01*
X49312272Y19191979D01*
X49217034Y19191979D01*
X50502749Y19858646D02*
X50502749Y19191979D01*
X50264653Y20239598D02*
X50026558Y19525312D01*
X50645606Y19525312D01*
D15*
X46941172Y12900530D02*
X46941172Y13400530D01*
X47107838Y13043387D01*
X47274505Y13400530D01*
X47274505Y12900530D01*
X47512601Y13400530D02*
X47512601Y12995768D01*
X47536410Y12948149D01*
X47560220Y12924339D01*
X47607839Y12900530D01*
X47703077Y12900530D01*
X47750696Y12924339D01*
X47774505Y12948149D01*
X47798315Y12995768D01*
X47798315Y13400530D01*
X48274506Y12900530D02*
X48036411Y12900530D01*
X48036411Y13400530D01*
X48369744Y13400530D02*
X48655458Y13400530D01*
X48512601Y12900530D02*
X48512601Y13400530D01*
X48822125Y12900530D02*
X48822125Y13400530D01*
X49060220Y12900530D02*
X49060220Y13400530D01*
X49250696Y13400530D01*
X49298315Y13376720D01*
X49322124Y13352910D01*
X49345934Y13305291D01*
X49345934Y13233863D01*
X49322124Y13186244D01*
X49298315Y13162434D01*
X49250696Y13138625D01*
X49060220Y13138625D01*
X49798315Y12900530D02*
X49560220Y12900530D01*
X49560220Y13400530D01*
X49964982Y13162434D02*
X50131648Y13162434D01*
X50203077Y12900530D02*
X49964982Y12900530D01*
X49964982Y13400530D01*
X50203077Y13400530D01*
X50369744Y13400530D02*
X50703077Y12900530D01*
X50703077Y13400530D02*
X50369744Y12900530D01*
X50869743Y13043387D02*
X51107838Y13043387D01*
X50822124Y12900530D02*
X50988791Y13400530D01*
X51155457Y12900530D01*
X51322124Y12900530D02*
X51322124Y13400530D01*
X51441171Y13400530D01*
X51512600Y13376720D01*
X51560219Y13329101D01*
X51584028Y13281482D01*
X51607838Y13186244D01*
X51607838Y13114815D01*
X51584028Y13019577D01*
X51560219Y12971958D01*
X51512600Y12924339D01*
X51441171Y12900530D01*
X51322124Y12900530D01*
X51917362Y13400530D02*
X52012600Y13400530D01*
X52060219Y13376720D01*
X52107838Y13329101D01*
X52131647Y13233863D01*
X52131647Y13067196D01*
X52107838Y12971958D01*
X52060219Y12924339D01*
X52012600Y12900530D01*
X51917362Y12900530D01*
X51869743Y12924339D01*
X51822124Y12971958D01*
X51798314Y13067196D01*
X51798314Y13233863D01*
X51822124Y13329101D01*
X51869743Y13376720D01*
X51917362Y13400530D01*
X52631648Y12900530D02*
X52464981Y13138625D01*
X52345934Y12900530D02*
X52345934Y13400530D01*
X52536410Y13400530D01*
X52584029Y13376720D01*
X52607838Y13352910D01*
X52631648Y13305291D01*
X52631648Y13233863D01*
X52607838Y13186244D01*
X52584029Y13162434D01*
X52536410Y13138625D01*
X52345934Y13138625D01*
X53107838Y12900530D02*
X52822124Y12900530D01*
X52964981Y12900530D02*
X52964981Y13400530D01*
X52917362Y13329101D01*
X52869743Y13281482D01*
X52822124Y13257672D01*
X49929421Y88519510D02*
X49881802Y88543320D01*
X49834183Y88590939D01*
X49762754Y88662368D01*
X49715135Y88686177D01*
X49667516Y88686177D01*
X49691326Y88567130D02*
X49643707Y88590939D01*
X49596088Y88638558D01*
X49572278Y88733796D01*
X49572278Y88900463D01*
X49596088Y88995701D01*
X49643707Y89043320D01*
X49691326Y89067130D01*
X49786564Y89067130D01*
X49834183Y89043320D01*
X49881802Y88995701D01*
X49905611Y88900463D01*
X49905611Y88733796D01*
X49881802Y88638558D01*
X49834183Y88590939D01*
X49786564Y88567130D01*
X49691326Y88567130D01*
X50381802Y88567130D02*
X50096088Y88567130D01*
X50238945Y88567130D02*
X50238945Y89067130D01*
X50191326Y88995701D01*
X50143707Y88948082D01*
X50096088Y88924272D01*
X50193070Y85606772D02*
X49954975Y85440105D01*
X50193070Y85321058D02*
X49693070Y85321058D01*
X49693070Y85511534D01*
X49716880Y85559153D01*
X49740690Y85582962D01*
X49788309Y85606772D01*
X49859737Y85606772D01*
X49907356Y85582962D01*
X49931166Y85559153D01*
X49954975Y85511534D01*
X49954975Y85321058D01*
X49740690Y85797248D02*
X49716880Y85821058D01*
X49693070Y85868677D01*
X49693070Y85987724D01*
X49716880Y86035343D01*
X49740690Y86059153D01*
X49788309Y86082962D01*
X49835928Y86082962D01*
X49907356Y86059153D01*
X50193070Y85773439D01*
X50193070Y86082962D01*
X49693070Y86392486D02*
X49693070Y86440105D01*
X49716880Y86487724D01*
X49740690Y86511533D01*
X49788309Y86535343D01*
X49883547Y86559152D01*
X50002594Y86559152D01*
X50097832Y86535343D01*
X50145451Y86511533D01*
X50169261Y86487724D01*
X50193070Y86440105D01*
X50193070Y86392486D01*
X50169261Y86344867D01*
X50145451Y86321057D01*
X50097832Y86297248D01*
X50002594Y86273438D01*
X49883547Y86273438D01*
X49788309Y86297248D01*
X49740690Y86321057D01*
X49716880Y86344867D01*
X49693070Y86392486D01*
D13*
X59294402Y20391038D02*
X59437259Y20343419D01*
X59675355Y20343419D01*
X59770593Y20391038D01*
X59818212Y20438657D01*
X59865831Y20533895D01*
X59865831Y20629133D01*
X59818212Y20724371D01*
X59770593Y20771990D01*
X59675355Y20819610D01*
X59484878Y20867229D01*
X59389640Y20914848D01*
X59342021Y20962467D01*
X59294402Y21057705D01*
X59294402Y21152943D01*
X59342021Y21248181D01*
X59389640Y21295800D01*
X59484878Y21343419D01*
X59722974Y21343419D01*
X59865831Y21295800D01*
X60056307Y20248181D02*
X60818212Y20248181D01*
X61056307Y20343419D02*
X61056307Y21343419D01*
X61294402Y21343419D01*
X61437260Y21295800D01*
X61532498Y21200562D01*
X61580117Y21105324D01*
X61627736Y20914848D01*
X61627736Y20771990D01*
X61580117Y20581514D01*
X61532498Y20486276D01*
X61437260Y20391038D01*
X61294402Y20343419D01*
X61056307Y20343419D01*
X62056307Y20867229D02*
X62389641Y20867229D01*
X62532498Y20343419D02*
X62056307Y20343419D01*
X62056307Y21343419D01*
X62532498Y21343419D01*
X63532498Y20343419D02*
X63199164Y20819610D01*
X62961069Y20343419D02*
X62961069Y21343419D01*
X63342022Y21343419D01*
X63437260Y21295800D01*
X63484879Y21248181D01*
X63532498Y21152943D01*
X63532498Y21010086D01*
X63484879Y20914848D01*
X63437260Y20867229D01*
X63342022Y20819610D01*
X62961069Y20819610D01*
X64484879Y20343419D02*
X63913450Y20343419D01*
X64199164Y20343419D02*
X64199164Y21343419D01*
X64103926Y21200562D01*
X64008688Y21105324D01*
X63913450Y21057705D01*
X35632688Y20330078D02*
X35775545Y20282459D01*
X36013641Y20282459D01*
X36108879Y20330078D01*
X36156498Y20377697D01*
X36204117Y20472935D01*
X36204117Y20568173D01*
X36156498Y20663411D01*
X36108879Y20711030D01*
X36013641Y20758650D01*
X35823164Y20806269D01*
X35727926Y20853888D01*
X35680307Y20901507D01*
X35632688Y20996745D01*
X35632688Y21091983D01*
X35680307Y21187221D01*
X35727926Y21234840D01*
X35823164Y21282459D01*
X36061260Y21282459D01*
X36204117Y21234840D01*
X36394593Y20187221D02*
X37156498Y20187221D01*
X37394593Y20282459D02*
X37394593Y21282459D01*
X37775545Y21282459D02*
X38442212Y21282459D01*
X37775545Y20282459D01*
X38442212Y20282459D01*
X39489831Y20187221D02*
X39394593Y20234840D01*
X39299355Y20330078D01*
X39156498Y20472935D01*
X39061259Y20520554D01*
X38966021Y20520554D01*
X39013640Y20282459D02*
X38918402Y20330078D01*
X38823164Y20425316D01*
X38775545Y20615792D01*
X38775545Y20949126D01*
X38823164Y21139602D01*
X38918402Y21234840D01*
X39013640Y21282459D01*
X39204117Y21282459D01*
X39299355Y21234840D01*
X39394593Y21139602D01*
X39442212Y20949126D01*
X39442212Y20615792D01*
X39394593Y20425316D01*
X39299355Y20330078D01*
X39204117Y20282459D01*
X39013640Y20282459D01*
X40394593Y20282459D02*
X39823164Y20282459D01*
X40108878Y20282459D02*
X40108878Y21282459D01*
X40013640Y21139602D01*
X39918402Y21044364D01*
X39823164Y20996745D01*
D15*
X4964953Y69242810D02*
X4964953Y69742810D01*
X5084000Y69742810D01*
X5155429Y69719000D01*
X5203048Y69671381D01*
X5226857Y69623762D01*
X5250667Y69528524D01*
X5250667Y69457095D01*
X5226857Y69361857D01*
X5203048Y69314238D01*
X5155429Y69266619D01*
X5084000Y69242810D01*
X4964953Y69242810D01*
X5726857Y69242810D02*
X5441143Y69242810D01*
X5584000Y69242810D02*
X5584000Y69742810D01*
X5536381Y69671381D01*
X5488762Y69623762D01*
X5441143Y69599952D01*
X94515193Y69319010D02*
X94515193Y69819010D01*
X94634240Y69819010D01*
X94705669Y69795200D01*
X94753288Y69747581D01*
X94777097Y69699962D01*
X94800907Y69604724D01*
X94800907Y69533295D01*
X94777097Y69438057D01*
X94753288Y69390438D01*
X94705669Y69342819D01*
X94634240Y69319010D01*
X94515193Y69319010D01*
X94991383Y69771390D02*
X95015193Y69795200D01*
X95062812Y69819010D01*
X95181859Y69819010D01*
X95229478Y69795200D01*
X95253288Y69771390D01*
X95277097Y69723771D01*
X95277097Y69676152D01*
X95253288Y69604724D01*
X94967574Y69319010D01*
X95277097Y69319010D01*
D16*
G36*
X99700065Y76788481D02*
X99319091Y75686872D01*
X97337384Y71941394D01*
X97327843Y71917979D01*
X96708083Y69819939D01*
X96703697Y69798339D01*
X96454777Y67613939D01*
X96454262Y67590811D01*
X96591422Y65604531D01*
X96594464Y65584330D01*
X97249012Y62788546D01*
X97545904Y61127966D01*
X97531488Y60493647D01*
X97211137Y59712187D01*
X94426564Y55950481D01*
X94413428Y55928354D01*
X93046908Y52981954D01*
X93038263Y52956600D01*
X92359068Y49960800D01*
X92384755Y53065190D01*
X93135318Y56153079D01*
X94989492Y60190720D01*
X94999503Y60223766D01*
X95212863Y61564886D01*
X95208324Y61623776D01*
X94771444Y62980136D01*
X94764666Y62996956D01*
X93675152Y65226658D01*
X92954559Y67151601D01*
X92537280Y69293296D01*
X92537280Y71064285D01*
X92955762Y73706268D01*
X93826346Y76358512D01*
X93831839Y76383530D01*
X94004559Y77877050D01*
X93999164Y77930947D01*
X93577524Y79226347D01*
X93548106Y79275272D01*
X92894365Y79952086D01*
X99700065Y76788481D01*
X99700065Y76788481D01*
G37*
X99700065Y76788481D02*
X99319091Y75686872D01*
X97337384Y71941394D01*
X97327843Y71917979D01*
X96708083Y69819939D01*
X96703697Y69798339D01*
X96454777Y67613939D01*
X96454262Y67590811D01*
X96591422Y65604531D01*
X96594464Y65584330D01*
X97249012Y62788546D01*
X97545904Y61127966D01*
X97531488Y60493647D01*
X97211137Y59712187D01*
X94426564Y55950481D01*
X94413428Y55928354D01*
X93046908Y52981954D01*
X93038263Y52956600D01*
X92359068Y49960800D01*
X92384755Y53065190D01*
X93135318Y56153079D01*
X94989492Y60190720D01*
X94999503Y60223766D01*
X95212863Y61564886D01*
X95208324Y61623776D01*
X94771444Y62980136D01*
X94764666Y62996956D01*
X93675152Y65226658D01*
X92954559Y67151601D01*
X92537280Y69293296D01*
X92537280Y71064285D01*
X92955762Y73706268D01*
X93826346Y76358512D01*
X93831839Y76383530D01*
X94004559Y77877050D01*
X93999164Y77930947D01*
X93577524Y79226347D01*
X93548106Y79275272D01*
X92894365Y79952086D01*
X99700065Y76788481D01*
G36*
X6326983Y79216408D02*
X6299927Y79169124D01*
X5903687Y77904204D01*
X5898422Y77854522D01*
X6020342Y76538802D01*
X6025345Y76513403D01*
X6882691Y73708005D01*
X7219956Y72288471D01*
X7375872Y70482862D01*
X7290481Y68860429D01*
X6964027Y67278385D01*
X6268076Y65336781D01*
X4924490Y62487365D01*
X4916034Y62463526D01*
X4687434Y61533886D01*
X4684384Y61490985D01*
X4785984Y60469905D01*
X4797799Y60427665D01*
X5756893Y58423210D01*
X6797878Y56022880D01*
X7503285Y52994669D01*
X7528900Y49990337D01*
X6834392Y52982633D01*
X6825901Y53007335D01*
X5500021Y55867375D01*
X5487807Y55888247D01*
X4121287Y57783087D01*
X4118825Y57786386D01*
X2638237Y59705107D01*
X2352454Y60547926D01*
X2367008Y61285337D01*
X3202521Y65088187D01*
X3204826Y65102567D01*
X3341986Y66448767D01*
X3342623Y66459570D01*
X3373103Y68329010D01*
X3371961Y68348201D01*
X3168761Y69841721D01*
X3165725Y69856971D01*
X2845685Y71071091D01*
X2839747Y71088430D01*
X2072667Y72891830D01*
X2067431Y72902679D01*
X548755Y75702105D01*
X191858Y76772796D01*
X6977104Y79934314D01*
X6326983Y79216408D01*
X6326983Y79216408D01*
G37*
X6326983Y79216408D02*
X6299927Y79169124D01*
X5903687Y77904204D01*
X5898422Y77854522D01*
X6020342Y76538802D01*
X6025345Y76513403D01*
X6882691Y73708005D01*
X7219956Y72288471D01*
X7375872Y70482862D01*
X7290481Y68860429D01*
X6964027Y67278385D01*
X6268076Y65336781D01*
X4924490Y62487365D01*
X4916034Y62463526D01*
X4687434Y61533886D01*
X4684384Y61490985D01*
X4785984Y60469905D01*
X4797799Y60427665D01*
X5756893Y58423210D01*
X6797878Y56022880D01*
X7503285Y52994669D01*
X7528900Y49990337D01*
X6834392Y52982633D01*
X6825901Y53007335D01*
X5500021Y55867375D01*
X5487807Y55888247D01*
X4121287Y57783087D01*
X4118825Y57786386D01*
X2638237Y59705107D01*
X2352454Y60547926D01*
X2367008Y61285337D01*
X3202521Y65088187D01*
X3204826Y65102567D01*
X3341986Y66448767D01*
X3342623Y66459570D01*
X3373103Y68329010D01*
X3371961Y68348201D01*
X3168761Y69841721D01*
X3165725Y69856971D01*
X2845685Y71071091D01*
X2839747Y71088430D01*
X2072667Y72891830D01*
X2067431Y72902679D01*
X548755Y75702105D01*
X191858Y76772796D01*
X6977104Y79934314D01*
X6326983Y79216408D01*
%LPC*%
D17*
X38902640Y86928960D03*
X60995560Y86928960D03*
X61000640Y4064000D03*
D18*
X60036200Y77434440D03*
X62036200Y77434440D03*
X60036200Y79689960D03*
X62036200Y79689960D03*
X37856920Y77393800D03*
X39856920Y77393800D03*
X37856920Y79608680D03*
X39856920Y79608680D03*
D19*
X43459400Y13192760D03*
D20*
X41959400Y13192760D03*
D18*
X41743880Y8041640D03*
X43743880Y8041640D03*
X41764200Y9926320D03*
X43764200Y9926320D03*
X58358280Y9941560D03*
X56358280Y9941560D03*
X58358280Y8067040D03*
X56358280Y8067040D03*
D21*
X55732680Y5689600D03*
D22*
X54462680Y5689600D03*
X53192680Y5689600D03*
X51922680Y5689600D03*
X50652680Y5689600D03*
X49382680Y5689600D03*
X48112680Y5689600D03*
X46842680Y5689600D03*
X45572680Y5689600D03*
X44302680Y5689600D03*
D19*
X40292480Y30459160D03*
X37492480Y30459160D03*
D23*
X38892480Y27219160D03*
D19*
X40221360Y38353480D03*
X37421360Y38353480D03*
D23*
X38821360Y35113480D03*
D19*
X40238680Y46258480D03*
X37438680Y46258480D03*
D23*
X38838680Y43018480D03*
D19*
X40216280Y54121800D03*
X37416280Y54121800D03*
D23*
X38816280Y50881800D03*
D19*
X40297560Y61985640D03*
X37497560Y61985640D03*
D23*
X38897560Y58745640D03*
D19*
X40282320Y69874880D03*
X37482320Y69874880D03*
D23*
X38882320Y66634880D03*
D19*
X62487000Y69859640D03*
X59687000Y69859640D03*
D23*
X61087000Y66619640D03*
D19*
X62532720Y61955160D03*
X59732720Y61955160D03*
D23*
X61132720Y58715160D03*
D19*
X62497160Y54192920D03*
X59697160Y54192920D03*
D23*
X61097160Y50952920D03*
D19*
X62512400Y46308760D03*
X59712400Y46308760D03*
D23*
X61112400Y43068760D03*
D19*
X62558120Y38439840D03*
X59758120Y38439840D03*
D23*
X61158120Y35199840D03*
D19*
X62542880Y30504360D03*
X59742880Y30504360D03*
D23*
X61142880Y27264360D03*
D24*
X8575040Y88508800D03*
X8575040Y90408800D03*
D25*
X37937400Y32369760D03*
X39837400Y32369760D03*
X37906920Y40299640D03*
X39806920Y40299640D03*
D24*
X25044400Y92872520D03*
X25044400Y94772520D03*
D25*
X37856120Y48153320D03*
X39756120Y48153320D03*
X37866280Y56042560D03*
X39766280Y56042560D03*
D24*
X41671240Y94249200D03*
X41671240Y96149200D03*
D25*
X37952640Y63891160D03*
X39852640Y63891160D03*
X37917080Y71826120D03*
X39817080Y71826120D03*
D24*
X58155840Y96159360D03*
X58155840Y94259360D03*
D25*
X62031920Y71775320D03*
X60131920Y71775320D03*
X60121760Y63855600D03*
X62021760Y63855600D03*
D24*
X74691240Y94493120D03*
X74691240Y92593120D03*
D25*
X60121760Y56037480D03*
X62021760Y56037480D03*
X60152240Y48158400D03*
X62052240Y48158400D03*
D24*
X91180920Y90413880D03*
X91180920Y88513880D03*
D25*
X60197960Y40274240D03*
X62097960Y40274240D03*
X60172560Y32359600D03*
X62072560Y32359600D03*
D26*
X2445000Y88281080D03*
X6445000Y88281080D03*
X6445000Y86481080D03*
X2445000Y86481080D03*
X10710160Y90841400D03*
X14710160Y90841400D03*
X14710160Y89041400D03*
X10710160Y89041400D03*
X19031200Y92807360D03*
X23031200Y92807360D03*
X23031200Y91007360D03*
X19031200Y91007360D03*
X27235400Y94229760D03*
X31235400Y94229760D03*
X31235400Y92429760D03*
X27235400Y92429760D03*
X35536120Y95205120D03*
X39536120Y95205120D03*
X39536120Y93405120D03*
X35536120Y93405120D03*
X43791120Y95713120D03*
X47791120Y95713120D03*
X47791120Y93913120D03*
X43791120Y93913120D03*
X52076600Y95687720D03*
X56076600Y95687720D03*
X56076600Y93887720D03*
X52076600Y93887720D03*
X60321440Y95225440D03*
X64321440Y95225440D03*
X64321440Y93425440D03*
X60321440Y93425440D03*
X68601840Y94189120D03*
X72601840Y94189120D03*
X72601840Y92389120D03*
X68601840Y92389120D03*
X76892400Y92756560D03*
X80892400Y92756560D03*
X80892400Y90956560D03*
X76892400Y90956560D03*
X85122000Y90714400D03*
X89122000Y90714400D03*
X89122000Y88914400D03*
X85122000Y88914400D03*
X93397320Y88240440D03*
X97397320Y88240440D03*
X97397320Y86440440D03*
X93397320Y86440440D03*
D27*
X52481480Y21752560D03*
D28*
X49941480Y21752560D03*
X47401480Y21752560D03*
D29*
X53582520Y15890360D03*
X52932520Y15890360D03*
X52282520Y15890360D03*
X51632520Y15890360D03*
X50982520Y15890360D03*
X50332520Y15890360D03*
X49682520Y15890360D03*
X49032520Y15890360D03*
X48382520Y15890360D03*
X47732520Y15890360D03*
X47082520Y15890360D03*
X46432520Y15890360D03*
X46432520Y10190360D03*
X47082520Y10190360D03*
X47732520Y10190360D03*
X48382520Y10190360D03*
X49032520Y10190360D03*
X49682520Y10190360D03*
X50332520Y10190360D03*
X50982520Y10190360D03*
X51632520Y10190360D03*
X52282520Y10190360D03*
X52932520Y10190360D03*
X53582520Y10190360D03*
D30*
X49062600Y87767920D03*
X50962600Y87767920D03*
X50012600Y89767920D03*
D25*
X50921960Y85907880D03*
X49021960Y85907880D03*
D27*
X61889640Y18465800D03*
D28*
X61889640Y15925800D03*
X61889640Y13385800D03*
D27*
X38013640Y18404840D03*
D28*
X38013640Y15864840D03*
X38013640Y13324840D03*
D17*
X38907720Y4053840D03*
D19*
X5293360Y68384240D03*
X5293360Y70584240D03*
X94909640Y68460440D03*
X94909640Y70660440D03*
M02*
