M48
;DRILL file {KiCad 4.0.7} date 02/25/18 15:11:42
;FORMAT={-:-/ absolute / inch / decimal}
FMAT,2
INCH,TZ
T1C0.016
T2C0.024
T3C0.028
T4C0.039
%
G90
G05
M72
T1
X0.0862Y3.2746
X0.2102Y2.6978
X1.4616Y2.058
X1.4648Y0.3544
X1.4756Y1.4458
X1.4896Y2.9778
X1.496Y2.3951
X1.496Y1.7574
X1.5334Y1.009
X1.5692Y3.2202
X1.5714Y2.9774
X1.5812Y1.4448
X1.5868Y2.6772
X1.5884Y2.3592
X1.5904Y1.7498
X1.5922Y2.0476
X1.711Y0.6222
X1.8604Y3.3352
X1.9026Y0.346
X1.9632Y0.568
X1.9647Y0.5091
X1.9666Y3.604
X2.017Y3.5878
X2.021Y0.3326
X2.0584Y3.3414
X2.1114Y0.5743
X2.1499Y0.4012
X2.1814Y0.8338
X2.1934Y0.727
X2.3494Y2.066
X2.35Y2.3714
X2.3508Y1.135
X2.3518Y1.7574
X2.3526Y1.452
X2.3572Y2.687
X2.364Y2.971
X2.4436Y2.9702
X2.4458Y3.2154
X2.4878Y2.3176
X2.4926Y1.402
X2.4996Y2.0062
X2.5006Y1.713
X3.0462Y3.4264
X3.5284Y3.3184
X3.7366Y2.6953
T2
X1.6519Y0.5194
X1.711Y0.5194
T3
X0.0963Y3.4756
X0.0963Y3.4048
X0.2537Y3.4756
X0.2537Y3.4048
X0.4217Y3.5764
X0.4217Y3.5056
X0.5791Y3.5764
X0.5791Y3.5056
X0.7493Y3.6538
X0.7493Y3.583
X0.9067Y3.6538
X0.9067Y3.583
X1.0723Y3.7098
X1.0723Y3.639
X1.2297Y3.7098
X1.2297Y3.639
X1.3991Y3.7482
X1.3991Y3.6774
X1.5565Y3.7482
X1.5565Y3.6774
X1.7241Y3.7682
X1.7241Y3.6974
X1.7442Y0.224
X1.7942Y0.224
X1.8442Y0.224
X1.8815Y3.7682
X1.8815Y3.6974
X1.8942Y0.224
X1.9442Y0.224
X1.9942Y0.224
X2.0442Y0.224
X2.0503Y3.7672
X2.0503Y3.6964
X2.0942Y0.224
X2.1442Y0.224
X2.1942Y0.224
X2.2077Y3.7672
X2.2077Y3.6964
X2.3749Y3.749
X2.3749Y3.6782
X2.5323Y3.749
X2.5323Y3.6782
X2.7009Y3.7082
X2.7009Y3.6374
X2.8583Y3.7082
X2.8583Y3.6374
X3.0273Y3.6518
X3.0273Y3.581
X3.1847Y3.6518
X3.1847Y3.581
X3.3513Y3.5714
X3.3513Y3.5006
X3.5087Y3.5714
X3.5087Y3.5006
X3.6771Y3.474
X3.6771Y3.4032
X3.8345Y3.474
X3.8345Y3.4032
T4
X1.4966Y0.7246
X1.4966Y0.6246
X1.4966Y0.5246
X1.8662Y0.8564
X1.9662Y0.8564
X2.0662Y0.8564
X2.4366Y0.727
X2.4366Y0.627
X2.4366Y0.527
T0
M30
