G04 #@! TF.FileFunction,Soldermask,Bot*
%FSLAX46Y46*%
G04 Gerber Fmt 4.6, Leading zero omitted, Abs format (unit mm)*
G04 Created by KiCad (PCBNEW 4.0.7) date 02/25/18 15:11:15*
%MOMM*%
%LPD*%
G01*
G04 APERTURE LIST*
%ADD10C,0.100000*%
%ADD11C,3.600000*%
%ADD12R,1.600000X1.600000*%
%ADD13C,1.600000*%
%ADD14R,1.400000X1.400000*%
%ADD15O,1.400000X1.400000*%
%ADD16R,1.370000X1.670000*%
%ADD17C,1.455599*%
%ADD18R,2.100000X2.100000*%
%ADD19O,2.100000X2.100000*%
%ADD20R,1.700000X1.100000*%
G04 APERTURE END LIST*
D10*
X43860720Y75483720D02*
X44246800Y77292200D01*
X43865800Y34152840D02*
X43916600Y33258760D01*
X50955573Y83762972D02*
X49991563Y84292530D01*
X97124595Y63725083D02*
X97441436Y62490152D01*
X96820768Y65136804D02*
X97124595Y63725083D01*
X96632601Y66687713D02*
X96820768Y65136804D01*
X96638125Y68319403D02*
X96632601Y66687713D01*
X96880350Y69963922D02*
X96638125Y68319403D01*
X98025607Y73043514D02*
X97359175Y71555608D01*
X97359175Y71555608D02*
X96880350Y69963922D01*
X98778291Y74404414D02*
X98025607Y73043514D01*
X99850757Y76814051D02*
X99462352Y75656394D01*
X99462352Y75656394D02*
X98778291Y74404414D01*
X99850757Y76814051D02*
X99850757Y88055035D01*
X50735Y88055035D02*
X130724Y88822828D01*
X1263025Y90804890D02*
X1561489Y91050445D01*
X76547895Y97375154D02*
X85006687Y95599644D01*
X40511677Y99413209D02*
X31902509Y98647824D01*
X367255Y89557646D02*
X541302Y89902733D01*
X1883792Y91263751D02*
X2226461Y91442512D01*
X2544677Y91581566D02*
X2226461Y91442512D01*
X991611Y90529731D02*
X1263025Y90804890D01*
X7132339Y93308757D02*
X2544677Y91581566D01*
X130724Y88822828D02*
X229903Y89196381D01*
X23353596Y97375154D02*
X14894804Y95599644D01*
X229903Y89196381D02*
X367255Y89557646D01*
X50735Y76814051D02*
X50735Y88055035D01*
X98909880Y90529731D02*
X98638467Y90804890D01*
X541302Y89902733D02*
X750171Y90227929D01*
X50828764Y99666319D02*
X59389815Y99413209D01*
X49072727Y99666319D02*
X40511677Y99413209D01*
X98638467Y90804890D02*
X98340002Y91050445D01*
X1561489Y91050445D02*
X1883792Y91263751D01*
X50735Y76814051D02*
X439139Y75656394D01*
X11770129Y94748269D02*
X7132339Y93308757D01*
X99151321Y90227929D02*
X98909880Y90529731D01*
X14894804Y95599644D02*
X11770129Y94748269D01*
X750171Y90227929D02*
X991611Y90529731D01*
X98017700Y91263751D02*
X97675030Y91442512D01*
X98340002Y91050445D02*
X98017700Y91263751D01*
X59389815Y99413209D02*
X67998983Y98647824D01*
X97356815Y91581566D02*
X97675030Y91442512D01*
X92769153Y93308757D02*
X97356815Y91581566D01*
X88131362Y94748269D02*
X92769153Y93308757D01*
X85006687Y95599644D02*
X88131362Y94748269D01*
X38248565Y5464032D02*
X38429547Y5535688D01*
X37358521Y4061546D02*
X37370743Y4255813D01*
X60004956Y2867247D02*
X60162432Y2752834D01*
X37370743Y4255813D02*
X37407217Y4447017D01*
X60333007Y2659060D02*
X60513989Y2587404D01*
X38811200Y5608492D02*
X39005851Y5608492D01*
X37407217Y3676076D02*
X37370743Y3867279D01*
X39896535Y2867247D02*
X39739059Y2752834D01*
X37550246Y3314826D02*
X37467367Y3490952D01*
X37467367Y4632141D02*
X37550246Y4808267D01*
X39568485Y5464032D02*
X39739059Y5370259D01*
X62351246Y3314826D02*
X62434124Y3490952D01*
X62351246Y4808267D02*
X62246946Y4972616D01*
X40446308Y3867279D02*
X40409834Y3676076D01*
X59551809Y4632141D02*
X59491658Y4447017D01*
X59634687Y4808267D02*
X59551809Y4632141D01*
X61283408Y5584096D02*
X61090292Y5608492D01*
X61090292Y5608492D02*
X60895641Y5608492D01*
X61823500Y5370259D02*
X61652926Y5464032D01*
X59455184Y4255813D02*
X59442962Y4061546D01*
X39198967Y2538997D02*
X39005851Y2514600D01*
X62122871Y5122598D02*
X61980977Y5255845D01*
X37920515Y2867247D02*
X37778620Y3000495D01*
X59863062Y5122598D02*
X59738986Y4972616D01*
X61980977Y5255845D02*
X61823500Y5370259D01*
X39387503Y5535688D02*
X39568485Y5464032D01*
X61980977Y2867247D02*
X62122871Y3000495D01*
X59738986Y3150476D02*
X59863062Y3000495D01*
X37654545Y4972616D02*
X37778620Y5122598D01*
X60895641Y2514600D02*
X61090292Y2514600D01*
X61471944Y2587404D02*
X61652926Y2659060D01*
X60702524Y2538997D02*
X60895641Y2514600D01*
X59634687Y3314826D02*
X59738986Y3150476D01*
X62530749Y3867279D02*
X62542971Y4061546D01*
X60162432Y2752834D02*
X60333007Y2659060D01*
X39739059Y2752834D02*
X39568485Y2659060D01*
X60004956Y5255845D02*
X59863062Y5122598D01*
X62122871Y3000495D02*
X62246946Y3150476D01*
X62494275Y3676076D02*
X62530749Y3867279D01*
X40266805Y4808267D02*
X40349683Y4632141D01*
X60895641Y5608492D02*
X60702524Y5584096D01*
X61471944Y5535688D02*
X61283408Y5584096D01*
X59491658Y3676076D02*
X59551809Y3490952D01*
X40349683Y3490952D02*
X40266805Y3314826D01*
X61823500Y2752834D02*
X61980977Y2867247D01*
X39896535Y5255845D02*
X40038430Y5122598D01*
X59442962Y4061546D02*
X59455184Y3867279D01*
X59455184Y3867279D02*
X59491658Y3676076D01*
X61652926Y5464032D02*
X61471944Y5535688D01*
X40162505Y4972616D02*
X40266805Y4808267D01*
X60702524Y5584096D02*
X60513989Y5535688D01*
X62530749Y4255813D02*
X62494275Y4447017D01*
X60162432Y5370259D02*
X60004956Y5255845D01*
X40266805Y3314826D02*
X40162505Y3150476D01*
X39198967Y5584096D02*
X39387503Y5535688D01*
X39739059Y5370259D02*
X39896535Y5255845D01*
X38618083Y5584096D02*
X38811200Y5608492D01*
X40038430Y3000495D02*
X39896535Y2867247D01*
X60333007Y5464032D02*
X60162432Y5370259D01*
X59863062Y3000495D02*
X60004956Y2867247D01*
X59551809Y3490952D02*
X59634687Y3314826D01*
X39005851Y5608492D02*
X39198967Y5584096D01*
X37654545Y3150476D02*
X37550246Y3314826D01*
X33906674Y10492500D02*
X33906674Y73869753D01*
X65994817Y10492500D02*
X65994817Y73869753D01*
X67338129Y79099936D02*
X68068882Y80250977D01*
X32563362Y79099936D02*
X31832610Y80250977D01*
X33565484Y76569721D02*
X33144041Y77866362D01*
X68068882Y80250977D02*
X68938176Y81301319D01*
X69932294Y82234390D02*
X71035550Y83035465D01*
X28865942Y83035465D02*
X27670960Y83691903D01*
X31832610Y80250977D02*
X30963316Y81301319D01*
X33821039Y75230473D02*
X33565484Y76569721D01*
X65994817Y7492491D02*
X65994817Y10492500D01*
X30963316Y81301319D02*
X29969197Y82234390D01*
X33906674Y73869753D02*
X33821039Y75230473D01*
X6415126Y79119764D02*
X6019957Y77848888D01*
X23729656Y84702158D02*
X23058620Y84702158D01*
X66757450Y77866362D02*
X67338129Y79099936D01*
X7033109Y73720627D02*
X7377452Y72127070D01*
X29969197Y82234390D02*
X28865942Y83035465D01*
X33906674Y7492491D02*
X33906674Y10492500D01*
X6578115Y75207759D02*
X7033109Y73720627D01*
X25082392Y84531876D02*
X23729656Y84702158D01*
X27670960Y83691903D02*
X26403108Y84193344D01*
X66080453Y75230473D02*
X66336008Y76569721D01*
X68938176Y81301319D02*
X69932294Y82234390D01*
X71035550Y83035465D02*
X72230532Y83691903D01*
X6167738Y76574136D02*
X6578115Y75207759D01*
X6019957Y77848888D02*
X6167738Y76574136D01*
X7490342Y80322153D02*
X6415126Y79119764D01*
X26403108Y84193344D02*
X25082392Y84531876D01*
X7490342Y80322153D02*
X9713785Y81417451D01*
X65994817Y73869753D02*
X66080453Y75230473D01*
X33144041Y77866362D02*
X32563362Y79099936D01*
X66336008Y76569721D02*
X66757450Y77866362D01*
X93801709Y58063694D02*
X92958939Y56025139D01*
X95096702Y61405344D02*
X94976050Y60517705D01*
X94976050Y60517705D02*
X94525931Y59473092D01*
X92280854Y53034982D02*
X92207992Y48712244D01*
X95701054Y57531999D02*
X94454946Y55711784D01*
X92411149Y80322153D02*
X90187706Y81417451D01*
X92524040Y72127070D02*
X92384710Y70470771D01*
X94454946Y55711784D02*
X93173181Y52926480D01*
X92819806Y67214145D02*
X93324619Y65735670D01*
X92958939Y56025139D02*
X92280854Y53034982D01*
X92487792Y68811708D02*
X92819806Y67214145D01*
X93324619Y65735670D02*
X93913810Y64417291D01*
X72230532Y83691903D02*
X73498384Y84193344D01*
X97357478Y59690124D02*
X96701072Y58761171D01*
X73498384Y84193344D02*
X74819099Y84531876D01*
X74819099Y84531876D02*
X76171836Y84702158D01*
X76171836Y84702158D02*
X76842872Y84702158D01*
X97659078Y60533628D02*
X97357478Y59690124D01*
X92384710Y70470771D02*
X92487792Y68811708D01*
X94525931Y59473092D02*
X93801709Y58063694D01*
X92411149Y80322153D02*
X93486366Y79119764D01*
X93486366Y79119764D02*
X93881535Y77848888D01*
X93733754Y76574136D02*
X93323376Y75207759D01*
X93173181Y52926480D02*
X92207992Y48712244D01*
X93881535Y77848888D02*
X93733754Y76574136D01*
X93913810Y64417291D02*
X94479174Y63274572D01*
X94907370Y62289824D02*
X95096702Y61405344D01*
X96701072Y58761171D02*
X95701054Y57531999D01*
X92868382Y73720627D02*
X92524040Y72127070D01*
X94479174Y63274572D02*
X94907370Y62289824D01*
X93323376Y75207759D02*
X92868382Y73720627D01*
X46850063Y82027040D02*
X47844182Y82960110D01*
X99770768Y88822828D02*
X99671589Y89196381D01*
X50954617Y24222125D02*
X49990607Y23692567D01*
X53921285Y27006613D02*
X53051991Y25956271D01*
X45980769Y80976697D02*
X46850063Y82027040D01*
X46849501Y25956271D02*
X47843619Y25023200D01*
X44668775Y29391228D02*
X45249454Y28157654D01*
X99850757Y88055035D02*
X99770768Y88822828D01*
X45249454Y28157654D02*
X45980207Y27006613D01*
X43991778Y32027117D02*
X44247333Y30687869D01*
X99671589Y89196381D02*
X99534236Y89557646D01*
X44247333Y30687869D02*
X44668775Y29391228D01*
X43868327Y34151223D02*
X43860984Y75484473D01*
X99360189Y89902733D02*
X99151321Y90227929D01*
X54652037Y28157654D02*
X53921285Y27006613D01*
X55232716Y29391228D02*
X54652037Y28157654D01*
X99534236Y89557646D02*
X99360189Y89902733D01*
X45980207Y27006613D02*
X46849501Y25956271D01*
X48946875Y24222125D02*
X49910884Y23692567D01*
X43914047Y33262223D02*
X43991778Y32027117D01*
X55987444Y33262223D02*
X55909714Y32027117D01*
X55909714Y32027117D02*
X55654159Y30687869D01*
X55654159Y30687869D02*
X55232716Y29391228D01*
X53051991Y25956271D02*
X52057872Y25023200D01*
X44669338Y78592083D02*
X45250017Y79825656D01*
X44247895Y77295441D02*
X44669338Y78592083D01*
X45250017Y79825656D02*
X45980769Y80976697D01*
X40266805Y86181416D02*
X40162505Y86017067D01*
X60333007Y88330623D02*
X60162432Y88236849D01*
X61471944Y85453995D02*
X61652926Y85525651D01*
X38811200Y88475083D02*
X39005851Y88475083D01*
X37370743Y87122404D02*
X37407217Y87313607D01*
X59442962Y86928137D02*
X59455184Y86733870D01*
X59455184Y86733870D02*
X59491658Y86542666D01*
X38811200Y85381191D02*
X38618083Y85405587D01*
X38077991Y85619425D02*
X37920515Y85733838D01*
X37920515Y88122436D02*
X38077991Y88236849D01*
X60513989Y85453995D02*
X60702524Y85405587D01*
X39005851Y88475083D02*
X39198967Y88450687D01*
X37407217Y87313607D02*
X37467367Y87498732D01*
X38429547Y85453995D02*
X38248565Y85525651D01*
X40038430Y85867086D02*
X39896535Y85733838D01*
X38618083Y88450687D02*
X38811200Y88475083D01*
X40349683Y87498732D02*
X40409834Y87313607D01*
X40458530Y86928137D02*
X40446308Y86733870D01*
X39568485Y85525651D02*
X39387503Y85453995D01*
X40162505Y86017067D02*
X40038430Y85867086D01*
X37550246Y87674857D02*
X37654545Y87839207D01*
X40446308Y87122404D02*
X40458530Y86928137D01*
X40266805Y87674857D02*
X40349683Y87498732D01*
X49950746Y23714464D02*
X49990607Y23692567D01*
X38077991Y88236849D02*
X38248565Y88330623D01*
X38618083Y85405587D02*
X38429547Y85453995D01*
X37358521Y86928137D02*
X37370743Y87122404D01*
X37467367Y86357542D02*
X37407217Y86542666D01*
X39739059Y88236849D02*
X39896535Y88122436D01*
X49950746Y23714464D02*
X49910884Y23692567D01*
X39387503Y88402279D02*
X39568485Y88330623D01*
X61283408Y88450687D02*
X61090292Y88475083D01*
X39568485Y88330623D02*
X39739059Y88236849D01*
X39896535Y85733838D02*
X39739059Y85619425D01*
X38248565Y88330623D02*
X38429547Y88402279D01*
X39005851Y85381191D02*
X38811200Y85381191D01*
X61283408Y85405587D02*
X61471944Y85453995D01*
X40446308Y86733870D02*
X40409834Y86542666D01*
X59738986Y87839207D02*
X59634687Y87674857D01*
X37407217Y86542666D02*
X37370743Y86733870D01*
X60333007Y85525651D02*
X60513989Y85453995D01*
X59738986Y86017067D02*
X59863062Y85867086D01*
X60162432Y85619425D02*
X60333007Y85525651D01*
X37654545Y87839207D02*
X37778620Y87989188D01*
X37778620Y85867086D02*
X37654545Y86017067D01*
X37654545Y86017067D02*
X37550246Y86181416D01*
X39198967Y85405587D02*
X39005851Y85381191D01*
X37467367Y87498732D02*
X37550246Y87674857D01*
X37370743Y86733870D02*
X37358521Y86928137D01*
X37778620Y87989188D02*
X37920515Y88122436D01*
X38429547Y88402279D02*
X38618083Y88450687D01*
X40409834Y87313607D02*
X40446308Y87122404D01*
X40038430Y87989188D02*
X40162505Y87839207D01*
X37920515Y85733838D02*
X37778620Y85867086D01*
X40162505Y87839207D02*
X40266805Y87674857D01*
X39739059Y85619425D02*
X39568485Y85525651D01*
X40409834Y86542666D02*
X40349683Y86357542D01*
X37550246Y86181416D02*
X37467367Y86357542D01*
X39896535Y88122436D02*
X40038430Y87989188D01*
X39198967Y88450687D02*
X39387503Y88402279D01*
X40349683Y86357542D02*
X40266805Y86181416D01*
X39387503Y85453995D02*
X39198967Y85405587D01*
X38248565Y85525651D02*
X38077991Y85619425D01*
X55653596Y77295441D02*
X55232154Y78592083D01*
X30359787Y61534D02*
X32007880Y2298834D01*
X69541705Y61534D02*
X67893611Y2298834D01*
X55909152Y75956194D02*
X55653596Y77295441D01*
X33286803Y4869339D02*
X33906674Y7492491D01*
X55232154Y78592083D02*
X54651475Y79825656D01*
X53051428Y82027040D02*
X52057310Y82960110D01*
X54651475Y79825656D02*
X53920723Y80976697D01*
X55987444Y33262223D02*
X55994787Y74595473D01*
X69541705Y61534D02*
X30359787Y61534D01*
X53920723Y80976697D02*
X53051428Y82027040D01*
X66614689Y4869339D02*
X65994817Y7492491D01*
X55994787Y74595473D02*
X55909152Y75956194D01*
X61090292Y2514600D02*
X61283408Y2538997D01*
X82458238Y83523486D02*
X90187706Y81417451D01*
X67998983Y98647824D02*
X76547895Y97375154D01*
X9713785Y81417451D02*
X17443253Y83523486D01*
X61283408Y2538997D02*
X61471944Y2587404D01*
X62494275Y4447017D02*
X62434124Y4632141D01*
X62434124Y4632141D02*
X62351246Y4808267D01*
X48947437Y83761185D02*
X47844182Y82960110D01*
X62434124Y3490952D02*
X62494275Y3676076D01*
X23058620Y84702158D02*
X17443253Y83523486D01*
X62542971Y4061546D02*
X62530749Y4255813D01*
X61652926Y2659060D02*
X61823500Y2752834D01*
X59491658Y4447017D02*
X59455184Y4255813D01*
X66614689Y4869339D02*
X67893611Y2298834D01*
X59738986Y4972616D02*
X59634687Y4808267D01*
X52057310Y82960110D02*
X50954055Y83761185D01*
X50954617Y24222125D02*
X52057872Y25023200D01*
X49072727Y99666319D02*
X50828764Y99666319D01*
X47843619Y25023200D02*
X48946875Y24222125D01*
X60513989Y5535688D02*
X60333007Y5464032D01*
X32007880Y2298834D02*
X33286803Y4869339D01*
X23353596Y97375154D02*
X31902509Y98647824D01*
X62246946Y3150476D02*
X62351246Y3314826D01*
X82458238Y83523486D02*
X76842872Y84702158D01*
X60513989Y2587404D02*
X60702524Y2538997D01*
X62246946Y4972616D02*
X62122871Y5122598D01*
X97441436Y62490152D02*
X97656740Y61438142D01*
X97656740Y61438142D02*
X97659078Y60533628D01*
X6576873Y65735670D02*
X5987682Y64417291D01*
X4804789Y61405344D02*
X4925441Y60517705D01*
X2544014Y59690124D02*
X3200420Y58761171D01*
X2244752Y61438142D02*
X2242414Y60533628D01*
X6099782Y58063694D02*
X6942552Y56025139D01*
X4200438Y57531999D02*
X5446546Y55711784D01*
X2460056Y62490152D02*
X2244752Y61438142D01*
X5987682Y64417291D02*
X5422317Y63274572D01*
X2776896Y63725083D02*
X2460056Y62490152D01*
X2542317Y71555608D02*
X3021142Y69963922D01*
X3268890Y66687713D02*
X3080724Y65136804D01*
X3080724Y65136804D02*
X2776896Y63725083D01*
X4925441Y60517705D02*
X5375560Y59473092D01*
X6942552Y56025139D02*
X7620637Y53034982D01*
X4994122Y62289824D02*
X4804789Y61405344D01*
X7081686Y67214145D02*
X6576873Y65735670D01*
X7516781Y70470771D02*
X7413699Y68811708D01*
X7377452Y72127070D02*
X7516781Y70470771D01*
X1875885Y73043514D02*
X2542317Y71555608D01*
X3200420Y58761171D02*
X4200438Y57531999D01*
X5446546Y55711784D02*
X6728311Y52926480D01*
X7413699Y68811708D02*
X7081686Y67214145D01*
X439139Y75656394D02*
X1123200Y74404414D01*
X1123200Y74404414D02*
X1875885Y73043514D01*
X3021142Y69963922D02*
X3263367Y68319403D01*
X3263367Y68319403D02*
X3268890Y66687713D01*
X2242414Y60533628D02*
X2544014Y59690124D01*
X6728311Y52926480D02*
X7693500Y48712244D01*
X7620637Y53034982D02*
X7693500Y48712244D01*
X5375560Y59473092D02*
X6099782Y58063694D01*
X5422317Y63274572D02*
X4994122Y62289824D01*
X62494275Y87313607D02*
X62434124Y87498732D01*
X61980977Y88122436D02*
X61823500Y88236849D01*
X62434124Y87498732D02*
X62351246Y87674857D01*
X61652926Y88330623D02*
X61471944Y88402279D01*
X37467367Y3490952D02*
X37407217Y3676076D01*
X40038430Y5122598D02*
X40162505Y4972616D01*
X60004956Y88122436D02*
X59863062Y87989188D01*
X39005851Y2514600D02*
X38811200Y2514600D01*
X39568485Y2659060D02*
X39387503Y2587404D01*
X62542971Y86928137D02*
X62530749Y87122404D01*
X59863062Y87989188D02*
X59738986Y87839207D01*
X40162505Y3150476D02*
X40038430Y3000495D01*
X39387503Y2587404D02*
X39198967Y2538997D01*
X59455184Y87122404D02*
X59442962Y86928137D01*
X38248565Y2659060D02*
X38077991Y2752834D01*
X62122871Y85867086D02*
X62246946Y86017067D01*
X38429547Y2587404D02*
X38248565Y2659060D01*
X62122871Y87989188D02*
X61980977Y88122436D01*
X60004956Y85733838D02*
X60162432Y85619425D01*
X60702524Y88450687D02*
X60513989Y88402279D01*
X62246946Y87839207D02*
X62122871Y87989188D01*
X62530749Y86733870D02*
X62542971Y86928137D01*
X62351246Y87674857D02*
X62246946Y87839207D01*
X60702524Y85405587D02*
X60895641Y85381191D01*
X38077991Y2752834D02*
X37920515Y2867247D01*
X61652926Y85525651D02*
X61823500Y85619425D01*
X61090292Y88475083D02*
X60895641Y88475083D01*
X60895641Y85381191D02*
X61090292Y85381191D01*
X61823500Y88236849D02*
X61652926Y88330623D01*
X60162432Y88236849D02*
X60004956Y88122436D01*
X59551809Y87498732D02*
X59491658Y87313607D01*
X59491658Y86542666D02*
X59551809Y86357542D01*
X62434124Y86357542D02*
X62494275Y86542666D01*
X59863062Y85867086D02*
X60004956Y85733838D01*
X62494275Y86542666D02*
X62530749Y86733870D01*
X62351246Y86181416D02*
X62434124Y86357542D01*
X38077991Y5370259D02*
X38248565Y5464032D01*
X37778620Y3000495D02*
X37654545Y3150476D01*
X59634687Y86181416D02*
X59738986Y86017067D01*
X61471944Y88402279D02*
X61283408Y88450687D01*
X62530749Y87122404D02*
X62494275Y87313607D01*
X37778620Y5122598D02*
X37920515Y5255845D01*
X40458530Y4061546D02*
X40446308Y3867279D01*
X38429547Y5535688D02*
X38618083Y5584096D01*
X59491658Y87313607D02*
X59455184Y87122404D01*
X40409834Y3676076D02*
X40349683Y3490952D01*
X40409834Y4447017D02*
X40446308Y4255813D01*
X61090292Y85381191D02*
X61283408Y85405587D01*
X37407217Y4447017D02*
X37467367Y4632141D01*
X37370743Y3867279D02*
X37358521Y4061546D01*
X60895641Y88475083D02*
X60702524Y88450687D01*
X61980977Y85733838D02*
X62122871Y85867086D01*
X59551809Y86357542D02*
X59634687Y86181416D01*
X61823500Y85619425D02*
X61980977Y85733838D01*
X59634687Y87674857D02*
X59551809Y87498732D01*
X37550246Y4808267D02*
X37654545Y4972616D01*
X40349683Y4632141D02*
X40409834Y4447017D01*
X62246946Y86017067D02*
X62351246Y86181416D01*
X37920515Y5255845D02*
X38077991Y5370259D01*
X60513989Y88402279D02*
X60333007Y88330623D01*
X38618083Y2538997D02*
X38429547Y2587404D01*
X40446308Y4255813D02*
X40458530Y4061546D01*
X38811200Y2514600D02*
X38618083Y2538997D01*
X48948955Y83762972D02*
X49912965Y84292530D01*
X49952264Y84270942D02*
X49912965Y84292530D01*
X49952264Y84270942D02*
X49991563Y84292530D01*
D11*
X38902640Y86928960D03*
X60995560Y86928960D03*
X61000640Y4064000D03*
D12*
X43459400Y13192760D03*
D13*
X41959400Y13192760D03*
D14*
X55732680Y5689600D03*
D15*
X54462680Y5689600D03*
X53192680Y5689600D03*
X51922680Y5689600D03*
X50652680Y5689600D03*
X49382680Y5689600D03*
X48112680Y5689600D03*
X46842680Y5689600D03*
X45572680Y5689600D03*
X44302680Y5689600D03*
D16*
X51231800Y86766400D03*
X49961800Y86766400D03*
X48691800Y86766400D03*
X51313080Y12791440D03*
X50043080Y12791440D03*
X48773080Y12791440D03*
D17*
X2445000Y88281080D03*
X6445000Y88281080D03*
X6445000Y86481080D03*
X2445000Y86481080D03*
X10710160Y90841400D03*
X14710160Y90841400D03*
X14710160Y89041400D03*
X10710160Y89041400D03*
X19031200Y92807360D03*
X23031200Y92807360D03*
X23031200Y91007360D03*
X19031200Y91007360D03*
X27235400Y94229760D03*
X31235400Y94229760D03*
X31235400Y92429760D03*
X27235400Y92429760D03*
X35536120Y95205120D03*
X39536120Y95205120D03*
X39536120Y93405120D03*
X35536120Y93405120D03*
X43791120Y95713120D03*
X47791120Y95713120D03*
X47791120Y93913120D03*
X43791120Y93913120D03*
X52076600Y95687720D03*
X56076600Y95687720D03*
X56076600Y93887720D03*
X52076600Y93887720D03*
X60321440Y95225440D03*
X64321440Y95225440D03*
X64321440Y93425440D03*
X60321440Y93425440D03*
X68601840Y94189120D03*
X72601840Y94189120D03*
X72601840Y92389120D03*
X68601840Y92389120D03*
X76892400Y92756560D03*
X80892400Y92756560D03*
X80892400Y90956560D03*
X76892400Y90956560D03*
X85122000Y90714400D03*
X89122000Y90714400D03*
X89122000Y88914400D03*
X85122000Y88914400D03*
X93397320Y88240440D03*
X97397320Y88240440D03*
X97397320Y86440440D03*
X93397320Y86440440D03*
D18*
X52481480Y21752560D03*
D19*
X49941480Y21752560D03*
X47401480Y21752560D03*
D18*
X61889640Y18465800D03*
D19*
X61889640Y15925800D03*
X61889640Y13385800D03*
D18*
X38013640Y18404840D03*
D19*
X38013640Y15864840D03*
X38013640Y13324840D03*
D11*
X38907720Y4053840D03*
D20*
X5339080Y70424080D03*
X5339080Y68524080D03*
X94853760Y70510440D03*
X94853760Y68610440D03*
M02*
