G04 #@! TF.FileFunction,Legend,Bot*
%FSLAX46Y46*%
G04 Gerber Fmt 4.6, Leading zero omitted, Abs format (unit mm)*
G04 Created by KiCad (PCBNEW 4.0.7) date 09/23/18 21:58:35*
%MOMM*%
%LPD*%
G01*
G04 APERTURE LIST*
%ADD10C,0.100000*%
%ADD11C,0.150000*%
%ADD12C,0.300000*%
%ADD13C,0.120000*%
%ADD14C,0.125000*%
%ADD15C,0.254000*%
%ADD16C,1.455599*%
%ADD17C,3.600000*%
%ADD18R,1.600000X1.600000*%
%ADD19C,1.600000*%
%ADD20R,1.400000X1.400000*%
%ADD21O,1.400000X1.400000*%
%ADD22R,1.700000X1.100000*%
G04 APERTURE END LIST*
D10*
X1991360Y94940120D02*
X1569720Y94726760D01*
X7457440Y96667320D02*
X1991360Y94940120D01*
X15046960Y98516440D02*
X11049000Y97627440D01*
X57668160Y94843600D02*
X58287920Y94482920D01*
X55463440Y95636080D02*
X57668160Y94843600D01*
X53431440Y96286320D02*
X55463440Y95636080D01*
X48834040Y97561400D02*
X53431440Y96286320D01*
X45572680Y98308160D02*
X48834040Y97561400D01*
X40345360Y99217480D02*
X45572680Y98308160D01*
X38663880Y99441000D02*
X40345360Y99217480D01*
X32816800Y99872800D02*
X38663880Y99441000D01*
X31125160Y99933760D02*
X32816800Y99872800D01*
X25831800Y99811840D02*
X31125160Y99933760D01*
X22926040Y99628960D02*
X25831800Y99811840D01*
X18364200Y99070160D02*
X22926040Y99628960D01*
X15041880Y98516440D02*
X18364200Y99070160D01*
X7457440Y96667320D02*
X11049000Y97627440D01*
X13736169Y7501919D02*
X13736169Y76178983D01*
X13045177Y79578342D02*
X13317392Y78922563D01*
X47649177Y81330087D02*
X47227071Y80788186D01*
X48103705Y81821866D02*
X47649177Y81330087D01*
X52502557Y82644971D02*
X52206217Y82988904D01*
X13317392Y78922563D02*
X13538200Y78237080D01*
X1886032Y78722485D02*
X2552462Y77234584D01*
X51854589Y83221899D02*
X51456443Y83350037D01*
X1273174Y94483809D02*
X1571638Y94729363D01*
X6825548Y82184017D02*
X7057828Y82644971D01*
X3279034Y72366703D02*
X3090867Y70815800D01*
X9986276Y82935653D02*
X10485443Y82630731D01*
X11911207Y81330087D02*
X12333314Y80788186D01*
X13539211Y78237275D02*
G75*
G02X13736169Y76178982I-10656517J-2058292D01*
G01*
X48581884Y82257441D02*
X48103705Y81821866D01*
X51020552Y83379400D02*
X50555685Y83316069D01*
X46846158Y80202244D02*
X46515208Y79578342D01*
X9004700Y83316069D02*
X9489771Y83166126D01*
X52734837Y82184017D02*
X52502557Y82644971D01*
X12714227Y80202244D02*
X13045177Y79578342D01*
X51456443Y83350037D02*
X51020552Y83379400D01*
X9489771Y83166126D02*
X9986276Y82935653D01*
X10978501Y82257441D02*
X11456680Y81821866D01*
X45823787Y76178982D02*
G75*
G02X46019720Y78232000I10853904J1D01*
G01*
X52206217Y82988904D02*
X51854589Y83221899D01*
X49574109Y82935653D02*
X49074942Y82630731D01*
X12333314Y80788186D02*
X12714227Y80202244D01*
X52828184Y80839038D02*
X52894287Y81599962D01*
X11456680Y81821866D02*
X11911207Y81330087D01*
X52517143Y79399596D02*
X52828184Y80839038D01*
X50070613Y83166126D02*
X49574109Y82935653D01*
X3210563Y64440185D02*
X4210579Y63211017D01*
X8539833Y83379400D02*
X9004700Y83316069D01*
X47227071Y80788186D02*
X46846158Y80202244D01*
X5456683Y61390807D02*
X6738444Y58605512D01*
X7705796Y83221899D02*
X8103941Y83350037D01*
X59111094Y81335358D02*
X58427034Y80083381D01*
X7354168Y82988904D02*
X7705796Y83221899D01*
X58800063Y93906849D02*
X58558623Y94208650D01*
X57006225Y65369136D02*
X56349822Y64440185D01*
X46242993Y78922563D02*
X46019720Y78232000D01*
X2787041Y69404082D02*
X2470201Y68169155D01*
X2254898Y67117148D02*
X2252560Y66212637D01*
X59499497Y91733962D02*
X59419509Y92501753D01*
X3031286Y75642902D02*
X3273510Y73998388D01*
X240055Y92875304D02*
X377407Y93236568D01*
X52894287Y81599962D02*
X52734837Y82184017D01*
X10485443Y82630731D02*
X10978501Y82257441D01*
X59499497Y82493011D02*
X59111094Y81335358D01*
X56286875Y73998388D02*
X56281351Y72366703D01*
X1001761Y94208650D02*
X1273174Y94483809D01*
X2552462Y77234584D02*
X3031286Y75642902D01*
X50555685Y83316069D02*
X50070613Y83166126D01*
X7057828Y82644971D02*
X7354168Y82988904D01*
X4210579Y63211017D02*
X5456683Y61390807D01*
X49074942Y82630731D02*
X48581884Y82257441D01*
X2554159Y65369136D02*
X3210563Y64440185D01*
X8103941Y83350037D02*
X8539833Y83379400D01*
X46515208Y79578342D02*
X46242993Y78922563D01*
X6738444Y58605512D02*
X7703630Y54391288D01*
X1133350Y80083381D02*
X1886032Y78722485D01*
X60887Y82493011D02*
X60887Y91733962D01*
X51929617Y58714014D02*
X51856755Y54391288D01*
X53450468Y63742710D02*
X52607700Y61704161D01*
X52607700Y61704161D02*
X51929617Y58714014D01*
X54174687Y65152104D02*
X53450468Y63742710D01*
X46987557Y3786452D02*
X46444086Y4878774D01*
X47723004Y2308277D02*
X46987557Y3786452D01*
X49371093Y70984D02*
X47723004Y2308277D01*
X6587006Y71414663D02*
X5997817Y70096289D01*
X29777982Y88435495D02*
G75*
G02X35824216Y78704700I-4807241J-9730794D01*
G01*
X5432454Y68953573D02*
X5004260Y67968828D01*
X29785324Y19713478D02*
G75*
G02X29744524Y19693387I-4815146J9726885D01*
G01*
X35824051Y29271491D02*
G75*
G02X29826030Y19689996I-10852748J125696D01*
G01*
X5997817Y70096289D02*
X5432454Y68953573D01*
X7387583Y77806044D02*
X7526912Y76149750D01*
X7043242Y79399596D02*
X7387583Y77806044D01*
X23743512Y29271574D02*
X23736169Y78704701D01*
X5004260Y67968828D02*
X4814928Y67084351D01*
X7423830Y74490692D02*
X7091817Y72893134D01*
X54624805Y66196714D02*
X54174687Y65152104D01*
X29815861Y19693387D02*
G75*
G02X29775061Y19713478I4774345J9746976D01*
G01*
X54745457Y67084351D02*
X54624805Y66196714D01*
X54556125Y67968828D02*
X54745457Y67084351D01*
X54127931Y68953573D02*
X54556125Y67968828D01*
X53562568Y70096289D02*
X54127931Y68953573D01*
X35816873Y29271574D02*
X35824216Y78704701D01*
X52973379Y71414663D02*
X53562568Y70096289D01*
X7526912Y76149750D02*
X7423830Y74490692D01*
X11837380Y2308277D02*
X12572827Y3786452D01*
X52468567Y72893134D02*
X52973379Y71414663D01*
X52136554Y74490692D02*
X52468567Y72893134D01*
X7091817Y72893134D02*
X6587006Y71414663D01*
X52033473Y76149750D02*
X52136554Y74490692D01*
X52172802Y77806044D02*
X52033473Y76149750D01*
X52517143Y79399596D02*
X52172802Y77806044D01*
X23732649Y78704701D02*
G75*
G02X29778960Y88437720I10856995J0D01*
G01*
X13116299Y4878774D02*
X13736169Y7501919D01*
X12572827Y3786452D02*
X13116299Y4878774D01*
X10189292Y70984D02*
X11837380Y2308277D01*
X7630768Y58714014D02*
X7703630Y54391288D01*
X6952685Y61704161D02*
X7630768Y58714014D01*
X29734355Y19689997D02*
G75*
G02X23736335Y29271491I4854727J9707190D01*
G01*
X6109917Y63742710D02*
X6952685Y61704161D01*
X5385697Y65152104D02*
X6109917Y63742710D01*
X4935580Y66196714D02*
X5385697Y65152104D01*
X4814928Y67084351D02*
X4935580Y66196714D01*
X140876Y92501753D02*
X240055Y92875304D01*
X56469517Y70815800D02*
X56773344Y69404082D01*
X377407Y93236568D02*
X551454Y93581655D01*
X3273510Y73998388D02*
X3279034Y72366703D01*
X57307824Y66212637D02*
X57006225Y65369136D01*
X57674352Y78722485D02*
X57007922Y77234584D01*
X2470201Y68169155D02*
X2254898Y67117148D01*
X6732201Y80839038D02*
X6666098Y81599962D01*
X60887Y82493011D02*
X449291Y81335358D01*
X45824216Y7501919D02*
X45824216Y76178983D01*
X59320330Y92875304D02*
X59182978Y93236568D01*
X59499497Y82493011D02*
X59499497Y91733962D01*
X59419509Y92501753D02*
X59320330Y92875304D01*
X3090867Y70815800D02*
X2787041Y69404082D01*
X59182978Y93236568D02*
X59008931Y93581655D01*
X52821941Y58605512D02*
X51856755Y54391288D01*
X56281351Y72366703D02*
X56469517Y70815800D01*
X56773344Y69404082D02*
X57090183Y68169155D01*
X2252560Y66212637D02*
X2554159Y65369136D01*
X449291Y81335358D02*
X1133350Y80083381D01*
X57007922Y77234584D02*
X56529099Y75642902D01*
X58427034Y80083381D02*
X57674352Y78722485D01*
X551454Y93581655D02*
X760322Y93906849D01*
X760322Y93906849D02*
X1001761Y94208650D01*
X57305486Y67117148D02*
X57307824Y66212637D01*
X57090183Y68169155D02*
X57305486Y67117148D01*
X7043242Y79399596D02*
X6732201Y80839038D01*
X60887Y91733962D02*
X140876Y92501753D01*
X49371093Y70984D02*
X10189292Y70984D01*
X58558623Y94208650D02*
X58287210Y94483809D01*
X56349822Y64440185D02*
X55349806Y63211017D01*
X55349806Y63211017D02*
X54103702Y61390807D01*
X59008931Y93581655D02*
X58800063Y93906849D01*
X54103702Y61390807D02*
X52821941Y58605512D01*
X56529099Y75642902D02*
X56286875Y73998388D01*
X6666098Y81599962D02*
X6825548Y82184017D01*
X46444086Y4878774D02*
X45824216Y7501919D01*
D11*
X32834373Y11773347D02*
X32834373Y12206680D01*
X32567707Y11973347D01*
X32567707Y12073347D01*
X32534373Y12140014D01*
X32501040Y12173347D01*
X32434373Y12206680D01*
X32267707Y12206680D01*
X32201040Y12173347D01*
X32167707Y12140014D01*
X32134373Y12073347D01*
X32134373Y11873347D01*
X32167707Y11806680D01*
X32201040Y11773347D01*
X32201040Y12506681D02*
X32167707Y12540014D01*
X32134373Y12506681D01*
X32167707Y12473347D01*
X32201040Y12506681D01*
X32134373Y12506681D01*
X32834373Y12773347D02*
X32834373Y13206680D01*
X32567707Y12973347D01*
X32567707Y13073347D01*
X32534373Y13140014D01*
X32501040Y13173347D01*
X32434373Y13206680D01*
X32267707Y13206680D01*
X32201040Y13173347D01*
X32167707Y13140014D01*
X32134373Y13073347D01*
X32134373Y12873347D01*
X32167707Y12806680D01*
X32201040Y12773347D01*
X32834373Y13406681D02*
X32134373Y13640014D01*
X32834373Y13873347D01*
X27599120Y12247947D02*
X27632453Y12181281D01*
X27632453Y12081281D01*
X27599120Y11981281D01*
X27532453Y11914614D01*
X27465787Y11881281D01*
X27332453Y11847947D01*
X27232453Y11847947D01*
X27099120Y11881281D01*
X27032453Y11914614D01*
X26965787Y11981281D01*
X26932453Y12081281D01*
X26932453Y12147947D01*
X26965787Y12247947D01*
X26999120Y12281281D01*
X27232453Y12281281D01*
X27232453Y12147947D01*
X26932453Y12581281D02*
X27632453Y12581281D01*
X26932453Y12981281D01*
X27632453Y12981281D01*
X26932453Y13314614D02*
X27632453Y13314614D01*
X27632453Y13481280D01*
X27599120Y13581280D01*
X27532453Y13647947D01*
X27465787Y13681280D01*
X27332453Y13714614D01*
X27232453Y13714614D01*
X27099120Y13681280D01*
X27032453Y13647947D01*
X26965787Y13581280D01*
X26932453Y13481280D01*
X26932453Y13314614D01*
D12*
X23792292Y1895697D02*
X23792292Y695697D01*
X24078007Y695697D01*
X24249435Y752840D01*
X24363721Y867126D01*
X24420864Y981411D01*
X24478007Y1209983D01*
X24478007Y1381411D01*
X24420864Y1609983D01*
X24363721Y1724269D01*
X24249435Y1838554D01*
X24078007Y1895697D01*
X23792292Y1895697D01*
X24992292Y1895697D02*
X24992292Y1095697D01*
X24992292Y695697D02*
X24935149Y752840D01*
X24992292Y809983D01*
X25049435Y752840D01*
X24992292Y695697D01*
X24992292Y809983D01*
X25506578Y1838554D02*
X25620864Y1895697D01*
X25849436Y1895697D01*
X25963721Y1838554D01*
X26020864Y1724269D01*
X26020864Y1667126D01*
X25963721Y1552840D01*
X25849436Y1495697D01*
X25678007Y1495697D01*
X25563721Y1438554D01*
X25506578Y1324269D01*
X25506578Y1267126D01*
X25563721Y1152840D01*
X25678007Y1095697D01*
X25849436Y1095697D01*
X25963721Y1152840D01*
X26992293Y1838554D02*
X26878007Y1895697D01*
X26649436Y1895697D01*
X26535150Y1838554D01*
X26478007Y1724269D01*
X26478007Y1267126D01*
X26535150Y1152840D01*
X26649436Y1095697D01*
X26878007Y1095697D01*
X26992293Y1152840D01*
X27049436Y1267126D01*
X27049436Y1381411D01*
X26478007Y1495697D01*
X27563721Y1095697D02*
X27563721Y1895697D01*
X27563721Y1209983D02*
X27620864Y1152840D01*
X27735150Y1095697D01*
X27906578Y1095697D01*
X28020864Y1152840D01*
X28078007Y1267126D01*
X28078007Y1895697D01*
X27506578Y809983D02*
X27563721Y752840D01*
X27678007Y695697D01*
X27906578Y809983D01*
X28020864Y752840D01*
X28078007Y695697D01*
X29163721Y1895697D02*
X29163721Y1267126D01*
X29106578Y1152840D01*
X28992292Y1095697D01*
X28763721Y1095697D01*
X28649435Y1152840D01*
X29163721Y1838554D02*
X29049435Y1895697D01*
X28763721Y1895697D01*
X28649435Y1838554D01*
X28592292Y1724269D01*
X28592292Y1609983D01*
X28649435Y1495697D01*
X28763721Y1438554D01*
X29049435Y1438554D01*
X29163721Y1381411D01*
X30249435Y1895697D02*
X30249435Y695697D01*
X30249435Y1838554D02*
X30135149Y1895697D01*
X29906578Y1895697D01*
X29792292Y1838554D01*
X29735149Y1781411D01*
X29678006Y1667126D01*
X29678006Y1324269D01*
X29735149Y1209983D01*
X29792292Y1152840D01*
X29906578Y1095697D01*
X30135149Y1095697D01*
X30249435Y1152840D01*
X30992292Y1895697D02*
X30878006Y1838554D01*
X30820863Y1781411D01*
X30763720Y1667126D01*
X30763720Y1324269D01*
X30820863Y1209983D01*
X30878006Y1152840D01*
X30992292Y1095697D01*
X31163720Y1095697D01*
X31278006Y1152840D01*
X31335149Y1209983D01*
X31392292Y1324269D01*
X31392292Y1667126D01*
X31335149Y1781411D01*
X31278006Y1838554D01*
X31163720Y1895697D01*
X30992292Y1895697D01*
X32820863Y1095697D02*
X32820863Y2295697D01*
X32820863Y1152840D02*
X32935149Y1095697D01*
X33163720Y1095697D01*
X33278006Y1152840D01*
X33335149Y1209983D01*
X33392292Y1324269D01*
X33392292Y1667126D01*
X33335149Y1781411D01*
X33278006Y1838554D01*
X33163720Y1895697D01*
X32935149Y1895697D01*
X32820863Y1838554D01*
X34078006Y1895697D02*
X33963720Y1838554D01*
X33906577Y1781411D01*
X33849434Y1667126D01*
X33849434Y1324269D01*
X33906577Y1209983D01*
X33963720Y1152840D01*
X34078006Y1095697D01*
X34249434Y1095697D01*
X34363720Y1152840D01*
X34420863Y1209983D01*
X34478006Y1324269D01*
X34478006Y1667126D01*
X34420863Y1781411D01*
X34363720Y1838554D01*
X34249434Y1895697D01*
X34078006Y1895697D01*
X34992291Y1895697D02*
X34992291Y1095697D01*
X34992291Y1324269D02*
X35049434Y1209983D01*
X35106577Y1152840D01*
X35220863Y1095697D01*
X35335148Y1095697D01*
X35735148Y1781411D02*
X35792291Y1838554D01*
X35735148Y1895697D01*
X35678005Y1838554D01*
X35735148Y1781411D01*
X35735148Y1895697D01*
X35735148Y1152840D02*
X35792291Y1209983D01*
X35735148Y1267126D01*
X35678005Y1209983D01*
X35735148Y1152840D01*
X35735148Y1267126D01*
X25420863Y2909983D02*
X25478006Y2852840D01*
X25592292Y2795697D01*
X25878006Y2795697D01*
X25992292Y2852840D01*
X26049435Y2909983D01*
X26106578Y3024269D01*
X26106578Y3138554D01*
X26049435Y3309983D01*
X25363721Y3995697D01*
X26106578Y3995697D01*
X26849435Y2795697D02*
X26963720Y2795697D01*
X27078006Y2852840D01*
X27135149Y2909983D01*
X27192292Y3024269D01*
X27249435Y3252840D01*
X27249435Y3538554D01*
X27192292Y3767126D01*
X27135149Y3881411D01*
X27078006Y3938554D01*
X26963720Y3995697D01*
X26849435Y3995697D01*
X26735149Y3938554D01*
X26678006Y3881411D01*
X26620863Y3767126D01*
X26563720Y3538554D01*
X26563720Y3252840D01*
X26620863Y3024269D01*
X26678006Y2909983D01*
X26735149Y2852840D01*
X26849435Y2795697D01*
X28335149Y3995697D02*
X27763720Y3995697D01*
X27763720Y2795697D01*
X29192292Y3938554D02*
X29078006Y3995697D01*
X28849435Y3995697D01*
X28735149Y3938554D01*
X28678006Y3824269D01*
X28678006Y3367126D01*
X28735149Y3252840D01*
X28849435Y3195697D01*
X29078006Y3195697D01*
X29192292Y3252840D01*
X29249435Y3367126D01*
X29249435Y3481411D01*
X28678006Y3595697D01*
X30278006Y3195697D02*
X30278006Y3995697D01*
X29763720Y3195697D02*
X29763720Y3824269D01*
X29820863Y3938554D01*
X29935149Y3995697D01*
X30106577Y3995697D01*
X30220863Y3938554D01*
X30278006Y3881411D01*
X30849434Y3195697D02*
X30849434Y3995697D01*
X30849434Y3309983D02*
X30906577Y3252840D01*
X31020863Y3195697D01*
X31192291Y3195697D01*
X31306577Y3252840D01*
X31363720Y3367126D01*
X31363720Y3995697D01*
X32449434Y3995697D02*
X32449434Y3367126D01*
X32392291Y3252840D01*
X32278005Y3195697D01*
X32049434Y3195697D01*
X31935148Y3252840D01*
X32449434Y3938554D02*
X32335148Y3995697D01*
X32049434Y3995697D01*
X31935148Y3938554D01*
X31878005Y3824269D01*
X31878005Y3709983D01*
X31935148Y3595697D01*
X32049434Y3538554D01*
X32335148Y3538554D01*
X32449434Y3481411D01*
X33020862Y3995697D02*
X33020862Y3195697D01*
X33020862Y3309983D02*
X33078005Y3252840D01*
X33192291Y3195697D01*
X33363719Y3195697D01*
X33478005Y3252840D01*
X33535148Y3367126D01*
X33535148Y3995697D01*
X33535148Y3367126D02*
X33592291Y3252840D01*
X33706577Y3195697D01*
X33878005Y3195697D01*
X33992291Y3252840D01*
X34049434Y3367126D01*
X34049434Y3995697D01*
D11*
X48676560Y92288360D02*
X48041560Y92923360D01*
X47998560Y92976360D02*
X45098560Y92976360D01*
X48698560Y90076360D02*
X48698560Y92266360D01*
X45098560Y90076360D02*
X48698560Y90076360D01*
X45098560Y92976360D02*
X45098560Y90076360D01*
X6873240Y86715600D02*
X6238240Y87350600D01*
X6195240Y87403600D02*
X3295240Y87403600D01*
X6895240Y84503600D02*
X6895240Y86693600D01*
X3295240Y84503600D02*
X6895240Y84503600D01*
X3295240Y87403600D02*
X3295240Y84503600D01*
X10683240Y89875360D02*
X10048240Y90510360D01*
X10005240Y90563360D02*
X7105240Y90563360D01*
X10705240Y87663360D02*
X10705240Y89853360D01*
X7105240Y87663360D02*
X10705240Y87663360D01*
X7105240Y90563360D02*
X7105240Y87663360D01*
X14467840Y92278200D02*
X13832840Y92913200D01*
X13789840Y92966200D02*
X10889840Y92966200D01*
X14489840Y90066200D02*
X14489840Y92256200D01*
X10889840Y90066200D02*
X14489840Y90066200D01*
X10889840Y92966200D02*
X10889840Y90066200D01*
X18267680Y94147640D02*
X17632680Y94782640D01*
X17589680Y94835640D02*
X14689680Y94835640D01*
X18289680Y91935640D02*
X18289680Y94125640D01*
X14689680Y91935640D02*
X18289680Y91935640D01*
X14689680Y94835640D02*
X14689680Y91935640D01*
X22077680Y95382080D02*
X21442680Y96017080D01*
X21399680Y96070080D02*
X18499680Y96070080D01*
X22099680Y93170080D02*
X22099680Y95360080D01*
X18499680Y93170080D02*
X22099680Y93170080D01*
X18499680Y96070080D02*
X18499680Y93170080D01*
X25867360Y96179640D02*
X25232360Y96814640D01*
X25189360Y96867640D02*
X22289360Y96867640D01*
X25889360Y93967640D02*
X25889360Y96157640D01*
X22289360Y93967640D02*
X25889360Y93967640D01*
X22289360Y96867640D02*
X22289360Y93967640D01*
X37261800Y96194880D02*
X36626800Y96829880D01*
X36583800Y96882880D02*
X33683800Y96882880D01*
X37283800Y93982880D02*
X37283800Y96172880D01*
X33683800Y93982880D02*
X37283800Y93982880D01*
X33683800Y96882880D02*
X33683800Y93982880D01*
X41081960Y95382080D02*
X40446960Y96017080D01*
X40403960Y96070080D02*
X37503960Y96070080D01*
X41103960Y93170080D02*
X41103960Y95360080D01*
X37503960Y93170080D02*
X41103960Y93170080D01*
X37503960Y96070080D02*
X37503960Y93170080D01*
X44876720Y94122240D02*
X44241720Y94757240D01*
X44198720Y94810240D02*
X41298720Y94810240D01*
X44898720Y91910240D02*
X44898720Y94100240D01*
X41298720Y91910240D02*
X44898720Y91910240D01*
X41298720Y94810240D02*
X41298720Y91910240D01*
X52481480Y89849960D02*
X51846480Y90484960D01*
X51803480Y90537960D02*
X48903480Y90537960D01*
X52503480Y87637960D02*
X52503480Y89827960D01*
X48903480Y87637960D02*
X52503480Y87637960D01*
X48903480Y90537960D02*
X48903480Y87637960D01*
X56266080Y86690200D02*
X55631080Y87325200D01*
X55588080Y87378200D02*
X52688080Y87378200D01*
X56288080Y84478200D02*
X56288080Y86668200D01*
X52688080Y84478200D02*
X56288080Y84478200D01*
X52688080Y87378200D02*
X52688080Y84478200D01*
D13*
X6188600Y74629720D02*
X6188600Y75829720D01*
X4428600Y75829720D02*
X4428600Y74629720D01*
X55317280Y74538280D02*
X55317280Y75738280D01*
X53557280Y75738280D02*
X53557280Y74538280D01*
D11*
X29662120Y96611440D02*
X29027120Y97246440D01*
X28984120Y97299440D02*
X26084120Y97299440D01*
X29684120Y94399440D02*
X29684120Y96589440D01*
X26084120Y94399440D02*
X29684120Y94399440D01*
X26084120Y97299440D02*
X26084120Y94399440D01*
X33467040Y96586040D02*
X32832040Y97221040D01*
X32789040Y97274040D02*
X29889040Y97274040D01*
X33489040Y94374040D02*
X33489040Y96564040D01*
X29889040Y94374040D02*
X33489040Y94374040D01*
X29889040Y97274040D02*
X29889040Y94374040D01*
D10*
X46361709Y92218417D02*
X46847423Y92218417D01*
X46904566Y92189845D01*
X46933137Y92161274D01*
X46961709Y92104131D01*
X46961709Y91989845D01*
X46933137Y91932703D01*
X46904566Y91904131D01*
X46847423Y91875560D01*
X46361709Y91875560D01*
X46961709Y91275560D02*
X46961709Y91618417D01*
X46961709Y91446989D02*
X46361709Y91446989D01*
X46447423Y91504132D01*
X46504566Y91561274D01*
X46533137Y91618417D01*
X46361709Y90904131D02*
X46361709Y90846988D01*
X46390280Y90789845D01*
X46418851Y90761274D01*
X46475994Y90732703D01*
X46590280Y90704131D01*
X46733137Y90704131D01*
X46847423Y90732703D01*
X46904566Y90761274D01*
X46933137Y90789845D01*
X46961709Y90846988D01*
X46961709Y90904131D01*
X46933137Y90961274D01*
X46904566Y90989845D01*
X46847423Y91018417D01*
X46733137Y91046988D01*
X46590280Y91046988D01*
X46475994Y91018417D01*
X46418851Y90989845D01*
X46390280Y90961274D01*
X46361709Y90904131D01*
D11*
X30142773Y7979659D02*
X30142773Y7265373D01*
X30190393Y7122516D01*
X30285631Y7027278D01*
X30428488Y6979659D01*
X30523726Y6979659D01*
X29142773Y6979659D02*
X29714202Y6979659D01*
X29428488Y6979659D02*
X29428488Y7979659D01*
X29523726Y7836802D01*
X29618964Y7741564D01*
X29714202Y7693945D01*
D10*
X4700629Y86385343D02*
X5186343Y86385343D01*
X5243486Y86356771D01*
X5272057Y86328200D01*
X5300629Y86271057D01*
X5300629Y86156771D01*
X5272057Y86099629D01*
X5243486Y86071057D01*
X5186343Y86042486D01*
X4700629Y86042486D01*
X5300629Y85442486D02*
X5300629Y85785343D01*
X5300629Y85613915D02*
X4700629Y85613915D01*
X4786343Y85671058D01*
X4843486Y85728200D01*
X4872057Y85785343D01*
X8546189Y89565423D02*
X9031903Y89565423D01*
X9089046Y89536851D01*
X9117617Y89508280D01*
X9146189Y89451137D01*
X9146189Y89336851D01*
X9117617Y89279709D01*
X9089046Y89251137D01*
X9031903Y89222566D01*
X8546189Y89222566D01*
X8603331Y88965423D02*
X8574760Y88936852D01*
X8546189Y88879709D01*
X8546189Y88736852D01*
X8574760Y88679709D01*
X8603331Y88651138D01*
X8660474Y88622566D01*
X8717617Y88622566D01*
X8803331Y88651138D01*
X9146189Y88993995D01*
X9146189Y88622566D01*
X12224109Y91968263D02*
X12709823Y91968263D01*
X12766966Y91939691D01*
X12795537Y91911120D01*
X12824109Y91853977D01*
X12824109Y91739691D01*
X12795537Y91682549D01*
X12766966Y91653977D01*
X12709823Y91625406D01*
X12224109Y91625406D01*
X12224109Y91396835D02*
X12224109Y91025406D01*
X12452680Y91225406D01*
X12452680Y91139692D01*
X12481251Y91082549D01*
X12509823Y91053978D01*
X12566966Y91025406D01*
X12709823Y91025406D01*
X12766966Y91053978D01*
X12795537Y91082549D01*
X12824109Y91139692D01*
X12824109Y91311120D01*
X12795537Y91368263D01*
X12766966Y91396835D01*
X16059509Y93797063D02*
X16545223Y93797063D01*
X16602366Y93768491D01*
X16630937Y93739920D01*
X16659509Y93682777D01*
X16659509Y93568491D01*
X16630937Y93511349D01*
X16602366Y93482777D01*
X16545223Y93454206D01*
X16059509Y93454206D01*
X16259509Y92911349D02*
X16659509Y92911349D01*
X16030937Y93054206D02*
X16459509Y93197063D01*
X16459509Y92825635D01*
X19884749Y95087383D02*
X20370463Y95087383D01*
X20427606Y95058811D01*
X20456177Y95030240D01*
X20484749Y94973097D01*
X20484749Y94858811D01*
X20456177Y94801669D01*
X20427606Y94773097D01*
X20370463Y94744526D01*
X19884749Y94744526D01*
X19884749Y94173098D02*
X19884749Y94458812D01*
X20170463Y94487383D01*
X20141891Y94458812D01*
X20113320Y94401669D01*
X20113320Y94258812D01*
X20141891Y94201669D01*
X20170463Y94173098D01*
X20227606Y94144526D01*
X20370463Y94144526D01*
X20427606Y94173098D01*
X20456177Y94201669D01*
X20484749Y94258812D01*
X20484749Y94401669D01*
X20456177Y94458812D01*
X20427606Y94487383D01*
X23664269Y95849383D02*
X24149983Y95849383D01*
X24207126Y95820811D01*
X24235697Y95792240D01*
X24264269Y95735097D01*
X24264269Y95620811D01*
X24235697Y95563669D01*
X24207126Y95535097D01*
X24149983Y95506526D01*
X23664269Y95506526D01*
X23664269Y94963669D02*
X23664269Y95077955D01*
X23692840Y95135098D01*
X23721411Y95163669D01*
X23807126Y95220812D01*
X23921411Y95249383D01*
X24149983Y95249383D01*
X24207126Y95220812D01*
X24235697Y95192240D01*
X24264269Y95135098D01*
X24264269Y95020812D01*
X24235697Y94963669D01*
X24207126Y94935098D01*
X24149983Y94906526D01*
X24007126Y94906526D01*
X23949983Y94935098D01*
X23921411Y94963669D01*
X23892840Y95020812D01*
X23892840Y95135098D01*
X23921411Y95192240D01*
X23949983Y95220812D01*
X24007126Y95249383D01*
X34911389Y95783343D02*
X35397103Y95783343D01*
X35454246Y95754771D01*
X35482817Y95726200D01*
X35511389Y95669057D01*
X35511389Y95554771D01*
X35482817Y95497629D01*
X35454246Y95469057D01*
X35397103Y95440486D01*
X34911389Y95440486D01*
X34911389Y95211915D02*
X34911389Y94811915D01*
X35511389Y95069058D01*
X38746789Y95067063D02*
X39232503Y95067063D01*
X39289646Y95038491D01*
X39318217Y95009920D01*
X39346789Y94952777D01*
X39346789Y94838491D01*
X39318217Y94781349D01*
X39289646Y94752777D01*
X39232503Y94724206D01*
X38746789Y94724206D01*
X39003931Y94352778D02*
X38975360Y94409920D01*
X38946789Y94438492D01*
X38889646Y94467063D01*
X38861074Y94467063D01*
X38803931Y94438492D01*
X38775360Y94409920D01*
X38746789Y94352778D01*
X38746789Y94238492D01*
X38775360Y94181349D01*
X38803931Y94152778D01*
X38861074Y94124206D01*
X38889646Y94124206D01*
X38946789Y94152778D01*
X38975360Y94181349D01*
X39003931Y94238492D01*
X39003931Y94352778D01*
X39032503Y94409920D01*
X39061074Y94438492D01*
X39118217Y94467063D01*
X39232503Y94467063D01*
X39289646Y94438492D01*
X39318217Y94409920D01*
X39346789Y94352778D01*
X39346789Y94238492D01*
X39318217Y94181349D01*
X39289646Y94152778D01*
X39232503Y94124206D01*
X39118217Y94124206D01*
X39061074Y94152778D01*
X39032503Y94181349D01*
X39003931Y94238492D01*
X42734589Y93771663D02*
X43220303Y93771663D01*
X43277446Y93743091D01*
X43306017Y93714520D01*
X43334589Y93657377D01*
X43334589Y93543091D01*
X43306017Y93485949D01*
X43277446Y93457377D01*
X43220303Y93428806D01*
X42734589Y93428806D01*
X43334589Y93114520D02*
X43334589Y93000235D01*
X43306017Y92943092D01*
X43277446Y92914520D01*
X43191731Y92857378D01*
X43077446Y92828806D01*
X42848874Y92828806D01*
X42791731Y92857378D01*
X42763160Y92885949D01*
X42734589Y92943092D01*
X42734589Y93057378D01*
X42763160Y93114520D01*
X42791731Y93143092D01*
X42848874Y93171663D01*
X42991731Y93171663D01*
X43048874Y93143092D01*
X43077446Y93114520D01*
X43106017Y93057378D01*
X43106017Y92943092D01*
X43077446Y92885949D01*
X43048874Y92857378D01*
X42991731Y92828806D01*
X50227589Y89790177D02*
X50713303Y89790177D01*
X50770446Y89761605D01*
X50799017Y89733034D01*
X50827589Y89675891D01*
X50827589Y89561605D01*
X50799017Y89504463D01*
X50770446Y89475891D01*
X50713303Y89447320D01*
X50227589Y89447320D01*
X50827589Y88847320D02*
X50827589Y89190177D01*
X50827589Y89018749D02*
X50227589Y89018749D01*
X50313303Y89075892D01*
X50370446Y89133034D01*
X50399017Y89190177D01*
X50827589Y88275891D02*
X50827589Y88618748D01*
X50827589Y88447320D02*
X50227589Y88447320D01*
X50313303Y88504463D01*
X50370446Y88561605D01*
X50399017Y88618748D01*
X53981709Y86559297D02*
X54467423Y86559297D01*
X54524566Y86530725D01*
X54553137Y86502154D01*
X54581709Y86445011D01*
X54581709Y86330725D01*
X54553137Y86273583D01*
X54524566Y86245011D01*
X54467423Y86216440D01*
X53981709Y86216440D01*
X54581709Y85616440D02*
X54581709Y85959297D01*
X54581709Y85787869D02*
X53981709Y85787869D01*
X54067423Y85845012D01*
X54124566Y85902154D01*
X54153137Y85959297D01*
X54038851Y85387868D02*
X54010280Y85359297D01*
X53981709Y85302154D01*
X53981709Y85159297D01*
X54010280Y85102154D01*
X54038851Y85073583D01*
X54095994Y85045011D01*
X54153137Y85045011D01*
X54238851Y85073583D01*
X54581709Y85416440D01*
X54581709Y85045011D01*
D14*
X5645268Y75008610D02*
X5811935Y75246705D01*
X5930982Y75008610D02*
X5930982Y75508610D01*
X5740506Y75508610D01*
X5692887Y75484800D01*
X5669078Y75460990D01*
X5645268Y75413371D01*
X5645268Y75341943D01*
X5669078Y75294324D01*
X5692887Y75270514D01*
X5740506Y75246705D01*
X5930982Y75246705D01*
X5169078Y75008610D02*
X5454792Y75008610D01*
X5311935Y75008610D02*
X5311935Y75508610D01*
X5359554Y75437181D01*
X5407173Y75389562D01*
X5454792Y75365752D01*
X5002411Y75508610D02*
X4692888Y75508610D01*
X4859554Y75318133D01*
X4788126Y75318133D01*
X4740507Y75294324D01*
X4716697Y75270514D01*
X4692888Y75222895D01*
X4692888Y75103848D01*
X4716697Y75056229D01*
X4740507Y75032419D01*
X4788126Y75008610D01*
X4930983Y75008610D01*
X4978602Y75032419D01*
X5002411Y75056229D01*
X54748548Y74886690D02*
X54915215Y75124785D01*
X55034262Y74886690D02*
X55034262Y75386690D01*
X54843786Y75386690D01*
X54796167Y75362880D01*
X54772358Y75339070D01*
X54748548Y75291451D01*
X54748548Y75220023D01*
X54772358Y75172404D01*
X54796167Y75148594D01*
X54843786Y75124785D01*
X55034262Y75124785D01*
X54558072Y75339070D02*
X54534262Y75362880D01*
X54486643Y75386690D01*
X54367596Y75386690D01*
X54319977Y75362880D01*
X54296167Y75339070D01*
X54272358Y75291451D01*
X54272358Y75243832D01*
X54296167Y75172404D01*
X54581881Y74886690D01*
X54272358Y74886690D01*
X53796168Y74886690D02*
X54081882Y74886690D01*
X53939025Y74886690D02*
X53939025Y75386690D01*
X53986644Y75315261D01*
X54034263Y75267642D01*
X54081882Y75243832D01*
D10*
X27443789Y96465297D02*
X27929503Y96465297D01*
X27986646Y96436725D01*
X28015217Y96408154D01*
X28043789Y96351011D01*
X28043789Y96236725D01*
X28015217Y96179583D01*
X27986646Y96151011D01*
X27929503Y96122440D01*
X27443789Y96122440D01*
X28043789Y95522440D02*
X28043789Y95865297D01*
X28043789Y95693869D02*
X27443789Y95693869D01*
X27529503Y95751012D01*
X27586646Y95808154D01*
X27615217Y95865297D01*
X27443789Y95322440D02*
X27443789Y94951011D01*
X27672360Y95151011D01*
X27672360Y95065297D01*
X27700931Y95008154D01*
X27729503Y94979583D01*
X27786646Y94951011D01*
X27929503Y94951011D01*
X27986646Y94979583D01*
X28015217Y95008154D01*
X28043789Y95065297D01*
X28043789Y95236725D01*
X28015217Y95293868D01*
X27986646Y95322440D01*
X31345229Y96500857D02*
X31830943Y96500857D01*
X31888086Y96472285D01*
X31916657Y96443714D01*
X31945229Y96386571D01*
X31945229Y96272285D01*
X31916657Y96215143D01*
X31888086Y96186571D01*
X31830943Y96158000D01*
X31345229Y96158000D01*
X31945229Y95558000D02*
X31945229Y95900857D01*
X31945229Y95729429D02*
X31345229Y95729429D01*
X31430943Y95786572D01*
X31488086Y95843714D01*
X31516657Y95900857D01*
X31545229Y95043714D02*
X31945229Y95043714D01*
X31316657Y95186571D02*
X31745229Y95329428D01*
X31745229Y94958000D01*
D15*
G36*
X7063505Y82843665D02*
X7040255Y82812350D01*
X6735455Y82233230D01*
X6726932Y82212943D01*
X6544052Y81643983D01*
X6538101Y81599127D01*
X6568581Y80953967D01*
X6571920Y80930434D01*
X6924294Y79456294D01*
X7343599Y76809114D01*
X7343599Y75038125D01*
X6926320Y72896430D01*
X6205727Y70971487D01*
X5116213Y68741785D01*
X5109435Y68724965D01*
X4672555Y67368605D01*
X4668016Y67309715D01*
X4881376Y65968595D01*
X4891387Y65935549D01*
X6745561Y61897908D01*
X7496124Y58810019D01*
X7521811Y55705629D01*
X6842616Y58701429D01*
X6833971Y58726783D01*
X5467451Y61673183D01*
X5454315Y61695310D01*
X2669742Y65457016D01*
X2349391Y66238476D01*
X2334975Y66872795D01*
X2631867Y68533375D01*
X3286415Y71329159D01*
X3289457Y71349360D01*
X3426617Y73335640D01*
X3426102Y73358768D01*
X3177182Y75543168D01*
X3172796Y75564768D01*
X2553036Y77662808D01*
X2543495Y77686223D01*
X561788Y81431701D01*
X196523Y82487886D01*
X7339788Y83115885D01*
X7063505Y82843665D01*
X7063505Y82843665D01*
G37*
X7063505Y82843665D02*
X7040255Y82812350D01*
X6735455Y82233230D01*
X6726932Y82212943D01*
X6544052Y81643983D01*
X6538101Y81599127D01*
X6568581Y80953967D01*
X6571920Y80930434D01*
X6924294Y79456294D01*
X7343599Y76809114D01*
X7343599Y75038125D01*
X6926320Y72896430D01*
X6205727Y70971487D01*
X5116213Y68741785D01*
X5109435Y68724965D01*
X4672555Y67368605D01*
X4668016Y67309715D01*
X4881376Y65968595D01*
X4891387Y65935549D01*
X6745561Y61897908D01*
X7496124Y58810019D01*
X7521811Y55705629D01*
X6842616Y58701429D01*
X6833971Y58726783D01*
X5467451Y61673183D01*
X5454315Y61695310D01*
X2669742Y65457016D01*
X2349391Y66238476D01*
X2334975Y66872795D01*
X2631867Y68533375D01*
X3286415Y71329159D01*
X3289457Y71349360D01*
X3426617Y73335640D01*
X3426102Y73358768D01*
X3177182Y75543168D01*
X3172796Y75564768D01*
X2553036Y77662808D01*
X2543495Y77686223D01*
X561788Y81431701D01*
X196523Y82487886D01*
X7339788Y83115885D01*
X7063505Y82843665D01*
G36*
X59271031Y82324623D02*
X58927885Y81295185D01*
X57409209Y78495759D01*
X57403973Y78484910D01*
X56636893Y76681510D01*
X56630955Y76664171D01*
X56310915Y75450051D01*
X56307879Y75434801D01*
X56104679Y73941281D01*
X56103537Y73922090D01*
X56134017Y72052650D01*
X56134654Y72041847D01*
X56271814Y70695647D01*
X56274119Y70681267D01*
X57109632Y66878417D01*
X57124186Y66141006D01*
X56838403Y65298187D01*
X55357815Y63379466D01*
X55355353Y63376167D01*
X53988833Y61481327D01*
X53976619Y61460455D01*
X52650739Y58600415D01*
X52642248Y58575713D01*
X51947740Y55583417D01*
X51973355Y58587749D01*
X52678762Y61615960D01*
X53719747Y64016290D01*
X54678841Y66020745D01*
X54690656Y66062985D01*
X54792256Y67084065D01*
X54789206Y67126966D01*
X54560606Y68056606D01*
X54552150Y68080445D01*
X53208564Y70929861D01*
X52512613Y72871465D01*
X52186159Y74453509D01*
X52100768Y76075942D01*
X52256602Y77880599D01*
X52629988Y79353961D01*
X52631939Y79363039D01*
X53012939Y81516959D01*
X53009887Y81574342D01*
X52755887Y82453182D01*
X52734238Y82495749D01*
X52348158Y82993589D01*
X52318042Y83021567D01*
X52152356Y83131560D01*
X59271031Y82324623D01*
X59271031Y82324623D01*
G37*
X59271031Y82324623D02*
X58927885Y81295185D01*
X57409209Y78495759D01*
X57403973Y78484910D01*
X56636893Y76681510D01*
X56630955Y76664171D01*
X56310915Y75450051D01*
X56307879Y75434801D01*
X56104679Y73941281D01*
X56103537Y73922090D01*
X56134017Y72052650D01*
X56134654Y72041847D01*
X56271814Y70695647D01*
X56274119Y70681267D01*
X57109632Y66878417D01*
X57124186Y66141006D01*
X56838403Y65298187D01*
X55357815Y63379466D01*
X55355353Y63376167D01*
X53988833Y61481327D01*
X53976619Y61460455D01*
X52650739Y58600415D01*
X52642248Y58575713D01*
X51947740Y55583417D01*
X51973355Y58587749D01*
X52678762Y61615960D01*
X53719747Y64016290D01*
X54678841Y66020745D01*
X54690656Y66062985D01*
X54792256Y67084065D01*
X54789206Y67126966D01*
X54560606Y68056606D01*
X54552150Y68080445D01*
X53208564Y70929861D01*
X52512613Y72871465D01*
X52186159Y74453509D01*
X52100768Y76075942D01*
X52256602Y77880599D01*
X52629988Y79353961D01*
X52631939Y79363039D01*
X53012939Y81516959D01*
X53009887Y81574342D01*
X52755887Y82453182D01*
X52734238Y82495749D01*
X52348158Y82993589D01*
X52318042Y83021567D01*
X52152356Y83131560D01*
X59271031Y82324623D01*
%LPC*%
D16*
X47798560Y93526360D03*
X47798560Y89526360D03*
X45998560Y89526360D03*
X45998560Y93526360D03*
D17*
X4226560Y91236800D03*
X55321200Y91231720D03*
X40822880Y4074160D03*
D18*
X23281640Y13202920D03*
D19*
X21781640Y13202920D03*
D20*
X35554920Y5699760D03*
D21*
X34284920Y5699760D03*
X33014920Y5699760D03*
X31744920Y5699760D03*
X30474920Y5699760D03*
X29204920Y5699760D03*
X27934920Y5699760D03*
X26664920Y5699760D03*
X25394920Y5699760D03*
X24124920Y5699760D03*
D16*
X5995240Y87953600D03*
X5995240Y83953600D03*
X4195240Y83953600D03*
X4195240Y87953600D03*
X9805240Y91113360D03*
X9805240Y87113360D03*
X8005240Y87113360D03*
X8005240Y91113360D03*
X13589840Y93516200D03*
X13589840Y89516200D03*
X11789840Y89516200D03*
X11789840Y93516200D03*
X17389680Y95385640D03*
X17389680Y91385640D03*
X15589680Y91385640D03*
X15589680Y95385640D03*
X21199680Y96620080D03*
X21199680Y92620080D03*
X19399680Y92620080D03*
X19399680Y96620080D03*
X24989360Y97417640D03*
X24989360Y93417640D03*
X23189360Y93417640D03*
X23189360Y97417640D03*
X36383800Y97432880D03*
X36383800Y93432880D03*
X34583800Y93432880D03*
X34583800Y97432880D03*
X40203960Y96620080D03*
X40203960Y92620080D03*
X38403960Y92620080D03*
X38403960Y96620080D03*
X43998720Y95360240D03*
X43998720Y91360240D03*
X42198720Y91360240D03*
X42198720Y95360240D03*
X51603480Y91087960D03*
X51603480Y87087960D03*
X49803480Y87087960D03*
X49803480Y91087960D03*
X55388080Y87928200D03*
X55388080Y83928200D03*
X53588080Y83928200D03*
X53588080Y87928200D03*
D17*
X18729960Y4064000D03*
D22*
X5308600Y76179720D03*
X5308600Y74279720D03*
X54437280Y76088280D03*
X54437280Y74188280D03*
D16*
X28784120Y97849440D03*
X28784120Y93849440D03*
X26984120Y93849440D03*
X26984120Y97849440D03*
X32589040Y97824040D03*
X32589040Y93824040D03*
X30789040Y93824040D03*
X30789040Y97824040D03*
M02*
