G04 #@! TF.FileFunction,Soldermask,Bot*
%FSLAX46Y46*%
G04 Gerber Fmt 4.6, Leading zero omitted, Abs format (unit mm)*
G04 Created by KiCad (PCBNEW 4.0.7) date 09/23/18 21:58:35*
%MOMM*%
%LPD*%
G01*
G04 APERTURE LIST*
%ADD10C,0.100000*%
%ADD11C,1.455599*%
%ADD12C,3.600000*%
%ADD13R,1.600000X1.600000*%
%ADD14C,1.600000*%
%ADD15R,1.400000X1.400000*%
%ADD16O,1.400000X1.400000*%
%ADD17R,1.700000X1.100000*%
G04 APERTURE END LIST*
D10*
X1991360Y94940120D02*
X1569720Y94726760D01*
X7457440Y96667320D02*
X1991360Y94940120D01*
X15046960Y98516440D02*
X11049000Y97627440D01*
X57668160Y94843600D02*
X58287920Y94482920D01*
X55463440Y95636080D02*
X57668160Y94843600D01*
X53431440Y96286320D02*
X55463440Y95636080D01*
X48834040Y97561400D02*
X53431440Y96286320D01*
X45572680Y98308160D02*
X48834040Y97561400D01*
X40345360Y99217480D02*
X45572680Y98308160D01*
X38663880Y99441000D02*
X40345360Y99217480D01*
X32816800Y99872800D02*
X38663880Y99441000D01*
X31125160Y99933760D02*
X32816800Y99872800D01*
X25831800Y99811840D02*
X31125160Y99933760D01*
X22926040Y99628960D02*
X25831800Y99811840D01*
X18364200Y99070160D02*
X22926040Y99628960D01*
X15041880Y98516440D02*
X18364200Y99070160D01*
X7457440Y96667320D02*
X11049000Y97627440D01*
X13736169Y7501919D02*
X13736169Y76178983D01*
X13045177Y79578342D02*
X13317392Y78922563D01*
X47649177Y81330087D02*
X47227071Y80788186D01*
X48103705Y81821866D02*
X47649177Y81330087D01*
X52502557Y82644971D02*
X52206217Y82988904D01*
X13317392Y78922563D02*
X13538200Y78237080D01*
X1886032Y78722485D02*
X2552462Y77234584D01*
X51854589Y83221899D02*
X51456443Y83350037D01*
X1273174Y94483809D02*
X1571638Y94729363D01*
X6825548Y82184017D02*
X7057828Y82644971D01*
X3279034Y72366703D02*
X3090867Y70815800D01*
X9986276Y82935653D02*
X10485443Y82630731D01*
X11911207Y81330087D02*
X12333314Y80788186D01*
X13539211Y78237275D02*
G75*
G02X13736169Y76178982I-10656517J-2058292D01*
G01*
X48581884Y82257441D02*
X48103705Y81821866D01*
X51020552Y83379400D02*
X50555685Y83316069D01*
X46846158Y80202244D02*
X46515208Y79578342D01*
X9004700Y83316069D02*
X9489771Y83166126D01*
X52734837Y82184017D02*
X52502557Y82644971D01*
X12714227Y80202244D02*
X13045177Y79578342D01*
X51456443Y83350037D02*
X51020552Y83379400D01*
X9489771Y83166126D02*
X9986276Y82935653D01*
X10978501Y82257441D02*
X11456680Y81821866D01*
X45823787Y76178982D02*
G75*
G02X46019720Y78232000I10853904J1D01*
G01*
X52206217Y82988904D02*
X51854589Y83221899D01*
X49574109Y82935653D02*
X49074942Y82630731D01*
X12333314Y80788186D02*
X12714227Y80202244D01*
X52828184Y80839038D02*
X52894287Y81599962D01*
X11456680Y81821866D02*
X11911207Y81330087D01*
X52517143Y79399596D02*
X52828184Y80839038D01*
X50070613Y83166126D02*
X49574109Y82935653D01*
X3210563Y64440185D02*
X4210579Y63211017D01*
X8539833Y83379400D02*
X9004700Y83316069D01*
X47227071Y80788186D02*
X46846158Y80202244D01*
X5456683Y61390807D02*
X6738444Y58605512D01*
X7705796Y83221899D02*
X8103941Y83350037D01*
X59111094Y81335358D02*
X58427034Y80083381D01*
X7354168Y82988904D02*
X7705796Y83221899D01*
X58800063Y93906849D02*
X58558623Y94208650D01*
X57006225Y65369136D02*
X56349822Y64440185D01*
X46242993Y78922563D02*
X46019720Y78232000D01*
X2787041Y69404082D02*
X2470201Y68169155D01*
X2254898Y67117148D02*
X2252560Y66212637D01*
X59499497Y91733962D02*
X59419509Y92501753D01*
X3031286Y75642902D02*
X3273510Y73998388D01*
X240055Y92875304D02*
X377407Y93236568D01*
X52894287Y81599962D02*
X52734837Y82184017D01*
X10485443Y82630731D02*
X10978501Y82257441D01*
X59499497Y82493011D02*
X59111094Y81335358D01*
X56286875Y73998388D02*
X56281351Y72366703D01*
X1001761Y94208650D02*
X1273174Y94483809D01*
X2552462Y77234584D02*
X3031286Y75642902D01*
X50555685Y83316069D02*
X50070613Y83166126D01*
X7057828Y82644971D02*
X7354168Y82988904D01*
X4210579Y63211017D02*
X5456683Y61390807D01*
X49074942Y82630731D02*
X48581884Y82257441D01*
X2554159Y65369136D02*
X3210563Y64440185D01*
X8103941Y83350037D02*
X8539833Y83379400D01*
X46515208Y79578342D02*
X46242993Y78922563D01*
X6738444Y58605512D02*
X7703630Y54391288D01*
X1133350Y80083381D02*
X1886032Y78722485D01*
X60887Y82493011D02*
X60887Y91733962D01*
X51929617Y58714014D02*
X51856755Y54391288D01*
X53450468Y63742710D02*
X52607700Y61704161D01*
X52607700Y61704161D02*
X51929617Y58714014D01*
X54174687Y65152104D02*
X53450468Y63742710D01*
X46987557Y3786452D02*
X46444086Y4878774D01*
X47723004Y2308277D02*
X46987557Y3786452D01*
X49371093Y70984D02*
X47723004Y2308277D01*
X6587006Y71414663D02*
X5997817Y70096289D01*
X29777982Y88435495D02*
G75*
G02X35824216Y78704700I-4807241J-9730794D01*
G01*
X5432454Y68953573D02*
X5004260Y67968828D01*
X29785324Y19713478D02*
G75*
G02X29744524Y19693387I-4815146J9726885D01*
G01*
X35824051Y29271491D02*
G75*
G02X29826030Y19689996I-10852748J125696D01*
G01*
X5997817Y70096289D02*
X5432454Y68953573D01*
X7387583Y77806044D02*
X7526912Y76149750D01*
X7043242Y79399596D02*
X7387583Y77806044D01*
X23743512Y29271574D02*
X23736169Y78704701D01*
X5004260Y67968828D02*
X4814928Y67084351D01*
X7423830Y74490692D02*
X7091817Y72893134D01*
X54624805Y66196714D02*
X54174687Y65152104D01*
X29815861Y19693387D02*
G75*
G02X29775061Y19713478I4774345J9746976D01*
G01*
X54745457Y67084351D02*
X54624805Y66196714D01*
X54556125Y67968828D02*
X54745457Y67084351D01*
X54127931Y68953573D02*
X54556125Y67968828D01*
X53562568Y70096289D02*
X54127931Y68953573D01*
X35816873Y29271574D02*
X35824216Y78704701D01*
X52973379Y71414663D02*
X53562568Y70096289D01*
X7526912Y76149750D02*
X7423830Y74490692D01*
X11837380Y2308277D02*
X12572827Y3786452D01*
X52468567Y72893134D02*
X52973379Y71414663D01*
X52136554Y74490692D02*
X52468567Y72893134D01*
X7091817Y72893134D02*
X6587006Y71414663D01*
X52033473Y76149750D02*
X52136554Y74490692D01*
X52172802Y77806044D02*
X52033473Y76149750D01*
X52517143Y79399596D02*
X52172802Y77806044D01*
X23732649Y78704701D02*
G75*
G02X29778960Y88437720I10856995J0D01*
G01*
X13116299Y4878774D02*
X13736169Y7501919D01*
X12572827Y3786452D02*
X13116299Y4878774D01*
X10189292Y70984D02*
X11837380Y2308277D01*
X7630768Y58714014D02*
X7703630Y54391288D01*
X6952685Y61704161D02*
X7630768Y58714014D01*
X29734355Y19689997D02*
G75*
G02X23736335Y29271491I4854727J9707190D01*
G01*
X6109917Y63742710D02*
X6952685Y61704161D01*
X5385697Y65152104D02*
X6109917Y63742710D01*
X4935580Y66196714D02*
X5385697Y65152104D01*
X4814928Y67084351D02*
X4935580Y66196714D01*
X140876Y92501753D02*
X240055Y92875304D01*
X56469517Y70815800D02*
X56773344Y69404082D01*
X377407Y93236568D02*
X551454Y93581655D01*
X3273510Y73998388D02*
X3279034Y72366703D01*
X57307824Y66212637D02*
X57006225Y65369136D01*
X57674352Y78722485D02*
X57007922Y77234584D01*
X2470201Y68169155D02*
X2254898Y67117148D01*
X6732201Y80839038D02*
X6666098Y81599962D01*
X60887Y82493011D02*
X449291Y81335358D01*
X45824216Y7501919D02*
X45824216Y76178983D01*
X59320330Y92875304D02*
X59182978Y93236568D01*
X59499497Y82493011D02*
X59499497Y91733962D01*
X59419509Y92501753D02*
X59320330Y92875304D01*
X3090867Y70815800D02*
X2787041Y69404082D01*
X59182978Y93236568D02*
X59008931Y93581655D01*
X52821941Y58605512D02*
X51856755Y54391288D01*
X56281351Y72366703D02*
X56469517Y70815800D01*
X56773344Y69404082D02*
X57090183Y68169155D01*
X2252560Y66212637D02*
X2554159Y65369136D01*
X449291Y81335358D02*
X1133350Y80083381D01*
X57007922Y77234584D02*
X56529099Y75642902D01*
X58427034Y80083381D02*
X57674352Y78722485D01*
X551454Y93581655D02*
X760322Y93906849D01*
X760322Y93906849D02*
X1001761Y94208650D01*
X57305486Y67117148D02*
X57307824Y66212637D01*
X57090183Y68169155D02*
X57305486Y67117148D01*
X7043242Y79399596D02*
X6732201Y80839038D01*
X60887Y91733962D02*
X140876Y92501753D01*
X49371093Y70984D02*
X10189292Y70984D01*
X58558623Y94208650D02*
X58287210Y94483809D01*
X56349822Y64440185D02*
X55349806Y63211017D01*
X55349806Y63211017D02*
X54103702Y61390807D01*
X59008931Y93581655D02*
X58800063Y93906849D01*
X54103702Y61390807D02*
X52821941Y58605512D01*
X56529099Y75642902D02*
X56286875Y73998388D01*
X6666098Y81599962D02*
X6825548Y82184017D01*
X46444086Y4878774D02*
X45824216Y7501919D01*
D11*
X47798560Y93526360D03*
X47798560Y89526360D03*
X45998560Y89526360D03*
X45998560Y93526360D03*
D12*
X4226560Y91236800D03*
X55321200Y91231720D03*
X40822880Y4074160D03*
D13*
X23281640Y13202920D03*
D14*
X21781640Y13202920D03*
D15*
X35554920Y5699760D03*
D16*
X34284920Y5699760D03*
X33014920Y5699760D03*
X31744920Y5699760D03*
X30474920Y5699760D03*
X29204920Y5699760D03*
X27934920Y5699760D03*
X26664920Y5699760D03*
X25394920Y5699760D03*
X24124920Y5699760D03*
D11*
X5995240Y87953600D03*
X5995240Y83953600D03*
X4195240Y83953600D03*
X4195240Y87953600D03*
X9805240Y91113360D03*
X9805240Y87113360D03*
X8005240Y87113360D03*
X8005240Y91113360D03*
X13589840Y93516200D03*
X13589840Y89516200D03*
X11789840Y89516200D03*
X11789840Y93516200D03*
X17389680Y95385640D03*
X17389680Y91385640D03*
X15589680Y91385640D03*
X15589680Y95385640D03*
X21199680Y96620080D03*
X21199680Y92620080D03*
X19399680Y92620080D03*
X19399680Y96620080D03*
X24989360Y97417640D03*
X24989360Y93417640D03*
X23189360Y93417640D03*
X23189360Y97417640D03*
X36383800Y97432880D03*
X36383800Y93432880D03*
X34583800Y93432880D03*
X34583800Y97432880D03*
X40203960Y96620080D03*
X40203960Y92620080D03*
X38403960Y92620080D03*
X38403960Y96620080D03*
X43998720Y95360240D03*
X43998720Y91360240D03*
X42198720Y91360240D03*
X42198720Y95360240D03*
X51603480Y91087960D03*
X51603480Y87087960D03*
X49803480Y87087960D03*
X49803480Y91087960D03*
X55388080Y87928200D03*
X55388080Y83928200D03*
X53588080Y83928200D03*
X53588080Y87928200D03*
D12*
X18729960Y4064000D03*
D17*
X5308600Y76179720D03*
X5308600Y74279720D03*
X54437280Y76088280D03*
X54437280Y74188280D03*
D11*
X28784120Y97849440D03*
X28784120Y93849440D03*
X26984120Y93849440D03*
X26984120Y97849440D03*
X32589040Y97824040D03*
X32589040Y93824040D03*
X30789040Y93824040D03*
X30789040Y97824040D03*
M02*
