M48
;DRILL file {KiCad 4.0.7} date 09/23/18 21:59:11
;FORMAT={-:-/ absolute / inch / decimal}
FMAT,2
INCH,TZ
T1C0.016
T2C0.024
T3C0.028
%
G90
G05
M72
T1
X0.209Y2.9244
X0.4972Y3.4558
X0.5298Y3.1898
X0.5316Y3.2352
X0.5384Y3.4176
X0.5891Y3.3053
X0.626Y3.3386
X0.6672Y2.0584
X0.6704Y0.3548
X0.6812Y1.4462
X0.6904Y3.236
X0.695Y3.1536
X0.7016Y2.3955
X0.7016Y1.7578
X0.739Y1.0094
X0.7444Y2.9996
X0.7868Y1.4452
X0.7924Y2.6776
X0.794Y2.3596
X0.796Y1.7502
X0.7978Y2.048
X0.9166Y0.6226
X1.1688Y0.5684
X1.1703Y0.5095
X1.2156Y0.7314
X1.2266Y0.333
X1.2772Y0.2704
X1.317Y0.5747
X1.3555Y0.4016
X1.3716Y0.7366
X1.3724Y0.6106
X1.4674Y3.3352
X1.484Y3.5868
X1.555Y2.0664
X1.5556Y2.3718
X1.5564Y1.1354
X1.5574Y1.7578
X1.5582Y1.4524
X1.5628Y2.6874
X1.5728Y3.1356
X1.5984Y2.9706
X1.6288Y3.3662
X1.6388Y0.5274
X1.6488Y3.2176
X1.6862Y3.437
X1.6934Y2.318
X1.6982Y1.4024
X1.7052Y2.0066
X1.7062Y1.7134
X2.1454Y2.9149
X2.1748Y3.3952
T2
X0.8575Y0.5198
X0.9166Y0.5198
T3
X0.1652Y3.4627
X0.1652Y3.3053
X0.236Y3.4627
X0.236Y3.3053
X0.3152Y3.5871
X0.3152Y3.4297
X0.386Y3.5871
X0.386Y3.4297
X0.4642Y3.6817
X0.4642Y3.5243
X0.535Y3.6817
X0.535Y3.5243
X0.6138Y3.7553
X0.6138Y3.5979
X0.6846Y3.7553
X0.6846Y3.5979
X0.7638Y3.8039
X0.7638Y3.6465
X0.8346Y3.8039
X0.8346Y3.6465
X0.913Y3.8353
X0.913Y3.6779
X0.9498Y0.2244
X0.9838Y3.8353
X0.9838Y3.6779
X0.9998Y0.2244
X1.0498Y0.2244
X1.0624Y3.8523
X1.0624Y3.6949
X1.0998Y0.2244
X1.1332Y3.8523
X1.1332Y3.6949
X1.1498Y0.2244
X1.1998Y0.2244
X1.2122Y3.8513
X1.2122Y3.6939
X1.2498Y0.2244
X1.283Y3.8513
X1.283Y3.6939
X1.2998Y0.2244
X1.3498Y0.2244
X1.3616Y3.8359
X1.3616Y3.6785
X1.3998Y0.2244
X1.4324Y3.8359
X1.4324Y3.6785
X1.512Y3.8039
X1.512Y3.6465
X1.5828Y3.8039
X1.5828Y3.6465
X1.6614Y3.7543
X1.6614Y3.5969
X1.7322Y3.7543
X1.7322Y3.5969
X1.811Y3.6821
X1.811Y3.5247
X1.8818Y3.6821
X1.8818Y3.5247
X1.9608Y3.5861
X1.9608Y3.4287
X2.0316Y3.5861
X2.0316Y3.4287
X2.1098Y3.4617
X2.1098Y3.3043
X2.1806Y3.4617
X2.1806Y3.3043
T0
M30
