M48
;DRILL file {KiCad 4.0.7} date 02/25/18 14:17:31
;FORMAT={-:-/ absolute / inch / decimal}
FMAT,2
INCH,TZ
T1C0.016
T2C0.024
T3C0.026
T4C0.028
T5C0.030
T6C0.031
T7C0.035
T8C0.039
T9C0.059
%
G90
G05
M72
T1
X0.4236Y2.0134
X0.4856Y2.0596
X0.7162Y1.4112
X0.9206Y2.5538
X2.032Y0.5332
X2.3384Y3.079
X2.345Y3.6432
X2.3466Y3.1138
X2.3618Y2.8744
X2.4398Y3.5525
X2.4599Y3.2344
X2.4616Y3.269
X2.4619Y3.2022
X2.4652Y3.579
X2.4674Y2.8684
X2.5258Y2.633
X2.5288Y3.4934
X2.5346Y3.1224
X2.5394Y2.9166
X2.5714Y3.1787
X2.5942Y3.0454
X2.6147Y3.2476
X2.621Y3.0274
X2.6312Y3.1406
X2.6388Y2.7568
X2.6458Y3.3503
X2.6594Y3.5113
X2.674Y3.15
X2.6786Y3.3681
X2.6832Y3.3284
X2.7028Y3.1646
X2.7298Y2.7834
X2.735Y3.3078
X2.735Y3.158
X2.7364Y2.6852
X2.7605Y3.0368
X2.7614Y3.1375
X2.7763Y3.204
X2.7773Y3.2363
X2.7903Y3.2937
X2.8112Y3.0224
X2.8142Y2.9786
X2.8184Y3.566
X2.864Y3.4496
X2.9157Y2.9211
X2.9757Y3.4564
X2.9816Y3.1058
X2.9978Y3.3086
X3.0038Y2.5682
X3.0064Y3.4749
X3.1164Y3.5664
X3.1388Y3.3803
X3.215Y3.3408
X3.3308Y3.311
X3.367Y3.3612
X3.6528Y2.4628
X3.7026Y3.3126
X3.7652Y3.1549
X3.7661Y3.1163
X3.7754Y3.192
X3.9372Y3.1118
X4.0052Y2.484
X4.1046Y2.2158
X4.1698Y2.5932
X4.2616Y2.078
X4.2844Y2.2532
X4.3204Y0.478
X4.3506Y2.4506
X4.3707Y2.4759
X4.4394Y2.2532
X4.5308Y0.48
X4.6676Y2.2952
X4.8148Y2.0114
X4.8918Y2.1006
T2
X1.6184Y0.8153
X1.6972Y0.8153
X2.2268Y2.6008
X2.2268Y2.5221
X2.2286Y2.7946
X2.2286Y2.7159
T3
X2.4666Y3.813
X2.5166Y3.813
X2.5666Y3.813
X2.6166Y3.813
X2.6666Y3.813
X2.7166Y3.813
X2.7666Y3.813
X2.8166Y3.813
X2.8666Y3.813
X2.9166Y3.813
T4
X0.205Y2.1937
X0.205Y2.1228
X0.3625Y2.1937
X0.3625Y2.1228
X5.0184Y2.1927
X5.0184Y2.1218
X5.1759Y2.1927
X5.1759Y2.1218
T5
X1.0184Y1.8295
X1.0186Y2.4295
X1.3784Y2.4295
X1.3784Y1.8295
T6
X1.0054Y0.8012
X1.0997Y2.6398
X1.1038Y0.8012
X1.2966Y2.6398
X4.3286Y0.7651
X4.427Y0.7651
T7
X3.8251Y0.9126
X4.1251Y0.9126
T8
X0.5764Y0.5526
X0.6764Y0.5526
X0.7764Y0.5526
X0.8764Y0.5526
X0.9764Y0.5526
X1.0764Y0.5526
X1.296Y0.5566
X1.5216Y2.0325
X1.5216Y1.9325
X1.5216Y1.8325
X1.5912Y0.5566
X1.6206Y0.9931
X1.7206Y0.9931
X1.8326Y0.4972
X1.8326Y0.3972
X1.8326Y0.2972
X1.8349Y0.7908
X1.8349Y0.6908
X2.4374Y0.0598
X2.5374Y0.0598
X2.5908Y3.6489
X2.6374Y0.0598
X2.6908Y3.6489
X2.7374Y0.0598
X2.7908Y3.6489
X2.8374Y0.0598
X2.9374Y0.0598
X3.6118Y0.4956
X3.6139Y0.7552
X3.7118Y0.4956
X3.7139Y0.7552
X3.8118Y0.4956
X3.8139Y0.7552
X3.9118Y0.4956
X3.9139Y0.7552
X4.0139Y0.7552
X4.1139Y0.7552
X4.2898Y0.5583
X4.3898Y0.5583
X4.4898Y0.5583
X4.5898Y0.5583
X4.6898Y0.5583
X4.7898Y0.5583
T9
X3.1428Y3.0401
X3.1428Y2.8472
T0
M30
