G04 #@! TF.FileFunction,Profile,NP*
%FSLAX46Y46*%
G04 Gerber Fmt 4.6, Leading zero omitted, Abs format (unit mm)*
G04 Created by KiCad (PCBNEW 4.0.7) date 02/25/18 14:16:29*
%MOMM*%
%LPD*%
G01*
G04 APERTURE LIST*
%ADD10C,0.100000*%
G04 APERTURE END LIST*
D10*
X55337507Y44112146D02*
X55337507Y44234536D01*
X55525898Y41843304D02*
X55412819Y42651522D01*
X51664431Y103047556D02*
X52284300Y105670699D01*
X55412819Y42651522D02*
X55349274Y43484082D01*
X59209027Y34793445D02*
X58707080Y35317395D01*
X55349274Y43484082D02*
X55337507Y44112146D01*
X13290962Y20281172D02*
X12857417Y19632326D01*
X12208570Y49894278D02*
X12857417Y49460732D01*
X13443203Y21046539D02*
X13290962Y20281172D01*
X2274640Y16612213D02*
X4880860Y14349947D01*
X10524130Y10382675D02*
X13535033Y8696053D01*
X12857417Y49460732D02*
X13290962Y48811886D01*
X23156101Y4915012D02*
X26509704Y4100409D01*
X16653701Y7218170D02*
X19865685Y5955873D01*
X56476027Y38728691D02*
X56165505Y39483396D01*
X56833324Y37994974D02*
X56476027Y38728691D01*
X55689501Y41043782D02*
X55525898Y41843304D01*
X55902985Y40256109D02*
X55689501Y41043782D01*
X56165505Y39483396D02*
X55902985Y40256109D01*
X12857417Y19632326D02*
X12208570Y19198781D01*
X63765186Y56209330D02*
X64537899Y56471850D01*
X46149343Y95447825D02*
X48522250Y97947667D01*
X13443203Y48046520D02*
X13443203Y21046539D01*
X61170533Y33205757D02*
X60503960Y33676590D01*
X59868266Y34188347D02*
X59233597Y34768600D01*
X17783197Y75127250D02*
X21543970Y77806391D01*
X5113893Y63551433D02*
X7775746Y66597371D01*
X48737426Y98239770D02*
X50385513Y100477061D01*
X26509704Y4100409D02*
X29910955Y3515838D01*
X7775746Y66597371D02*
X10824383Y69534288D01*
X2913526Y60384927D02*
X5113893Y63551433D01*
X4880860Y14349947D02*
X7634943Y12270222D01*
X12208570Y19198781D02*
X11443204Y19046540D01*
X11443204Y50046519D02*
X12208570Y49894278D01*
X52284300Y105670699D02*
X52284300Y108670697D01*
X55471660Y45907301D02*
X55614385Y46713819D01*
X68140299Y31055717D02*
X67278481Y31098401D01*
X68262690Y31055717D02*
X68140299Y31055717D01*
X68328313Y31056947D02*
X68262690Y31055717D01*
X1731674Y18894299D02*
X1247485Y18460754D01*
X67278481Y31098401D02*
X66467534Y31189871D01*
X64091397Y31766272D02*
X63328674Y32056543D01*
X40173409Y90490608D02*
X43341496Y92965988D01*
X136179554Y50632305D02*
X135571640Y50198759D01*
X133992887Y19046540D02*
X125213421Y19046540D01*
X136623847Y52046517D02*
X136549040Y51281151D01*
X136623847Y52046517D02*
X136460568Y53644017D01*
X136549040Y51281151D02*
X136179554Y50632305D01*
X135409140Y18460754D02*
X135371740Y17811908D01*
X135371740Y17811908D02*
X134818446Y17046541D01*
X123365663Y48811886D02*
X123213422Y48046520D01*
X77423029Y34768600D02*
X77447599Y34793445D01*
X125832243Y69534288D02*
X122471525Y72373731D01*
X79980703Y49789152D02*
X79597127Y50509480D01*
X116790940Y5955873D02*
X113500524Y4915012D01*
X70531531Y56848938D02*
X69723313Y56962016D01*
X75089696Y55138848D02*
X74379861Y55541511D01*
X80608563Y48283438D02*
X80318292Y49046161D01*
X79597127Y50509480D02*
X79169078Y51204302D01*
X78186488Y52506569D02*
X77606235Y53141239D01*
X79420638Y37285139D02*
X79823301Y37994974D01*
X78485746Y35948217D02*
X78974199Y36601988D01*
X73646144Y55898808D02*
X72891439Y56209330D01*
X73327951Y32056543D02*
X74070942Y32394132D01*
X81276434Y45096354D02*
X81184965Y45907301D01*
X80839553Y47552458D02*
X80608563Y48283438D01*
X71331054Y56685334D02*
X70531531Y56848938D01*
X68890753Y57025561D02*
X67765872Y57025561D01*
X80180598Y38728691D02*
X80491120Y39483396D01*
X76152665Y33676590D02*
X76788359Y34188347D01*
X70992695Y31332079D02*
X71785784Y31524467D01*
X69723313Y56962016D02*
X68890753Y57025561D01*
X74791270Y32777708D02*
X75486092Y33205757D01*
X78974199Y36601988D02*
X79420638Y37285139D01*
X129021682Y12270222D02*
X126132495Y10382675D01*
X103601297Y85513028D02*
X99936839Y88010137D01*
X99936839Y88010137D02*
X96483216Y90490608D01*
X77581391Y53165809D02*
X77057441Y53667755D01*
X115112655Y77806391D02*
X111263907Y80422703D01*
X77606235Y53141239D02*
X77581391Y53165809D01*
X79823301Y37994974D02*
X80180598Y38728691D01*
X136460568Y53644017D02*
X135407279Y57086304D01*
X72118726Y56471850D02*
X71331054Y56685334D01*
X88134375Y97947667D02*
X87919199Y98239770D01*
X135407279Y57086304D02*
X133743099Y60384927D01*
X135571640Y50198759D02*
X134817847Y50046519D01*
X133992887Y19046540D02*
X134924951Y18894299D01*
X122471525Y72373731D02*
X118873428Y75127250D01*
X103312530Y3164009D02*
X99863410Y3046551D01*
X75772847Y54692409D02*
X75089696Y55138848D01*
X79169078Y51204302D02*
X78698246Y51870875D01*
X123121592Y8696053D02*
X120002924Y7218170D01*
X134817847Y50046519D02*
X125213421Y50046519D01*
X80856739Y47483462D02*
X80839553Y47552458D01*
X70189091Y31189871D02*
X70992695Y31332079D01*
X80318292Y49046161D02*
X79980703Y49789152D01*
X93315129Y92965988D02*
X90507282Y95447825D01*
X77949545Y35317395D02*
X78485746Y35948217D01*
X74379861Y55541511D02*
X73646144Y55898808D01*
X134818446Y17046541D02*
X134381985Y16612213D01*
X78698246Y51870875D02*
X78186488Y52506569D01*
X71785784Y31524467D02*
X72565228Y31766272D01*
X81042240Y46713819D02*
X80856739Y47483462D01*
X76426618Y54203956D02*
X75772847Y54692409D01*
X74070942Y32394132D02*
X74791270Y32777708D01*
X81319118Y44234536D02*
X81276434Y45096354D01*
X123365663Y20281172D02*
X123799208Y19632326D01*
X90507282Y95447825D02*
X88134375Y97947667D01*
X80491120Y39483396D02*
X80753640Y40256109D01*
X80967124Y41043782D02*
X81130728Y41843304D01*
X77447599Y34793445D02*
X77949545Y35317395D01*
X81307351Y43484082D02*
X81319118Y44112146D01*
X81130728Y41843304D02*
X81243806Y42651522D01*
X84992194Y103047556D02*
X84372325Y105670699D01*
X80753640Y40256109D02*
X80967124Y41043782D01*
X123213422Y48046520D02*
X123213422Y21046539D01*
X113500524Y4915012D02*
X110146921Y4100409D01*
X123799208Y19632326D02*
X124448055Y19198781D01*
X75486092Y33205757D02*
X76152665Y33676590D01*
X72891439Y56209330D02*
X72118726Y56471850D01*
X120002924Y7218170D02*
X116790940Y5955873D01*
X124448055Y49894278D02*
X123799208Y49460732D01*
X123213422Y21046539D02*
X123365663Y20281172D01*
X123799208Y49460732D02*
X123365663Y48811886D01*
X81243806Y42651522D02*
X81307351Y43484082D01*
X81319118Y44112146D02*
X81319118Y44234536D01*
X76788359Y34188347D02*
X77423029Y34768600D01*
X87919199Y98239770D02*
X86271112Y100477061D01*
X125213421Y50046519D02*
X124448055Y49894278D01*
X68393936Y31055717D02*
X68516326Y31055717D01*
X131542732Y63551433D02*
X128880879Y66597371D01*
X126132495Y10382675D02*
X123121592Y8696053D01*
X118873428Y75127250D02*
X115112655Y77806391D01*
X128880879Y66597371D02*
X125832243Y69534288D01*
X84372325Y105670699D02*
X84372325Y108670697D01*
X124448055Y19198781D02*
X125213421Y19046540D01*
X81184965Y45907301D02*
X81042240Y46713819D01*
X133743099Y60384927D02*
X131542732Y63551433D01*
X134381985Y16612213D02*
X131775766Y14349947D01*
X68328313Y31056947D02*
X68393936Y31055717D01*
X72565228Y31766272D02*
X73327951Y32056543D01*
X68516326Y31055717D02*
X69378144Y31098401D01*
X131775766Y14349947D02*
X129021682Y12270222D01*
X134924951Y18894299D02*
X135409140Y18460754D01*
X69378144Y31098401D02*
X70189091Y31189871D01*
X110146921Y4100409D02*
X106745670Y3515838D01*
X96483216Y90490608D02*
X93315129Y92965988D01*
X79602937Y1677189D02*
G75*
G02X75275511Y46551I-5551025J8174012D01*
G01*
X79602936Y1677189D02*
X79784394Y1788383D01*
X68328313Y46551D02*
X68328313Y46551D01*
X52560764Y3046551D02*
G75*
G02X56872231Y1788383I-953919J-11285182D01*
G01*
X68328313Y46551D02*
X61381115Y46551D01*
X57053689Y1677189D02*
X56872231Y1788383D01*
X68328313Y46551D02*
X68328313Y46551D01*
X52560764Y3046551D02*
X36793216Y3046551D01*
X61381115Y46551D02*
G75*
G02X57053689Y1677189I1223599J9804650D01*
G01*
X74402333Y105625584D02*
X74216537Y105688653D01*
X74741450Y102015204D02*
X74578308Y101906196D01*
X75328308Y103467484D02*
X75277196Y102817005D01*
X62828316Y101705235D02*
X73828309Y101705235D01*
X61767657Y105300425D02*
X61915175Y105429795D01*
X75214127Y104813790D02*
X75127346Y104989765D01*
X33344095Y3164009D02*
X29910955Y3515838D01*
X62254292Y105625584D02*
X62440088Y105688653D01*
X61638287Y105152907D02*
X61767657Y105300425D01*
X61529279Y104989765D02*
X61638287Y105152907D01*
X74888968Y102144574D02*
X74741450Y102015204D01*
X75018338Y102292092D02*
X74888968Y102144574D01*
X61638287Y102292092D02*
X61529279Y102455234D01*
X75127346Y104989765D02*
X75018338Y105152907D01*
X62828316Y101705235D02*
X62440088Y101756346D01*
X75018338Y105152907D02*
X74888968Y105300425D01*
X62828316Y105739764D02*
X73828309Y105739764D01*
X74888968Y105300425D02*
X74741450Y105429795D01*
X75214127Y102631209D02*
X75127346Y102455234D01*
X61915175Y105429795D02*
X62078317Y105538803D01*
X75328308Y104239765D02*
X75277196Y104627994D01*
X61328317Y104239765D02*
X61379429Y104627994D01*
X75277196Y104627994D02*
X75214127Y104813790D01*
X61442498Y102631209D02*
X61379429Y102817005D01*
X61529279Y102455234D02*
X61442498Y102631209D01*
X74578308Y105538803D02*
X74402333Y105625584D01*
X84372325Y108670697D02*
X52284300Y108670697D01*
X62440088Y101756346D02*
X62254292Y101819415D01*
X61767657Y102144574D02*
X61638287Y102292092D01*
X61915175Y102015204D02*
X61767657Y102144574D01*
X74402333Y101819415D02*
X74216537Y101756346D01*
X74578308Y101906196D02*
X74402333Y101819415D01*
X75127346Y102455234D02*
X75018338Y102292092D01*
X79784394Y1788383D02*
G75*
G02X84095861Y3046551I5265386J-10027014D01*
G01*
X99863410Y3046551D02*
X84095861Y3046551D01*
X68328313Y46551D02*
X75275511Y46551D01*
X62254292Y101819415D02*
X62078317Y101906196D01*
X75277196Y102817005D02*
X75214127Y102631209D01*
X76426618Y54203956D02*
X77057441Y53667755D01*
X103312530Y3164009D02*
X106745670Y3515838D01*
X62078317Y105538803D02*
X62254292Y105625584D01*
X61442498Y104813790D02*
X61529279Y104989765D01*
X74216537Y101756346D02*
X73828309Y101705235D01*
X61379429Y104627994D02*
X61442498Y104813790D01*
X74741450Y105429795D02*
X74578308Y105538803D01*
X75328308Y103467484D02*
X75328308Y104239765D01*
X61328317Y103467484D02*
X61379429Y102817005D01*
X62078317Y101906196D02*
X61915175Y102015204D01*
X61328317Y103467484D02*
X61328317Y104239765D01*
X50385513Y100477061D02*
X51664431Y103047556D01*
X60230007Y54203956D02*
X59599184Y53667755D01*
X33055328Y85513028D02*
X25392718Y80422703D01*
X74216537Y105688653D02*
X73828309Y105739764D01*
X86271112Y100477061D02*
X84992194Y103047556D01*
X103601297Y85513028D02*
X111263907Y80422703D01*
X62440088Y105688653D02*
X62828316Y105739764D01*
X107585Y51281151D02*
X477071Y50632305D01*
X32778Y52046517D02*
X196057Y53644017D01*
X477071Y50632305D02*
X1084985Y50198759D01*
X13290962Y48811886D02*
X13443203Y48046520D01*
X55799887Y47483462D02*
X55817072Y47552458D01*
X64870841Y31524467D02*
X64091397Y31766272D01*
X1838778Y50046519D02*
X11443204Y50046519D01*
X63010481Y55898808D02*
X63765186Y56209330D01*
X33055328Y85513028D02*
X36719786Y88010137D01*
X2663738Y19046540D02*
X11443204Y19046540D01*
X55817072Y47552458D02*
X56048062Y48283438D01*
X65663930Y31332079D02*
X64870841Y31524467D01*
X61865355Y32777708D02*
X61170533Y33205757D01*
X1284885Y17811908D02*
X1838179Y17046541D01*
X1249346Y57086304D02*
X2913526Y60384927D01*
X57487547Y51204302D02*
X57958379Y51870875D01*
X66125094Y56848938D02*
X66933312Y56962016D01*
X32778Y52046517D02*
X107585Y51281151D01*
X10824383Y69534288D02*
X14185100Y72373731D01*
X59233597Y34768600D02*
X59209027Y34793445D01*
X1247485Y18460754D02*
X1284885Y17811908D01*
X48522250Y97947667D02*
X48737426Y98239770D01*
X64537899Y56471850D02*
X65325572Y56685334D01*
X58707080Y35317395D02*
X58170879Y35948217D01*
X66933312Y56962016D02*
X67765872Y57025561D01*
X7634943Y12270222D02*
X10524130Y10382675D01*
X14185100Y72373731D02*
X17783197Y75127250D01*
X66467534Y31189871D02*
X65663930Y31332079D01*
X65325572Y56685334D02*
X66125094Y56848938D01*
X56338333Y49046161D02*
X56675922Y49789152D01*
X55337507Y44234536D02*
X55380191Y45096354D01*
X63328674Y32056543D02*
X62585683Y32394132D01*
X58170879Y35948217D02*
X57682426Y36601988D01*
X57682426Y36601988D02*
X57235987Y37285139D01*
X36719786Y88010137D02*
X40173409Y90490608D01*
X59075235Y53165809D02*
X59599184Y53667755D01*
X21543970Y77806391D02*
X25392718Y80422703D01*
X196057Y53644017D02*
X1249346Y57086304D01*
X1084985Y50198759D02*
X1838778Y50046519D01*
X13535033Y8696053D02*
X16653701Y7218170D01*
X19865685Y5955873D02*
X23156101Y4915012D01*
X62585683Y32394132D02*
X61865355Y32777708D01*
X1838179Y17046541D02*
X2274640Y16612213D01*
X56675922Y49789152D02*
X57059498Y50509480D01*
X57059498Y50509480D02*
X57487547Y51204302D01*
X60503960Y33676590D02*
X59868266Y34188347D01*
X59050390Y53141239D02*
X59075235Y53165809D01*
X2663738Y19046540D02*
X1731674Y18894299D01*
X33344095Y3164009D02*
X36793216Y3046551D01*
X57958379Y51870875D02*
X58470137Y52506569D01*
X62276764Y55541511D02*
X63010481Y55898808D01*
X60883778Y54692409D02*
X61566929Y55138848D01*
X57235987Y37285139D02*
X56833324Y37994974D01*
X43341496Y92965988D02*
X46149343Y95447825D01*
X60230007Y54203956D02*
X60883778Y54692409D01*
X61566929Y55138848D02*
X62276764Y55541511D01*
X55614385Y46713819D02*
X55799887Y47483462D01*
X55380191Y45096354D02*
X55471660Y45907301D01*
X56048062Y48283438D02*
X56338333Y49046161D01*
X58470137Y52506569D02*
X59050390Y53141239D01*
M02*
